<svg width="176" height="115" viewBox="0 0 176 115" version="1.1" xmlns="http://www.w3.org/2000/svg" xmlns:xlink="http://www.w3.org/1999/xlink">
<title>Page 1 Copy 10</title>
<desc>Created using Figma</desc>
<g id="Canvas" transform="translate(1423 59)">
<g id="Page 1 Copy 10">
<g id="Group">
<g id="Path">
<use xlink:href="#path0_fill" transform="translate(-1423 -18.053)" fill="#CEE8FA"/>
</g>
<g id="Path">
<use xlink:href="#path1_fill" transform="translate(-1331.51 -51.1591)" fill="#CEE8FA"/>
</g>
<g id="Fill 1">
<use xlink:href="#path2_fill" transform="translate(-1423 -18.053)" fill="#2D527C"/>
</g>
<g id="Fill 3">
<use xlink:href="#path3_fill" transform="translate(-1383.79 -4.98485)" fill="#2D527C"/>
</g>
<g id="Fill 6">
<use xlink:href="#path4_fill" transform="translate(-1382.92 -12.8258)" fill="#2D527C"/>
</g>
<g id="Fill 8">
<use xlink:href="#path5_fill" transform="translate(-1339.36 -59)" fill="#2D527C"/>
</g>
</g>
</g>
</g>
<defs>
<path id="path0_fill" fill-rule="evenodd" d="M 38.0177 74.053L 9.03183 74.053C 4.05172 74.053 0 69.9716 0 64.9551L 0 9.09794C 0 4.08138 4.05172 0 9.03183 0L 38.0177 0C 42.9978 0 47.0495 4.08138 47.0495 9.09794L 47.0495 64.9551C 47.0495 69.9716 42.9978 74.053 38.0177 74.053Z"/>
<path id="path1_fill" fill-rule="evenodd" d="M 11.7019 0.00634707C 9.32188 0.00634707 6.77151 1.0285 4.0967 3.05864C 2.12181 4.55752 -0.995543 8.24518 0.310009 16.1051C 1.92815 25.8487 10.5705 38.6782 25.787 44.4318C 41.4617 38.5258 50.3444 25.4406 51.991 15.5264C 52.527 12.3021 52.7691 6.39489 48.3738 3.05864C 45.0526 0.538449 41.9857 -0.41084 39.0022 0.160815C 33.2334 1.26291 29.3685 7.67185 29.3299 7.73639C 28.5922 8.97921 27.2195 9.74114 25.753 9.70783C 24.286 9.67744 22.9478 8.87512 22.2644 7.60191C 22.2377 7.55278 18.7623 1.30537 13.3451 0.174554C 12.8075 0.062555 12.2592 0.00634707 11.7019 0.00634707Z"/>
<path id="path2_fill" fill-rule="evenodd" d="M 8.90123 7.84091C 8.32688 7.84091 7.84155 8.32876 7.84155 8.90608L 7.84155 65.147C 7.84155 65.7243 8.32688 66.2121 8.90123 66.2121L 38.1482 66.2121C 38.7226 66.2121 39.2079 65.7243 39.2079 65.147L 39.2079 8.90608C 39.2079 8.32876 38.7226 7.84091 38.1482 7.84091L 8.90123 7.84091ZM 38.0177 74.053L 9.03183 74.053C 4.05172 74.053 0 69.9716 0 64.9551L 0 9.09794C 0 4.08138 4.05172 0 9.03183 0L 38.0177 0C 42.9978 0 47.0495 4.08138 47.0495 9.09794L 47.0495 64.9551C 47.0495 69.9716 42.9978 74.053 38.0177 74.053Z"/>
<path id="path3_fill" fill-rule="evenodd" d="M 73.0892 58.3712C 71.6064 58.3712 70.4853 58.2005 69.7952 58.0537L 30.6013 58.0537C 18.9484 58.0537 14.625 52.9132 13.4022 50.9572L 1.00308 36.9943C -0.461978 35.3444 -0.303697 32.8264 1.35678 31.3707C 3.01726 29.9154 5.55104 30.0718 7.01651 31.7221L 20.2045 46.5733L 20.2894 46.866C 20.6891 47.3957 23.0903 50.0853 30.6013 50.0853L 70.9838 50.0853L 71.4384 50.2539C 72.0255 50.3889 77.0226 51.3183 84.4487 46.1857C 93.3716 40.0182 123.013 19.4037 127.378 16.369C 128.134 15.2647 129.888 12.1675 127.689 9.80003C 125.035 6.94355 120.309 8.16021 118.963 8.58421L 90.7066 27.9895C 88.884 29.2414 86.3869 28.7872 85.1287 26.9775C 83.8692 25.167 84.3251 22.6855 86.1472 21.4348L 115.22 1.46837L 115.64 1.30145C 116.089 1.12237 126.723 -2.98852 133.581 4.39531C 139.452 10.7139 135.981 18.5247 133.325 21.7724L 132.972 22.2048L 132.513 22.524C 132.175 22.7589 98.6303 46.0901 89.0284 52.727C 82.2864 57.3873 76.6478 58.3712 73.0892 58.3712Z"/>
<path id="path4_fill" fill-rule="evenodd" d="M 57.4585 49.6591C 55.0388 49.6591 52.5499 49.0065 50.1071 47.7021C 46.9615 46.0227 44.8512 43.7958 44.4367 43.3398L 28.055 26.0542L 22.1847 26.0542C 19.9675 26.0542 18.1704 24.2716 18.1704 22.0724C 18.1704 19.8732 19.9675 18.0906 22.1847 18.0906L 31.5268 18.0906L 50.4071 38.0159C 50.6057 38.2339 55.6292 43.6809 60.2351 40.8887C 62.0775 39.7721 63.1285 38.5256 63.3596 37.1831C 63.7467 34.9327 62.0277 32.503 61.7817 32.171C 60.7507 31.0285 50.9294 20.1686 43.8552 13.1519C 37.8776 7.22278 32.1979 7.96717 32.1408 7.97723L 31.8133 8.0313L 4.01438 8.0313C 1.79717 8.0313 0 6.24871 0 4.0495C 0 1.85029 1.79717 0.0677033 4.01438 0.0677033L 31.2522 0.0677033C 33.2348 -0.131387 41.5387 -0.408436 49.5324 7.52079C 57.1318 15.0581 67.4243 26.4821 67.8582 26.9645L 67.9753 27.1003C 68.4207 27.6423 72.2986 32.5667 71.2738 38.5231C 70.8348 41.0735 69.2899 44.733 64.4219 47.6841C 62.2499 49.0006 59.8895 49.6591 57.4585 49.6591Z"/>
<path id="path5_fill" fill-rule="evenodd" d="M 19.5435 7.84726C 17.1634 7.84726 14.6131 8.86941 11.9383 10.8996C 9.96337 12.3984 6.84601 16.0861 8.15156 23.946C 9.7697 33.6896 18.4121 46.5191 33.6285 52.2727C 49.3032 46.3667 58.186 33.2815 59.8326 23.3673C 60.3685 20.143 60.6106 14.2358 56.2153 10.8996C 52.8941 8.37936 49.8273 7.43007 46.8437 8.00172C 41.0749 9.10381 37.2101 15.5128 37.1714 15.5773C 36.4337 16.8201 35.0611 17.582 33.5945 17.5487C 32.1276 17.5183 30.7893 16.716 30.106 15.4428C 30.0792 15.3937 26.6038 9.14628 21.1867 8.01546C 20.649 7.90346 20.1007 7.84726 19.5435 7.84726ZM 33.6241 60.9848C 33.1776 60.9848 32.7303 60.911 32.3025 60.7621C 13.1664 54.1175 2.49072 38.2582 0.399894 25.4886C -1.03521 16.7281 1.4316 9.17143 7.16735 4.75616C 12.4208 0.711805 17.7472 -0.763867 22.9977 0.369846C 27.7461 1.39489 31.3708 4.41882 33.7734 7.11799C 36.3272 4.3928 40.186 1.30971 45.158 0.327048C 50.4697 -0.724006 55.7915 0.766771 60.9741 4.75616C 66.5609 9.05688 68.9661 16.4013 67.5736 24.9054C 66.4212 31.9418 62.7877 39.2878 57.3422 45.5916C 51.3731 52.5013 43.6284 57.7473 34.9456 60.7621C 34.5178 60.911 34.0709 60.9848 33.6241 60.9848Z"/>
</defs>
</svg>
