<svg width="154" height="158" viewBox="0 0 154 158" version="1.1" xmlns="http://www.w3.org/2000/svg" xmlns:xlink="http://www.w3.org/1999/xlink">
<title>Page 1</title>
<desc>Created using Figma</desc>
<g id="Canvas" transform="translate(-3720 61)">
<g id="Page 1">
<g id="Fill 1">
<use xlink:href="#path0_fill" transform="translate(3775.15 54.7406)" fill="#CEE8FA"/>
</g>
<g id="Group 5">
<mask id="mask0_outline" mask-type="alpha">
<g id="Clip 4">
<use xlink:href="#path1_fill" transform="translate(3771.12 50.7032)" fill="#FFFFFF"/>
</g>
</mask>
<g id="Fill 3" mask="url(#mask0_outline)">
<use xlink:href="#path2_fill" transform="translate(3771.12 50.7032)" fill="#2D527C"/>
</g>
</g>
<g id="Fill 6">
<use xlink:href="#path3_fill" transform="translate(3720 30.5159)" fill="#2D527C"/>
</g>
<g id="Fill 8">
<use xlink:href="#path4_fill" transform="translate(3835.69 30.5159)" fill="#2D527C"/>
</g>
<g id="Fill 10">
<use xlink:href="#path5_fill" transform="translate(3767.08 29.17)" fill="#2D527C"/>
</g>
<g id="Fill 12">
<use xlink:href="#path6_fill" transform="translate(3767.08 8.98271)" fill="#2D527C"/>
</g>
<g id="Group 16">
<mask id="mask1_outline" mask-type="alpha">
<g id="Clip 15">
<use xlink:href="#path7_fill" transform="translate(3748.25 -26.0086)" fill="#FFFFFF"/>
</g>
</mask>
<g id="Fill 14" mask="url(#mask1_outline)">
<use xlink:href="#path8_fill" transform="translate(3748.25 -26.0086)" fill="#2D527C"/>
</g>
</g>
<g id="Fill 17">
<use xlink:href="#path9_fill" transform="translate(3768.43 -56.9625)" fill="#CEE8FA"/>
</g>
<g id="Fill 19">
<use xlink:href="#path10_fill" transform="translate(3764.39 -61)" fill="#2D527C"/>
</g>
</g>
</g>
<defs>
<path id="path0_fill" fill-rule="evenodd" d="M 43.0476 36.3372L 0 36.3372L 0 9.83774C 0 4.40445 4.37145 0 9.76216 0L 33.2846 0C 38.6762 0 43.0476 4.40445 43.0476 9.83774L 43.0476 36.3372Z"/>
<path id="path1_fill" fill-rule="evenodd" d="M 5.99732e-15 45.7579L 52.4643 45.7579L 52.4643 0L 0 0L 0 45.7579L 5.99732e-15 45.7579Z"/>
<path id="path2_fill" fill-rule="evenodd" d="M 9.41675 36.3372L 43.0477 36.3372L 43.0477 14.6265C 43.0477 11.7565 40.7309 9.42075 37.8831 9.42075L 14.5822 9.42075C 11.7335 9.42075 9.41675 11.7565 9.41675 14.6265L 9.41675 36.3372ZM 47.8887 45.7579L 4.57642 45.7579C 2.0485 45.7579 0 43.6948 0 41.1487L 0 14.5017C 0 6.50491 6.45949 0 14.3986 0L 38.0657 0C 46.0048 0 52.4643 6.50576 52.4643 14.5017L 52.4643 41.1487C 52.4643 43.6948 50.4158 45.7579 47.8887 45.7579Z"/>
<path id="path3_fill" fill-rule="evenodd" d="M 33.0169 64.5994L 4.64979 64.5994C 2.08173 64.5994 0 62.563 0 60.05L 0 16.8318C 0 7.55082 7.71878 0 17.2053 0C 19.7743 0 21.856 2.03643 21.856 4.54946C 21.856 7.06164 19.7743 9.09807 17.2053 9.09807C 12.8463 9.09807 9.30044 12.5676 9.30044 16.8318L 9.30044 55.5014L 33.0169 55.5014C 35.5849 55.5014 37.6667 57.5378 37.6667 60.0508C 37.6667 62.563 35.5858 64.5994 33.0169 64.5994Z"/>
<path id="path4_fill" fill-rule="evenodd" d="M 33.0169 64.5994L 4.64979 64.5994C 2.08173 64.5994 0 62.563 0 60.05C 0 57.5369 2.08173 55.5005 4.64979 55.5005L 28.3662 55.5005L 28.3662 16.8318C 28.3662 12.5676 24.8203 9.09807 20.4613 9.09807C 17.8924 9.09807 15.8107 7.06164 15.8107 4.54946C 15.8107 2.03643 17.8924 0 20.4613 0C 29.9487 0 37.6667 7.55082 37.6667 16.831L 37.6667 60.05C 37.6675 62.563 35.5858 64.5994 33.0169 64.5994Z"/>
<path id="path5_fill" fill-rule="evenodd" d="M 53.3019 9.42075L 4.54335 9.42075C 2.03454 9.42075 0 7.31229 0 4.71037C 0 2.10846 2.03454 0 4.54335 0L 53.3019 0C 55.8115 0 57.8452 2.10846 57.8452 4.71037C 57.8452 7.31229 55.8115 9.42075 53.3019 9.42075Z"/>
<path id="path6_fill" fill-rule="evenodd" d="M 53.3019 9.42075L 4.54335 9.42075C 2.03454 9.42075 0 7.31142 0 4.71037C 0 2.10846 2.03454 0 4.54335 0L 53.3019 0C 55.8115 0 57.8452 2.10846 57.8452 4.71037C 57.8452 7.31142 55.8115 9.42075 53.3019 9.42075Z"/>
<path id="path7_fill" fill-rule="evenodd" d="M 0 121.124L 96.8571 121.124L 96.8571 0L 6.04458e-15 0L 6.04458e-15 121.124L 0 121.124Z"/>
<path id="path8_fill" fill-rule="evenodd" d="M 9.41675 111.703L 87.4406 111.703L 87.4406 20.3909C 87.4406 14.6413 82.9472 9.84726 77.1857 9.42075L 19.6708 9.42075C 13.9101 9.84726 9.41675 14.6413 9.41675 20.3909L 9.41675 111.703ZM 92.2447 121.124L 4.61249 121.124C 2.0655 121.124 0 119.076 0 116.548L 0 20.18C 0 9.53634 8.38193 0.676043 19.0837 0.00928398C 19.1799 0.00337599 19.276 0 19.3721 0L 77.485 0C 77.582 0 77.6781 0.002532 77.7743 0.00928398C 88.4752 0.676043 96.8571 9.53634 96.8571 20.18L 96.8571 116.549C 96.8571 119.076 94.7916 121.124 92.2447 121.124Z"/>
<path id="path9_fill" fill-rule="evenodd" d="M 27.5774 0C 22.1089 0 17.6759 4.43491 17.6759 9.90574L 17.6759 17.6836L 9.90144 17.6836C 4.43299 17.6836 0 22.1185 0 27.5893C 0 33.0602 4.43299 37.4951 9.90144 37.4951L 17.6759 37.4951L 17.6759 45.2729C 17.6759 50.7438 22.1089 55.1787 27.5774 55.1787C 33.0458 55.1787 37.4788 50.7438 37.4788 45.2729L 37.4788 37.4951L 45.2533 37.4951C 50.7218 37.4951 55.1548 33.061 55.1548 27.5893C 55.1548 22.1185 50.7218 17.6836 45.2533 17.6836L 37.4788 17.6836L 37.4788 9.90574C 37.4788 4.43491 33.0458 0 27.5774 0Z"/>
<path id="path10_fill" fill-rule="evenodd" d="M 14.6918 27.0224C 11.7831 27.0224 9.41675 29.3898 9.41675 32.2997C 9.41675 35.2097 11.7831 37.577 14.6918 37.577L 22.4302 37.577C 24.9604 37.577 27.0108 39.6291 27.0108 42.1596L 27.0108 49.9014C 27.0108 52.8113 29.3771 55.1787 32.2858 55.1787C 35.1945 55.1787 37.5608 52.8113 37.5608 49.9014L 37.5608 42.1596C 37.5608 39.6283 39.612 37.577 42.1414 37.577L 49.8798 37.577C 52.7885 37.577 55.1548 35.2097 55.1548 32.2997C 55.1548 29.3898 52.7885 27.0216 49.8798 27.0216L 42.1414 27.0216C 39.612 27.0216 37.5608 24.9703 37.5608 22.4399L 37.5608 14.698C 37.5608 11.7881 35.1945 9.42075 32.2858 9.42075C 29.3771 9.42075 27.0108 11.7881 27.0108 14.698L 27.0108 22.4399C 27.0108 24.9712 24.9604 27.0224 22.4302 27.0224L 14.6918 27.0224ZM 32.2857 64.5994C 24.2624 64.5994 17.7344 58.0694 17.7344 50.0416L 17.7344 46.8571L 14.5513 46.8571C 6.52799 46.8571 0 40.327 0 32.2993C 0 24.2724 6.52799 17.7415 14.5513 17.7415L 17.7344 17.7415L 17.7344 14.557C 17.7344 6.53091 24.2624 0 32.2857 0C 40.3099 0 46.837 6.53091 46.837 14.5578L 46.837 17.7423L 50.0201 17.7423C 58.0434 17.7423 64.5714 24.2732 64.5714 32.3001C 64.5714 40.3279 58.0443 46.8579 50.0201 46.8579L 46.837 46.8579L 46.837 50.0425C 46.8362 58.0694 40.309 64.5994 32.2857 64.5994Z"/>
</defs>
</svg>
