<svg width="105" height="68" viewBox="0 0 105 68" version="1.1" xmlns="http://www.w3.org/2000/svg" xmlns:xlink="http://www.w3.org/1999/xlink">
<title>Page 1.svg</title>
<desc>Created using Figma</desc>
<g id="Canvas" transform="translate(-3424 -898)">
<g id="Page 1">
<g id="Group">
<g id="Path 2">
<use xlink:href="#path0_fill" transform="translate(3476 899)" fill="#CEE8FA"/>
</g>
<g id="Rectangle 4">
<use xlink:href="#path1_fill" transform="translate(3428 925)" fill="#CEE8FA"/>
</g>
<g id="Fill 1">
<use xlink:href="#path2_fill" transform="translate(3424 922)" fill="#2D527C"/>
</g>
<g id="Fill 3">
<use xlink:href="#path3_fill" transform="translate(3447 930)" fill="#2D527C"/>
</g>
<g id="Fill 6">
<use xlink:href="#path4_fill" transform="translate(3448 925)" fill="#2D527C"/>
</g>
<g id="Fill 8">
<use xlink:href="#path5_fill" transform="translate(3474 898)" fill="#2D527C"/>
</g>
</g>
</g>
</g>
<defs>
<path id="path0_fill" fill-rule="evenodd" d="M 18.2697 6.16917C 18.2697 6.16917 12.3784 -3.08458 5.45159 1.54229C -1.47523 6.16917 -5.86047 24.0679 18.3889 32C 19.7702 31.6418 29.7557 27.3527 31.6836 23.2052C 34.1859 17.8222 35.9204 15.0729 35.997 11.4C 36.1326 4.8972 31.711 0.609427 27.6942 1.07586C 23.6774 1.54229 18.2697 6.16917 18.2697 6.16917Z"/>
<path id="path1_fill" fill-rule="evenodd" d="M 0 0L 21 0L 21 39L 0 39L 0 0Z"/>
<path id="path2_fill" fill-rule="evenodd" d="M 5.64189 5C 5.29399 5 5 5.29252 5 5.63869L 5 39.3613C 5 39.7075 5.29399 40 5.64189 40L 23.3581 40C 23.706 40 24 39.7075 24 39.3613L 24 5.63869C 24 5.29252 23.706 5 23.3581 5L 5.64189 5ZM 22.625 44L 5.375 44C 2.41125 44 0 41.575 0 38.5943L 0 5.40571C 0 2.42503 2.41125 0 5.375 0L 22.625 0C 25.5887 0 28 2.42503 28 5.40571L 28 38.5943C 28 41.575 25.5887 44 22.625 44Z"/>
<path id="path3_fill" fill-rule="evenodd" d="M 43.8133 35C 42.9244 35 42.2524 34.8977 41.8387 34.8096L 18.344 34.8096C 11.3586 34.8096 8.76696 31.7273 8.03396 30.5545L 0.601294 22.1822C -0.276933 21.1929 -0.182051 19.6831 0.813324 18.8102C 1.8087 17.9376 3.32757 18.0314 4.20605 19.0209L 12.1116 27.9258L 12.1625 28.1014C 12.4021 28.419 13.8415 30.0317 18.344 30.0317L 42.5512 30.0317L 42.8237 30.1327C 43.1757 30.2137 46.1712 30.771 50.6228 27.6935C 55.9716 23.9953 73.7403 11.6347 76.3565 9.81502C 76.8102 9.15289 77.8615 7.29577 76.5433 5.8762C 74.952 4.16342 72.119 4.89295 71.3124 5.14719L 54.374 16.7828C 53.2815 17.5335 51.7846 17.2611 51.0304 16.176C 50.2754 15.0904 50.5487 13.6024 51.6409 12.8526L 69.0688 0.88045L 69.3201 0.780364C 69.5896 0.672985 75.9641 -1.79195 80.0754 2.63548C 83.5944 6.42416 81.5135 11.1076 79.9218 13.055L 79.71 13.3143L 79.4348 13.5056C 79.2321 13.6465 59.124 27.6361 53.368 31.6157C 49.3266 34.41 45.9465 35 43.8133 35Z"/>
<path id="path4_fill" fill-rule="evenodd" d="M 34.5818 29C 33.1255 29 31.6275 28.6189 30.1573 27.8572C 28.2641 26.8764 26.994 25.5759 26.7445 25.3096L 16.8851 15.2152L 13.352 15.2152C 12.0176 15.2152 10.936 14.1742 10.936 12.8899C 10.936 11.6056 12.0176 10.5646 13.352 10.5646L 18.9746 10.5646L 30.3379 22.2006C 30.4574 22.3279 33.4808 25.5089 36.2529 23.8782C 37.3618 23.2262 37.9943 22.4982 38.1334 21.7142C 38.3664 20.4001 37.3318 18.9812 37.1838 18.7873C 36.5632 18.1201 30.6522 11.7781 26.3946 7.68046C 22.7969 4.21797 19.3785 4.65268 19.3442 4.65855L 19.1471 4.69013L 2.41608 4.69013C 1.08164 4.69013 0 3.64913 0 2.36483C 0 1.08054 1.08164 0.0395375 2.41608 0.0395375L 18.8093 0.0395375C 20.0026 -0.0767273 25.0004 -0.238519 29.8114 4.392C 34.3852 8.79367 40.5798 15.4651 40.841 15.7468L 40.9114 15.8261C 41.1795 16.1426 43.5134 19.0184 42.8967 22.4968C 42.6324 23.9862 41.7026 26.1232 38.7728 27.8467C 37.4656 28.6155 36.0449 29 34.5818 29Z"/>
<path id="path5_fill" fill-rule="evenodd" d="M 12.163 5.00371C 10.7061 5.00371 9.14499 5.60184 7.50768 6.78982C 6.29881 7.66691 4.39061 9.8248 5.18976 14.4242C 6.18026 20.1258 11.4704 27.6332 20.7847 31C 30.3796 27.544 35.8169 19.887 36.8248 14.0855C 37.1529 12.1988 37.3011 8.74208 34.6106 6.78982C 32.5776 5.31508 30.7004 4.75959 28.8741 5.0941C 25.3428 5.73901 22.9771 9.48931 22.9534 9.52707C 22.5019 10.2543 21.6616 10.7002 20.7639 10.6807C 19.866 10.6629 19.0468 10.1934 18.6285 9.44838C 18.6122 9.41963 16.4848 5.76386 13.1688 5.10214C 12.8397 5.03661 12.5041 5.00371 12.163 5.00371ZM 20.2851 36C 20.0158 36 19.746 35.9564 19.4878 35.8685C 7.9432 31.9462 1.50264 22.5842 0.241253 15.0462C -0.624532 9.87478 0.863671 5.41399 4.32401 2.80761C 7.49338 0.420186 10.7068 -0.450919 13.8744 0.218324C 16.739 0.823416 18.9258 2.60847 20.3753 4.20183C 21.9159 2.59312 24.2439 0.773136 27.2435 0.19306C 30.448 -0.427389 33.6586 0.452633 36.7852 2.80761C 40.1557 5.34637 41.6067 9.68184 40.7666 14.7019C 40.0714 18.8556 37.8793 23.192 34.5941 26.9132C 30.993 30.9921 26.3207 34.0889 21.0824 35.8685C 20.8243 35.9564 20.5547 36 20.2851 36Z"/>
</defs>
</svg>

