<svg width="133" height="125" viewBox="0 0 133 125" version="1.1" xmlns="http://www.w3.org/2000/svg" xmlns:xlink="http://www.w3.org/1999/xlink">
<title>Page 1.svg</title>
<desc>Created using Figma</desc>
<g id="Canvas" transform="translate(-5712 -578)">
<g id="Page 1">
<g id="Fill 1">
<use xlink:href="#path0_fill" transform="translate(5758.5 617.49)" fill="#CEE8FA"/>
</g>
<g id="Fill 3">
<use xlink:href="#path1_fill" transform="translate(5778.64 617.49)" fill="#CEE8FA"/>
</g>
<g id="Fill 5">
<use xlink:href="#path2_fill" transform="translate(5775.41 628.017)" fill="#2D527C"/>
</g>
<g id="Fill 7">
<use xlink:href="#path3_fill" transform="translate(5768.12 630.743)" fill="#CEE8FA"/>
</g>
<g id="Fill 9">
<use xlink:href="#path4_fill" transform="translate(5768.12 675.268)" fill="#CEE8FA"/>
</g>
<g id="Group 13">
<mask id="mask0_outline" mask-type="alpha">
<g id="Clip 12">
<use xlink:href="#path5_fill" transform="translate(5731.71 614.764)" fill="#FFFFFF"/>
</g>
</mask>
<g id="Fill 11" mask="url(#mask0_outline)">
<use xlink:href="#path6_fill" transform="translate(5731.71 614.764)" fill="#2D527C"/>
</g>
</g>
<g id="Group 16">
<mask id="mask1_outline" mask-type="alpha">
<g id="Clip 15">
<use xlink:href="#path7_fill" transform="translate(5824.55 604.359)" fill="#FFFFFF"/>
</g>
</mask>
<g id="Fill 14" mask="url(#mask1_outline)">
<use xlink:href="#path8_fill" transform="translate(5824.55 604.359)" fill="#2D527C"/>
</g>
</g>
<g id="Fill 17">
<use xlink:href="#path9_fill" transform="translate(5810.37 584.767)" fill="#2D527C"/>
</g>
<g id="Fill 19">
<use xlink:href="#path10_fill" transform="translate(5735.28 583.992)" fill="#2D527C"/>
</g>
<g id="Group 23">
<mask id="mask2_outline" mask-type="alpha">
<g id="Clip 22">
<use xlink:href="#path11_fill" transform="translate(5762.85 578.243)" fill="#FFFFFF"/>
</g>
</mask>
<g id="Fill 21" mask="url(#mask2_outline)">
<use xlink:href="#path12_fill" transform="translate(5762.85 578.243)" fill="#2D527C"/>
</g>
</g>
<g id="Fill 24">
<use xlink:href="#path13_fill" transform="translate(5787.62 578.352)" fill="#2D527C"/>
</g>
<g id="Fill 26">
<use xlink:href="#path14_fill" transform="translate(5712 604.359)" fill="#2D527C"/>
</g>
</g>
</g>
<defs>
<path id="path0_fill" fill-rule="evenodd" d="M 20.1363 10.0874C 20.1363 11.1942 19.9594 12.2573 19.63 13.2524L 0.506078 13.2524C 0.176849 12.2573 0 11.1942 0 10.0874C 0 4.51481 4.50868 0 10.068 0C 15.6274 0 20.1363 4.51481 20.1363 10.0874Z"/>
<path id="path1_fill" fill-rule="evenodd" d="M 20.1361 10.0874C 20.1361 11.1942 19.9592 12.2573 19.6297 13.2524L 0.506078 13.2524C 0.176849 12.2573 0 11.1942 0 10.0874C 0 4.51481 4.50868 0 10.068 0C 15.6274 0 20.1361 4.51481 20.1361 10.0874Z"/>
<path id="path2_fill" fill-rule="evenodd" d="M 3.73321 5.45243L 2.72081 5.45243C 1.21808 5.45243 0 4.23155 0 2.72621C 0 1.22063 1.21808 0 2.72081 0L 3.73321 0C 5.23569 0 6.45426 1.22063 6.45426 2.72621C 6.45426 4.23155 5.23594 5.45243 3.73321 5.45243Z"/>
<path id="path3_fill" fill-rule="evenodd" d="M 21.0428 37.6405L 10.5215 29.4566L 0 37.6405L 0 0L 21.0428 0L 21.0428 37.6405Z"/>
<path id="path4_fill" fill-rule="evenodd" d="M 0 8.18422L 10.5218 0L 21.0431 8.18422L 21.0431 25.4493L 10.5223 25.4493L 0 25.4493L 0 8.18422Z"/>
<path id="path5_fill" fill-rule="evenodd" d="M 0 88.1518L 93.8621 88.1518L 93.8621 0L 0 0L 0 88.1518Z"/>
<path id="path6_fill" fill-rule="evenodd" d="M 64.3337 13.2525L 57.4531 13.2525L 49.6652 13.2525C 49.6567 13.1066 49.6523 12.9607 49.6523 12.8136C 49.6523 8.75488 52.9483 5.4527 56.9996 5.4527C 61.0506 5.4527 64.3465 8.75488 64.3465 12.8136C 64.3465 12.9605 64.3422 13.1066 64.3337 13.2525ZM 54.7318 48.0514L 48.6 43.2818C 48.109 42.9 47.5203 42.7087 46.9313 42.7087C 46.3424 42.7087 45.7537 42.8995 45.2627 43.2818L 39.1309 48.0514L 39.1309 18.7048L 46.4253 18.7048L 47.4377 18.7048L 54.7321 18.7048L 54.7321 48.0512L 54.7318 48.0512L 54.7318 48.0514ZM 36.4093 13.2525L 29.5285 13.2525C 29.5202 13.1066 29.5156 12.9607 29.5156 12.8136C 29.5156 8.75488 32.8116 5.4527 36.8626 5.4527C 40.9139 5.4527 44.2098 8.75488 44.2098 12.8136C 44.2098 12.9607 44.2055 13.1068 44.197 13.2525L 36.4093 13.2525ZM 5.44238 30.9269L 33.6883 30.9269L 33.6883 18.7051L 5.44238 18.7051L 5.44238 30.9269ZM 39.1304 69.0401L 46.9309 62.9726L 54.7313 69.0401L 54.7313 82.6998L 39.1304 82.6998L 39.1304 69.0401ZM 91.1409 13.2527L 69.7797 13.2527C 69.7848 13.1063 69.7887 12.9604 69.7887 12.8136C 69.7887 5.74806 64.0515 0 56.9996 0C 52.9149 0 49.2744 1.93083 46.9313 4.92597C 44.5882 1.93058 40.9475 0 36.863 0C 29.8109 0 24.0737 5.74806 24.0737 12.8136C 24.0737 12.9604 24.0778 13.1063 24.0829 13.2527L 2.72129 13.2527C 1.21856 13.2527 0 14.4733 0 15.9786L 0 33.6532C 0 35.1585 1.21856 36.3794 2.72129 36.3794L 7.06693 36.3794L 7.06693 85.4257C 7.06693 86.9311 8.28525 88.1519 9.78822 88.1519L 84.0742 88.1519C 85.5767 88.1519 86.7955 86.9311 86.7955 85.4257L 86.7955 47.2939C 86.7955 45.7886 85.5767 44.5677 84.0742 44.5677C 82.5717 44.5677 81.3534 45.7886 81.3534 47.2939L 81.3534 82.6995L 60.1734 82.6995L 60.1734 67.7051C 60.1734 66.8629 59.7848 66.068 59.121 65.5519L 48.5998 57.3675C 47.6176 56.6032 46.2438 56.6036 45.2622 57.3675L 34.7406 65.5517C 34.0766 66.0684 33.6882 66.8631 33.6882 67.7053L 33.6882 82.6998L 12.509 82.6998L 12.509 36.3796L 33.6882 36.3796L 33.6882 53.6192C 33.6882 54.66 34.2798 55.6102 35.213 56.0677C 35.5929 56.2539 36.0018 56.3456 36.4091 56.3456C 37.0028 56.3456 37.5918 56.1512 38.0785 55.7728L 46.9313 48.8867L 55.7844 55.7728C 56.6047 56.4107 57.7167 56.5245 58.6494 56.0677C 59.5825 55.6102 60.1739 54.66 60.1739 53.6192L 60.1739 18.7051L 88.42 18.7051L 88.42 30.9269L 70.8771 30.9269C 69.3746 30.9269 68.1558 32.1478 68.1558 33.6532C 68.1558 35.1585 69.3746 36.3794 70.8771 36.3794L 91.1411 36.3794C 92.6436 36.3794 93.8621 35.1585 93.8621 33.6532L 93.8621 15.9786C 93.8621 14.4731 92.6436 13.2527 91.1409 13.2527Z"/>
<path id="path7_fill" fill-rule="evenodd" d="M 20.3311 6.89847e-14L 20.3311 16.2583L 0 16.2583L 0 0L 20.3311 0L 20.3311 6.89847e-14Z"/>
<path id="path8_fill" fill-rule="evenodd" d="M 2.54601 16.2583C 1.76182 16.2583 0.988286 15.8962 0.490202 15.2132C -0.338807 14.077 -0.0912185 12.4823 1.04304 11.6517L 16.2864 0.491063C 17.4207 -0.339519 19.0121 -0.0912185 19.8411 1.04495C 20.6701 2.18135 20.4223 3.77577 19.288 4.60635L 4.04486 15.7673C 3.59208 16.0986 3.06662 16.2583 2.54601 16.2583Z"/>
<path id="path9_fill" fill-rule="evenodd" d="M 2.54176 20.3011C 2.01606 20.3011 1.48576 20.1382 1.03055 19.8006C -0.0986127 18.9632 -0.336511 17.3673 0.499282 16.236L 11.7323 1.03239C 12.5681 -0.0986794 14.1607 -0.337272 15.2901 0.50035C 16.4193 1.33773 16.6572 2.9336 15.8212 4.06491L 4.58837 19.2686C 4.08955 19.9438 3.32063 20.3011 2.54176 20.3011Z"/>
<path id="path10_fill" fill-rule="evenodd" d="M 11.3171 21.8494C 10.4016 21.8494 9.51713 21.353 9.06241 20.4843L 0.291674 3.73335C -0.360971 2.48699 0.118459 0.946457 1.36246 0.292817C 2.60694 -0.36228 4.14431 0.11903 4.79672 1.36539L 13.5674 18.1164C 14.2201 19.363 13.7407 20.9035 12.4967 21.5571C 12.1197 21.7554 11.7154 21.8494 11.3171 21.8494Z"/>
<path id="path11_fill" fill-rule="evenodd" d="M 6.88541e-15 0L 8.70765 0L 8.70765 23.6622L 0 23.6622L 0 2.75939e-14L 6.88541e-15 0Z"/>
<path id="path12_fill" fill-rule="evenodd" d="M 6.16059 23.6622C 4.96819 23.6622 3.90419 22.8181 3.66678 21.6018L 0.047677 3.03676C -0.221715 1.65545 0.677792 0.316854 2.05673 0.0469511C 3.43591 -0.220039 4.77148 0.678504 5.04087 2.05982L 8.65997 20.6246C 8.92936 22.0062 8.02986 23.3445 6.65092 23.6147C 6.48643 23.6467 6.32242 23.6622 6.16059 23.6622Z"/>
<path id="path13_fill" fill-rule="evenodd" d="M 2.54609 23.4432C 2.34066 23.4432 2.13207 23.418 1.92397 23.3656C 0.561508 23.0224 -0.265321 21.6374 0.0774749 20.2726L 4.68209 1.92794C 5.02464 0.562893 6.40697 -0.266476 7.76943 0.0779416C 9.13189 0.421145 9.95872 1.8061 9.61592 3.17115L 5.01107 21.5156C 4.72085 22.6719 3.68422 23.4432 2.54609 23.4432Z"/>
<path id="path14_fill" fill-rule="evenodd" d="M 17.7853 16.2583C 17.2647 16.2583 16.7393 16.0986 16.2865 15.7673L 1.04309 4.60635C -0.0911659 3.77577 -0.338754 2.1816 0.490013 1.04495C 1.31854 -0.0912185 2.91042 -0.339519 4.04467 0.491063L 19.2883 11.6517C 20.4226 12.4823 20.6702 14.0767 19.8411 15.2132C 19.3433 15.8962 18.5695 16.2583 17.7853 16.2583Z"/>
</defs>
</svg>
