<svg width="24" height="24" viewBox="0 0 24 24" version="1.1" xmlns="http://www.w3.org/2000/svg" xmlns:xlink="http://www.w3.org/1999/xlink">
<title>Page 1 Copy</title>
<desc>Created using Figma</desc>
<g id="Canvas" transform="translate(-819 -1251)">
<g id="Page 1 Copy 6">
<mask id="mask0_outline" mask-type="alpha">
<g id="Mask">
<use xlink:href="#path0_fill" transform="translate(819 1251)" fill="#FFFFFF"/>
</g>
</mask>
<g id="Mask" mask="url(#mask0_outline)">
<use xlink:href="#path0_fill" transform="translate(819 1251)" fill="#D8D8D8"/>
</g>
<g id="Page 1" mask="url(#mask0_outline)">
<g id="Fill 1">
<use xlink:href="#path1_fill" transform="translate(807 1247)" fill="#FF0000"/>
</g>
<g id="Group 36">
<g id="Fill 2">
<use xlink:href="#path2_fill" transform="translate(823 1255)" fill="#FFC600"/>
</g>
<g id="Fill 4">
<use xlink:href="#path3_fill" transform="translate(827 1262)" fill="#FFC600"/>
</g>
<g id="Fill 6">
<use xlink:href="#path4_fill" transform="translate(827 1263)" fill="#FFC600"/>
</g>
<g id="Fill 8">
<use xlink:href="#path5_fill" transform="translate(828 1263)" fill="#FFC600"/>
</g>
<g id="Fill 10">
<use xlink:href="#path6_fill" transform="translate(832 1261)" fill="#FFC600"/>
</g>
<g id="Fill 12">
<use xlink:href="#path7_fill" transform="translate(829 1263)" fill="#FFC600"/>
</g>
<g id="Fill 14">
<use xlink:href="#path8_fill" transform="translate(831 1261)" fill="#FFC600"/>
</g>
<g id="Fill 16">
<use xlink:href="#path9_fill" transform="translate(827 1259)" fill="#FFC600"/>
</g>
<g id="Fill 18">
<use xlink:href="#path10_fill" transform="translate(827 1261)" fill="#FFC600"/>
</g>
<g id="Fill 20">
<use xlink:href="#path11_fill" transform="translate(827 1261)" fill="#FFC600"/>
</g>
<g id="Fill 22">
<use xlink:href="#path12_fill" transform="translate(830 1262)" fill="#FFC600"/>
</g>
<g id="Fill 24">
<use xlink:href="#path13_fill" transform="translate(830 1263)" fill="#FFC600"/>
</g>
<g id="Fill 26">
<use xlink:href="#path14_fill" transform="translate(831 1262)" fill="#FFC600"/>
</g>
<g id="Fill 28">
<use xlink:href="#path15_fill" transform="translate(831 1263)" fill="#FFC600"/>
</g>
<g id="Fill 30">
<use xlink:href="#path16_fill" transform="translate(832 1262)" fill="#FFC600"/>
</g>
<g id="Fill 32">
<use xlink:href="#path17_fill" transform="translate(830 1262)" fill="#FFC600"/>
</g>
<g id="Fill 34">
<use xlink:href="#path18_fill" transform="translate(832 1263)" fill="#FFC600"/>
</g>
</g>
</g>
</g>
</g>
<defs>
<path id="path0_fill" fill-rule="evenodd" d="M 12 24C 18.6274 24 24 18.6274 24 12C 24 5.37258 18.6274 0 12 0C 5.37258 0 0 5.37258 0 12C 0 18.6274 5.37258 24 12 24Z"/>
<path id="path1_fill" fill-rule="evenodd" d="M 0 33L 49 33L 49 0L 0 0L 0 33Z"/>
<path id="path2_fill" fill-rule="evenodd" d="M 9 14C 6.2386 14 4 11.7614 4 8.99987C 4 6.23845 6.2386 4 9 4C 11.7612 4 14 6.23845 14 8.99987C 14 11.7614 11.7612 14 9 14ZM 15.2159 9.76944C 14.8713 9.71137 14.7205 9.53709 14.3797 9.25241C 14.0388 8.96834 13.6502 8.97337 13.6502 8.97337L 13.65 8.97354L 13.65 8.97337L 13.6502 8.97337C 13.6502 8.97337 13.8628 8.77218 14.2136 8.77218C 14.565 8.77218 14.7089 9.06988 15.2435 9.06988C 15.7778 9.07006 16 8.45817 16 8.45817C 16 8.45817 15.6628 8.55416 15.3141 8.55442C 14.9651 8.55433 14.7905 8.40722 14.4121 8.1826C 14.0334 7.95876 13.6504 8.02828 13.6504 8.02828L 13.6502 8.02845L 13.6502 8.02819L 13.6504 8.02828C 13.6504 8.02828 13.8306 7.7942 14.1772 7.73587C 14.5242 7.67764 14.7102 7.94774 15.2384 7.85877C 15.7661 7.77024 15.8954 7.12884 15.8954 7.12884C 15.8954 7.12884 15.5765 7.27969 15.232 7.33793C 14.8874 7.3959 14.6933 7.2796 14.2864 7.12068C 13.8801 6.96272 13.5128 7.0943 13.5115 7.09473L 13.5115 7.09447C 13.5125 7.09282 13.6561 6.83331 13.9887 6.71848C 14.3228 6.6034 14.5463 6.83904 15.0547 6.66346C 15.5631 6.48831 15.5962 5.83337 15.5962 5.83337C 15.5962 5.83337 15.3036 6.03534 14.9718 6.15016C 14.6401 6.26464 14.4311 6.1821 14.0059 6.09279C 13.581 6.00418 13.2375 6.19556 13.2369 6.1959L 13.2366 6.19582C 13.2372 6.19486 13.3406 5.91391 13.6526 5.74493C 13.9657 5.57568 14.2213 5.7714 14.6975 5.51336C 15.1737 5.25593 15.1101 4.60351 15.1101 4.60351C 15.1101 4.60351 14.8507 4.85165 14.54 5.0202C 14.229 5.18832 14.0108 5.14154 13.5774 5.12418C 13.1455 5.10717 12.8346 5.35271 12.8331 5.35384L 12.8331 5.35366L 12.8331 5.35357C 12.8335 5.35114 12.8945 5.05761 13.1774 4.83924C 13.4617 4.62 13.7429 4.77085 14.1752 4.43695C 14.6077 4.10341 14.4488 3.46964 14.4488 3.46964C 14.4488 3.46964 14.2292 3.75788 13.947 3.97591C 13.6647 4.19376 13.4423 4.18378 13.0117 4.23854C 12.5815 4.29374 12.3101 4.58936 12.3101 4.58936C 12.3101 4.58936 12.3265 4.28741 12.5747 4.02373C 12.823 3.75997 13.1231 3.86212 13.5009 3.46053C 13.879 3.0592 13.6287 2.45963 13.6287 2.45963C 13.6287 2.45963 13.4544 2.78085 13.2077 3.04314C 12.961 3.30517 12.7397 3.33225 12.3226 3.45801C 11.9059 3.58395 11.6814 3.92105 11.6814 3.92105L 11.6814 3.92114L 11.6814 3.92105C 11.6814 3.92105 11.653 3.62014 11.8593 3.31836C 12.0659 3.01658 12.377 3.06762 12.691 2.60822C 13.0056 2.14882 12.67 1.5983 12.67 1.5983C 12.67 1.5983 12.5451 1.9446 12.3402 2.24464C 12.1351 2.54451 11.9205 2.60805 11.5269 2.8016C 11.1342 2.99514 10.962 3.36497 10.9617 3.3654C 10.9616 3.36488 10.8897 3.07274 11.0488 2.74067C 11.2084 2.40834 11.5233 2.40695 11.7658 1.90094C 12.0088 1.39503 11.5963 0.907075 11.5963 0.907075C 11.5963 0.907075 11.524 1.26978 11.3657 1.60021C 11.2072 1.93045 11.0048 2.02888 10.6445 2.28544C 10.2853 2.54174 10.1698 2.935 10.1693 2.93621L 10.1691 2.93613C 10.1686 2.93465 10.0552 2.65865 10.1632 2.30488C 10.272 1.94998 10.5829 1.89634 10.7478 1.35623C 10.9132 0.816203 10.4339 0.402807 10.4339 0.402807C 10.4339 0.402807 10.4161 0.773067 10.3083 1.12571C 10.2005 1.47826 10.0149 1.60906 9.69696 1.92229C 9.37969 2.23527 9.32357 2.6432 9.32341 2.64407L 9.32325 2.64407C 9.32259 2.64311 9.16984 2.38915 9.22449 2.0215C 9.27954 1.65298 9.57868 1.5483 9.66216 0.987359C 9.74597 0.426588 9.21174 0.0979027 9.21174 0.0979027C 9.21174 0.0979027 9.24866 0.4666 9.19418 0.832867C 9.13953 1.19896 8.97542 1.35901 8.70765 1.72128C 8.43997 2.08347 8.44487 2.49634 8.44487 2.49634C 8.44487 2.49634 8.25552 2.27077 8.25552 1.89773C 8.25552 1.52461 8.53562 1.37151 8.53562 0.803618C 8.53562 0.23573 7.95973 0 7.95973 0C 7.95973 0 8.05056 0.358022 8.05056 0.728715C 8.05056 1.09941 7.91194 1.2848 7.70086 1.68709C 7.49452 2.08043 7.55236 2.47551 7.55505 2.49305C 7.53798 2.47777 7.33548 2.28917 7.28303 1.93627C 7.22814 1.56766 7.48251 1.36994 7.39862 0.809259C 7.31587 0.248315 6.71245 0.110574 6.71245 0.110574C 6.71245 0.110574 6.85426 0.448981 6.90891 0.815682C 6.96299 1.18125 6.85393 1.388 6.70371 1.82031C 6.55488 2.25246 6.67961 2.64355 6.67961 2.64355L 6.67986 2.64363L 6.67953 2.64372L 6.67961 2.64355C 6.67961 2.64355 6.43365 2.49088 6.32542 2.13633C 6.21694 1.78134 6.43905 1.54379 6.27363 1.00385C 6.10928 0.463649 5.49303 0.427977 5.49303 0.427977C 5.49303 0.427977 5.68295 0.73861 5.79094 1.0916C 5.8982 1.44372 5.82084 1.66599 5.73613 2.11801C 5.65273 2.5696 5.83358 2.93508 5.83358 2.93508L 5.83399 2.93526L 5.83358 2.93543L 5.83358 2.93508C 5.83358 2.93508 5.56818 2.8252 5.40906 2.49296C 5.24969 2.16054 5.43405 1.88897 5.1912 1.38314C 4.94932 0.876871 4.33537 0.944049 4.33537 0.944049C 4.33537 0.944049 4.56866 1.21936 4.7273 1.55004C 4.88512 1.88003 4.84142 2.11237 4.82434 2.57298C 4.8085 3.03281 5.04089 3.36376 5.04089 3.36376L 5.04163 3.36393L 5.04098 3.36428L 5.04089 3.36376C 5.04089 3.36376 4.76259 3.29935 4.55649 2.99757C 4.35007 2.69571 4.4922 2.39688 4.17787 1.93766C 3.86444 1.47783 3.26796 1.64629 3.26796 1.64629C 3.26796 1.64629 3.539 1.87933 3.74428 2.17955C 3.94874 2.47925 3.93984 2.71602 3.99065 3.17376C 4.04284 3.63064 4.32107 3.91888 4.32107 3.91888L 4.32123 3.91888L 4.32107 3.91897L 4.32107 3.91888C 4.32107 3.91888 4.03664 3.90144 3.78872 3.63776C 3.54039 3.37391 3.63678 3.05512 3.25873 2.65379C 2.88142 2.25167 2.31705 2.51726 2.31705 2.51726C 2.31705 2.51726 2.61904 2.70239 2.86606 2.96485C 3.11219 3.2268 3.13816 3.46227 3.25579 3.90578C 3.37456 4.34834 3.69192 4.58684 3.69192 4.58684L 3.69208 4.58684L 3.692 4.58693L 3.69192 4.58684C 3.69192 4.58684 3.40838 4.61687 3.12468 4.39755C 2.8405 4.17831 2.88885 3.84737 2.45632 3.51391C 2.02444 3.17949 1.50614 3.53561 1.50614 3.53561C 1.50614 3.53561 1.83166 3.66823 2.1143 3.88634C 2.39596 4.10427 2.45632 4.33237 2.63775 4.75097C 2.82032 5.16827 3.16871 5.35114 3.16871 5.35114L 3.16937 5.35088L 3.16896 5.35158L 3.16871 5.35114C 3.16871 5.35114 2.89318 5.42804 2.58065 5.25854C 2.26779 5.08912 2.26673 4.75427 1.79049 4.49675C 1.31459 4.23828 0.855098 4.67615 0.855098 4.67615C 0.855098 4.67615 1.19614 4.75305 1.50745 4.92152C 1.81778 5.0899 1.91098 5.30514 2.15179 5.68851C 2.39351 6.07031 2.76461 6.19304 2.76461 6.19304L 2.76494 6.19286L 2.76477 6.19312L 2.76461 6.19304C 2.76461 6.19304 2.50378 6.31472 2.17009 6.1992C 1.83607 6.08394 1.78576 5.75343 1.27758 5.5782C 0.769408 5.40201 0.380007 5.91087 0.380007 5.91087C 0.380007 5.91087 0.72832 5.93014 1.06046 6.0448C 1.39178 6.15954 1.51562 6.35664 1.80985 6.69514C 2.10482 7.03215 2.48932 7.09169 2.48932 7.09169L 2.48957 7.09152L 2.48949 7.09169L 2.48932 7.09169C 2.48932 7.09169 2.24966 7.25521 1.90314 7.19663C 1.5563 7.13822 1.45786 6.82021 0.930086 6.73159C 0.402308 6.64202 0.0926329 7.20939 0.0926329 7.20939C 0.0926329 7.20939 0.439393 7.17042 0.784439 7.22857C 1.1285 7.28681 1.27979 7.46091 1.62034 7.74629C 1.9613 8.03019 2.3498 8.02498 2.3498 8.02498L 2.35005 8.02481L 2.34997 8.02516L 2.3498 8.02498C 2.3498 8.02498 2.13725 8.22643 1.78625 8.22617C 1.43516 8.22608 1.29114 7.92829 0.756828 7.92855C 0.22227 7.92777 0 8.53966 0 8.53966C 0 8.53966 0.336795 8.44358 0.686088 8.44358C 1.03456 8.44393 1.20962 8.59079 1.58799 8.81601C 1.96653 9.03968 2.34948 8.97007 2.34948 8.97007L 2.34964 8.9699L 2.34964 8.97007L 2.34948 8.97007C 2.34948 8.97007 2.16911 9.20433 1.82243 9.26239C 1.47559 9.32072 1.28959 9.05044 0.761811 9.13967C 0.233788 9.22767 0.104396 9.86899 0.104396 9.86899C 0.104396 9.86899 0.422893 9.71814 0.767856 9.65999C 1.11208 9.60245 1.30658 9.71849 1.71346 9.87801C 2.12026 10.036 2.48826 9.90345 2.48826 9.90345C 2.48826 9.90345 2.34466 10.1648 2.0108 10.2799C 1.6767 10.3951 1.45321 10.1592 0.945198 10.3349C 0.436616 10.5097 0.403206 11.1646 0.403206 11.1646C 0.403206 11.1646 0.695563 10.9627 1.0277 10.8478C 1.35927 10.7337 1.56847 10.8161 1.99373 10.9059C 2.41883 10.9943 2.76281 10.8024 2.76281 10.8024C 2.76281 10.8024 2.65948 11.0844 2.3467 11.2536C 2.03368 11.4228 1.77816 11.227 1.30217 11.4849C 0.825609 11.7422 0.889161 12.3946 0.889161 12.3946C 0.889161 12.3946 1.14811 12.1464 1.45925 11.9779C 1.76991 11.81 1.98875 11.8566 2.42201 11.8747C 2.85479 11.8914 3.16626 11.6446 3.16626 11.6446L 3.16635 11.6443L 3.16651 11.6446L 3.16626 11.6446C 3.16626 11.6446 3.10573 11.9402 2.82179 12.1595C 2.53752 12.3786 2.25635 12.2278 1.82415 12.5615C 1.39137 12.8949 1.55017 13.5286 1.55017 13.5286C 1.55017 13.5286 1.76942 13.2405 2.05197 13.0223C 2.33404 12.8049 2.55696 12.8146 2.98761 12.7603C 3.41753 12.7048 3.6889 12.4093 3.6889 12.4093L 3.6889 12.4092L 3.68906 12.4093L 3.6889 12.4093C 3.6889 12.4093 3.67256 12.7114 3.42439 12.9751C 3.1759 13.2389 2.87595 13.1365 2.49831 13.5382C 2.11994 13.9393 2.37006 14.5389 2.37006 14.5389C 2.37006 14.5389 2.54414 14.2178 2.79108 13.9554C 3.03769 13.6937 3.2593 13.6661 3.67664 13.5409C 4.09308 13.4147 4.31756 13.0778 4.31756 13.0778L 4.31756 13.0775L 4.3178 13.0776L 4.31756 13.0778C 4.31756 13.0778 4.3459 13.3788 4.13964 13.6805C 3.93306 13.9825 3.62175 13.9313 3.30791 14.3907C 2.99325 14.8496 3.32849 15.4003 3.32849 15.4003C 3.32849 15.4003 3.45323 15.0542 3.65851 14.7541C 3.86354 14.4546 4.07846 14.3907 4.47211 14.1974C 4.86445 14.0038 5.03657 13.6344 5.03689 13.6337L 5.03706 13.6337C 5.0373 13.6349 5.10894 13.9267 4.94998 14.2585C 4.79036 14.5909 4.47546 14.5921 4.23301 15.0981C 3.98983 15.6038 4.4021 16.0919 4.4021 16.0919C 4.4021 16.0919 4.47431 15.7293 4.63279 15.3988C 4.79126 15.0688 4.99409 14.97 5.35441 14.7136C 5.71375 14.4569 5.82925 14.063 5.82934 14.0628C 5.82942 14.063 5.94386 14.34 5.83546 14.6946C 5.72674 15.0494 5.41584 15.103 5.25083 15.6431C 5.08509 16.1829 5.56418 16.5965 5.56418 16.5965C 5.56418 16.5965 5.58223 16.2262 5.69014 15.8736C 5.79797 15.5212 5.98372 15.3899 6.30189 15.0769C 6.61917 14.7635 6.6752 14.3552 6.6752 14.3552C 6.6752 14.3552 6.82902 14.6096 6.77421 14.9781C 6.71907 15.3466 6.41985 15.4511 6.33645 16.0121C 6.25223 16.5729 6.78638 16.9017 6.78638 16.9017C 6.78638 16.9017 6.74962 16.533 6.80427 16.1669C 6.859 15.8008 7.02311 15.6403 7.2912 15.2783C 7.5584 14.9158 7.55366 14.5034 7.55366 14.5034L 7.55342 14.503L 7.55383 14.503L 7.55366 14.5034C 7.55366 14.5034 7.74301 14.7291 7.74309 15.1021C 7.74301 15.4753 7.46283 15.6281 7.46307 16.196C 7.4625 16.7639 8.03831 17 8.03831 17C 8.03831 17 7.94788 16.6419 7.94797 16.2712C 7.94805 15.9004 8.08651 15.7148 8.29799 15.3127C 8.5085 14.9103 8.44307 14.5037 8.44307 14.5037L 8.44274 14.5034L 8.44323 14.5034L 8.44307 14.5037C 8.44307 14.5037 8.66346 14.6951 8.71835 15.0635C 8.77325 15.4321 8.51896 15.6298 8.60285 16.1906C 8.68592 16.7515 9.28951 16.889 9.28951 16.889C 9.28951 16.889 9.14729 16.5503 9.09272 16.1841C 9.03824 15.8179 9.14778 15.6116 9.29743 15.1793C 9.44602 14.7471 9.32194 14.357 9.32161 14.3563L 9.32177 14.3563C 9.32259 14.3568 9.56757 14.5092 9.67589 14.8632C 9.78445 15.2183 9.56226 15.4557 9.72784 15.9956C 9.89244 16.5358 10.5087 16.5714 10.5087 16.5714C 10.5087 16.5714 10.3186 16.2604 10.2107 15.9079C 10.103 15.5552 10.1809 15.3332 10.2649 14.8814C 10.348 14.4303 10.1685 14.0659 10.1678 14.0645L 10.168 14.0645C 10.1699 14.0652 10.4335 14.1752 10.5923 14.5063C 10.7517 14.8389 10.5673 15.1103 10.8102 15.6163C 11.0524 16.1223 11.6663 16.0549 11.6663 16.0549C 11.6663 16.0549 11.4328 15.7794 11.2743 15.4493C 11.116 15.1187 11.1601 14.8866 11.1767 14.4263C 11.1924 13.9677 10.9621 13.6381 10.9607 13.6357L 10.961 13.6356C 10.9647 13.6365 11.2398 13.7019 11.4447 14.0015C 11.6512 14.3034 11.509 14.6022 11.8233 15.0615C 12.1372 15.521 12.7337 15.3525 12.7337 15.3525C 12.7337 15.3525 12.4624 15.1191 12.2573 14.8194C 12.0522 14.5193 12.0616 14.2826 12.0102 13.8254C 11.958 13.3682 11.68 13.0802 11.68 13.0802L 11.6793 13.0802L 11.6798 13.0796L 11.68 13.0802C 11.68 13.0802 11.9642 13.0973 12.2124 13.3611C 12.4606 13.625 12.3643 13.9438 12.7423 14.3452C 13.12 14.7469 13.6843 14.4813 13.6843 14.4813C 13.6843 14.4813 13.382 14.2958 13.1353 14.0339C 12.8885 13.7716 12.8631 13.5363 12.7449 13.0932C 12.6261 12.6504 12.3091 12.4121 12.3091 12.4121L 12.3087 12.4121L 12.309 12.4118L 12.3091 12.4121C 12.3091 12.4121 12.5923 12.3817 12.8763 12.6011C 13.1602 12.8205 13.1122 13.1512 13.5446 13.485C 13.9768 13.8189 14.4951 13.4627 14.4951 13.4627C 14.4951 13.4627 14.1692 13.3298 13.8868 13.1121C 13.6045 12.8942 13.5447 12.666 13.3628 12.2479C 13.1808 11.8315 12.8346 11.6488 12.8324 11.6477L 12.8328 11.6474C 12.836 11.6465 13.1093 11.5716 13.4201 11.74C 13.7329 11.9096 13.7341 12.2443 14.2103 12.5019C 14.6864 12.76 15.1458 12.3219 15.1458 12.3219C 15.1458 12.3219 14.8043 12.2448 14.4935 12.0767C 14.1825 11.9084 14.0898 11.693 13.8486 11.3103C 13.6076 10.9293 13.2382 10.8062 13.2363 10.8057L 13.2365 10.8053C 13.2392 10.8039 13.4984 10.6845 13.8304 10.7992C 14.1644 10.9146 14.2147 11.2449 14.7231 11.4204C 15.2313 11.596 15.6206 11.0871 15.6206 11.0871C 15.6206 11.0871 15.2719 11.0675 14.9401 10.9532C 14.6084 10.8386 14.485 10.6414 14.1904 10.3036C 13.896 9.96715 13.5128 9.90709 13.5113 9.90683L 13.5113 9.90666C 13.5133 9.90518 13.7519 9.7434 14.097 9.80172C 14.444 9.86005 14.5424 10.1781 15.0704 10.2669C 15.5982 10.3558 15.9076 9.78844 15.9076 9.78844C 15.9076 9.78844 15.5604 9.82724 15.2159 9.76944Z"/>
<path id="path3_fill" fill-rule="evenodd" d="M 3 0.888397C 2.27016 0.458959 1.4091 0.137489 0.396046 0C 0.142161 0.561421 0 1.18215 0 1.83602C 0 2.61987 0.202667 3.35697 0.559264 4C 0.99154 3.19448 1.78143 1.95689 3 0.888397Z"/>
<path id="path4_fill" fill-rule="evenodd" d="M 3 0.394237C 2.827 0.255984 2.64425 0.124419 2.45238 0C 1.29977 1.03227 0.535788 2.23349 0.102623 3.04908C 0.065946 3.11817 0.0318889 3.18422 0 3.24717C 0.162516 3.51808 0.352675 3.76976 0.565148 4C 0.884851 3.19833 1.61983 1.68506 3 0.394237Z"/>
<path id="path5_fill" fill-rule="evenodd" d="M 2.40412 0C 1.26788 0.983139 0.579929 2.11462 0.204985 2.88122C 0.120406 3.05462 0.0537417 3.20599 0 3.33499C 0.280384 3.59374 0.596595 3.81768 0.94097 4C 1.14943 3.34541 1.73578 1.82265 3 0.524408C 2.81551 0.342934 2.6173 0.167346 2.40412 0Z"/>
<path id="path6_fill" fill-rule="evenodd" d="M 0.515337 2C 1.21061 1.33977 2.03242 0.840234 3 0.62029C 2.93186 0.406737 2.85644 0.19984 2.77435 0C 1.69873 0.213553 0.77994 0.70896 0 1.36706C 0.179598 1.57116 0.351833 1.78219 0.515337 2Z"/>
<path id="path7_fill" fill-rule="evenodd" d="M 2.69225 0.851669C 2.48892 0.564176 2.2586 0.276942 1.99987 0C 1.0709 0.995416 0.519219 2.12334 0.218944 2.89725C 0.11847 3.15698 0.0478994 3.37251 0 3.5314C 0.600904 3.83031 1.28014 4 2.00022 4C 2.72012 4 3.39918 3.83057 4 3.5314C 3.95219 3.3726 3.88188 3.15698 3.78132 2.89708C 3.56591 2.34051 3.21817 1.59661 2.69225 0.851669Z"/>
<path id="path8_fill" fill-rule="evenodd" d="M 0.61836 1C 1.5675 0.623959 2.68684 0.336669 4 0.207816C 3.92962 0.136742 3.85646 0.0671293 3.77962 0C 2.32016 0.0393718 1.06487 0.31534 0 0.720234C 0.213404 0.809423 0.420756 0.902045 0.61836 1Z"/>
<path id="path9_fill" fill-rule="evenodd" d="M 6 1.82461C 5.25976 0.704017 4.18996 0 3.00004 0C 1.81004 0 0.740235 0.704017 0 1.82461C 1.16098 1.91487 2.15653 2.36271 2.99972 3C 3.84314 2.3626 4.83878 1.91475 6 1.82461Z"/>
<path id="path10_fill" fill-rule="evenodd" d="M 4 0.720172C 2.93554 0.315555 1.68073 0.0398188 0.220301 0C 0.143345 0.067144 0.0701844 0.136699 0 0.207715C 1.31309 0.33667 2.43244 0.62395 3.38158 1C 3.5793 0.902097 3.78657 0.809381 4 0.720172Z"/>
<path id="path11_fill" fill-rule="evenodd" d="M 3 1.36658C 2.2207 0.708389 1.30188 0.213715 0.22564 0C 0.143721 0.199734 0.0682227 0.406525 0 0.620107C 0.967615 0.84008 1.78911 1.33968 2.48435 2C 2.64802 1.78202 2.82033 1.57071 3 1.36658Z"/>
<path id="path12_fill" fill-rule="evenodd" d="M 0.496737 0C 0.323451 0.169635 0.157738 0.346196 0 0.528254C 0.168855 0.67799 0.331105 0.834543 0.483767 1C 0.645855 0.804639 0.818497 0.615435 1 0.432498C 0.840168 0.281442 0.671715 0.137643 0.496737 0Z"/>
<path id="path13_fill" fill-rule="evenodd" d="M 0 0.460693C 0.178531 0.63331 0.345109 0.813753 0.500343 1C 0.655348 0.814017 0.821698 0.63375 1 0.461308C 0.843243 0.302146 0.6756 0.148259 0.499124 0C 0.323182 0.147995 0.156604 0.30197 0 0.460693Z"/>
<path id="path14_fill" fill-rule="evenodd" d="M 0 0.431946C 0.181657 0.615072 0.354537 0.80457 0.516708 1C 0.669297 0.83478 0.831387 0.678458 1 0.528837C 0.841855 0.346259 0.674531 0.170164 0.500684 0C 0.326274 0.137098 0.159433 0.281556 0 0.431946Z"/>
<path id="path15_fill" fill-rule="evenodd" d="M 1.5065 0.915444C 1.24116 0.605727 0.93662 0.29643 0.59403 0C 0.381438 0.166926 0.183992 0.342345 0 0.523231C 1.26433 1.82164 1.85088 3.34525 2.05919 4C 2.40365 3.81752 2.7196 3.59374 3 3.3349C 2.94636 3.2059 2.87963 3.05453 2.79489 2.88097C 2.53445 2.34638 2.11996 1.63217 1.5065 0.915444Z"/>
<path id="path16_fill" fill-rule="evenodd" d="M 2.60381 0C 1.59146 0.137193 0.729961 0.458695 0 0.888418C 1.21872 1.9569 2.00833 3.19453 2.44074 4C 2.79722 3.35709 3 2.61994 3 1.83632C 3 1.18239 2.85789 0.5615 2.60381 0Z"/>
<path id="path17_fill" fill-rule="evenodd" d="M 1 0.494131C 0.839597 0.320908 0.671954 0.156456 0.498373 0C 0.325687 0.15594 0.159671 0.321166 0 0.493615C 0.173174 0.655746 0.34163 0.823036 0.500325 1C 0.658777 0.823165 0.826989 0.656004 1 0.494131Z"/>
<path id="path18_fill" fill-rule="evenodd" d="M 1.48871 0.96746C 1.20916 0.639264 0.89375 0.312258 0.544921 0C 0.353616 0.124116 0.172427 0.256475 0 0.394513C 1.38023 1.68531 2.11528 3.19852 2.43485 4C 2.64738 3.76991 2.83742 3.51829 3 3.24743C 2.96812 3.18423 2.93397 3.11818 2.89721 3.04903C 2.59598 2.48149 2.1329 1.72388 1.48871 0.96746Z"/>
</defs>
</svg>
