<svg width="117" height="142" viewBox="0 0 117 142" version="1.1" xmlns="http://www.w3.org/2000/svg" xmlns:xlink="http://www.w3.org/1999/xlink">
<title>Unlock Chest</title>
<desc>Created using Figma</desc>
<g id="Canvas" transform="translate(-6183 -552)">
<g id="Unlock Chest">
<g id="Fill 1">
<use xlink:href="#path0_fill" transform="translate(6276.3 683.68)" fill="#FFB928"/>
</g>
<g id="Fill 3">
<use xlink:href="#path1_fill" transform="translate(6188.77 683.68)" fill="#FFB928"/>
</g>
<g id="Fill 5">
<use xlink:href="#path2_fill" transform="translate(6224.45 577.914)" fill="#F7B43D"/>
</g>
<g id="Fill 7">
<use xlink:href="#path3_fill" transform="translate(6276.3 683.68)" fill="#000000" fill-opacity="0.91" style="mix-blend-mode:soft-light"/>
</g>
<g id="Fill 9">
<use xlink:href="#path4_fill" transform="translate(6188.77 683.68)" fill="#000000" fill-opacity="0.91" style="mix-blend-mode:soft-light"/>
</g>
<g id="Group 13">
<g id="Fill 11">
<use xlink:href="#path5_fill" transform="translate(6224.45 577.914)" fill="#000000" fill-opacity="0.91" style="mix-blend-mode:soft-light"/>
</g>
</g>
<g id="Fill 14">
<use xlink:href="#path6_fill" transform="translate(6190.26 584.892)" fill="#FFDD4E"/>
</g>
<g id="Fill 1 Copy 3">
<use xlink:href="#path7_fill" transform="translate(6189.48 552.123)" fill="#FFFFFF"/>
</g>
<g id="Fill 1 Copy 5">
<use xlink:href="#path8_fill" transform="translate(6211.17 591.444)" fill="#FFFFFF"/>
</g>
<g id="Fill 16">
<use xlink:href="#path9_fill" transform="translate(6190.26 584.892)" fill="#000000" fill-opacity="0.91" style="mix-blend-mode:soft-light"/>
</g>
<g id="Fill 18">
<use xlink:href="#path10_fill" transform="translate(6183.52 604.678)" fill="#D69EF0"/>
</g>
<g id="Fill 20">
<use xlink:href="#path11_fill" transform="translate(6183.53 604.679)" fill="#BC81E2"/>
</g>
<g id="Fill 22">
<use xlink:href="#path12_fill" transform="translate(6191.65 612.87)" fill="#EFC7FF"/>
</g>
<g id="Fill 24">
<use xlink:href="#path13_fill" transform="translate(6183.52 617.065)" fill="#000000" fill-opacity="0.91" style="mix-blend-mode:soft-light"/>
</g>
<g id="Fill 26">
<use xlink:href="#path14_fill" transform="translate(6228.45 602.039)" fill="#C91D00"/>
</g>
<g id="Fill 28">
<use xlink:href="#path15_fill" transform="translate(6242.88 602.221)" fill="#FF463C"/>
</g>
<g id="Fill 30">
<use xlink:href="#path16_fill" transform="translate(6228.45 610.121)" fill="#FF463C"/>
</g>
<g id="Fill 32">
<use xlink:href="#path17_fill" transform="translate(6237.08 610.751)" fill="#FF776F"/>
</g>
<g id="Group 36">
<g id="Fill 34">
<use xlink:href="#path18_fill" transform="translate(6253.82 605.581)" fill="#F2F2F2"/>
</g>
</g>
<g id="Fill 37">
<use xlink:href="#path19_fill" transform="translate(6253.82 605.837)" fill="#E9E9E9"/>
</g>
<g id="Fill 39">
<use xlink:href="#path20_fill" transform="translate(6282.29 605.838)" fill="#E9E9E9"/>
</g>
<g id="Fill 41">
<use xlink:href="#path21_fill" transform="translate(6253.82 605.581)" fill="#000000" fill-opacity="0.91" style="mix-blend-mode:soft-light"/>
</g>
<g id="Fill 43">
<use xlink:href="#path22_fill" transform="translate(6285.65 619.336)" fill="#53E7D3"/>
</g>
<g id="Fill 45">
<use xlink:href="#path23_fill" transform="translate(6267.78 619.336)" fill="#53E7D3"/>
</g>
<g id="Fill 47">
<use xlink:href="#path24_fill" transform="translate(6267.84 619.509)" fill="#E9E9E9"/>
</g>
<g id="Fill 49">
<use xlink:href="#path25_fill" transform="translate(6267.78 605.581)" fill="#FFFFFF"/>
</g>
<g id="Fill 51">
<use xlink:href="#path26_fill" transform="translate(6211.47 625.667)" fill="#FFFFFF"/>
</g>
<g id="Fill 53">
<use xlink:href="#path27_fill" transform="translate(6237.72 620.157)" fill="#FFFFFF"/>
</g>
<g id="Fill 55">
<use xlink:href="#path26_fill" transform="translate(6224.06 620.321)" fill="#FFFFFF"/>
</g>
<g id="Fill 57">
<use xlink:href="#path28_fill" transform="translate(6250.43 625.2)" fill="#FFFFFF"/>
</g>
<g id="Fill 59">
<use xlink:href="#path29_fill" transform="translate(6183.05 632.351)" fill="#FFB928"/>
</g>
<g id="Fill 61">
<use xlink:href="#path30_fill" transform="translate(6183.05 632.351)" fill="#000000" fill-opacity="0.91" style="mix-blend-mode:soft-light"/>
</g>
<g id="Fill 63">
<use xlink:href="#path31_fill" transform="translate(6191.61 641.042)" fill="#FFE118"/>
</g>
<g id="Fill 65">
<use xlink:href="#path32_fill" transform="translate(6191.61 641.042)" fill="#000000" fill-opacity="0.91" style="mix-blend-mode:soft-light"/>
</g>
<g id="Fill 67">
<use xlink:href="#path33_fill" transform="translate(6226.74 632.351)" fill="#F7B43D"/>
</g>
<g id="Fill 69">
<use xlink:href="#path34_fill" transform="translate(6234.58 638.19)" fill="#5A482E"/>
</g>
<g id="Fill 71">
<use xlink:href="#path35_fill" transform="translate(6226.74 632.351)" fill="#000000" fill-opacity="0.91" style="mix-blend-mode:soft-light"/>
</g>
</g>
</g>
<defs>
<path id="path0_fill" fill-rule="evenodd" d="M 0 0L 0 8.72406C 0 9.53941 0.661746 10.2068 1.47052 10.2068L 11.6318 10.2068C 12.4401 10.2068 13.1018 9.53969 13.1018 8.72406L 13.1018 0L 0 0Z"/>
<path id="path1_fill" fill-rule="evenodd" d="M 0 8.72406C 0 9.53941 0.661473 10.2068 1.47024 10.2068L 11.6321 10.2068C 12.4406 10.2068 13.1024 9.53969 13.1024 8.72406L 13.1024 0L 0 0L 0 8.72406Z"/>
<path id="path2_fill" fill-rule="evenodd" d="M 27.7991 0L 1.47052 0C 0.662019 0 0 0.667082 0 1.48271L 0 8.45145C 0 9.26653 0.661473 9.93416 1.47052 9.93416L 27.7988 9.93416C 28.6073 9.93416 29.2693 9.26708 29.2693 8.45145L 29.2693 1.48271C 29.2693 0.667082 28.6073 0 27.7991 0"/>
<path id="path3_fill" fill-rule="evenodd" d="M 6.16057 8.72406L 6.16057 0L 0 0L 0 8.72406C 0 9.53941 0.661746 10.2068 1.47052 10.2068L 7.63081 10.2068C 6.82204 10.2065 6.16057 9.53941 6.16057 8.72406"/>
<path id="path4_fill" fill-rule="evenodd" d="M 6.07219 8.72406L 6.07219 0L 0 0L 0 8.72406C 0 9.53941 0.661473 10.2068 1.47024 10.2068L 7.54298 10.2068C 6.73421 10.2065 6.07219 9.53941 6.07219 8.72406"/>
<path id="path5_fill" fill-rule="evenodd" d="M 6.1011 1.48271C 6.1011 0.667357 6.76258 0 7.57135 0L 1.47024 0C 0.662019 0 0 0.667082 0 1.48271L 0 8.45145C 0 9.26653 0.661473 9.93416 1.47024 9.93416L 7.57107 9.93416C 6.76258 9.93388 6.1011 9.26653 6.1011 8.45117L 6.1011 1.48271Z"/>
<path id="path6_fill" fill-rule="evenodd" d="M 97.6558 48.9058C 97.6558 49.7211 96.9944 50.3885 96.1859 50.3885L 1.47024 50.3885C 0.661746 50.3885 0 49.7214 0 48.9058L 0 1.48271C 0 0.667357 0.661473 0 1.47024 0L 96.1856 0C 96.9938 0 97.6556 0.667082 97.6556 1.48271L 97.6556 48.9061L 97.6558 48.9061L 97.6558 48.9058Z"/>
<path id="path7_fill" fill-rule="evenodd" d="M 17.2762 10.0805C 19.6484 12.4707 23.5616 13.2132 27.2809 13.7438C 23.5616 14.2743 19.5415 14.9091 17.1693 17.2993C 14.7971 19.6895 14.167 23.74 13.6405 27.4878C 13.1139 23.74 12.4839 19.474 10.1117 17.0838C 7.73944 14.6936 3.71937 14.2743 0 13.7438C 3.71937 13.2132 7.73944 12.5784 10.1117 10.1882C 12.4839 7.79805 13.1139 3.74775 13.6405 0C 14.167 3.74775 14.904 7.69031 17.2762 10.0805Z"/>
<path id="path8_fill" fill-rule="evenodd" d="M 14.6666 8.55783C 16.6805 10.587 20.0026 11.2174 23.1601 11.6678C 20.0026 12.1182 16.5897 12.6571 14.5759 14.6862C 12.562 16.7154 12.0271 20.1541 11.5801 23.3357C 11.1331 20.1541 10.5982 16.5324 8.58428 14.5033C 6.57039 12.4742 3.15756 12.1182 0 11.6678C 3.15756 11.2174 6.57039 10.6784 8.58428 8.6493C 10.5982 6.62015 11.1331 3.18165 11.5801 0C 12.0271 3.18165 12.6527 6.52868 14.6666 8.55783Z"/>
<path id="path9_fill" fill-rule="evenodd" d="M 9.24808 48.9058L 9.24808 1.48271C 9.24808 0.667357 9.90955 0 10.7183 0L 1.47024 0C 0.661746 0 0 0.667082 0 1.48271L 0 48.9061C 0 49.7214 0.661473 50.3888 1.47024 50.3888L 10.7181 50.3888C 9.90955 50.3885 9.24808 49.7214 9.24808 48.9058"/>
<path id="path10_fill" fill-rule="evenodd" d="M 31.6321 31.9008C 31.2464 32.2898 30.7066 32.4829 30.1605 32.4282L 3.91078 29.783C 3.10637 29.7018 2.44381 29.1007 2.27769 28.3024L 0.0393173 17.5414C -0.0877947 16.9307 0.0976906 16.2988 0.532217 15.8603L 15.7267 0.536702C 16.1613 0.0987658 16.7875 -0.0885673 17.3939 0.0396225L 28.0642 2.29725C 28.8564 2.46478 29.4518 3.13323 29.532 3.94418L 32.1553 30.4165C 32.2098 30.9669 32.0178 31.5116 31.6321 31.9008"/>
<path id="path11_fill" fill-rule="evenodd" d="M 21.1085 10.9354L 29.0789 2.89737C 28.819 2.59836 28.4668 2.38186 28.0626 2.29659L 17.3917 0.039236C 17.0756 -0.0281599 16.7548 -0.00697832 16.4575 0.0893016L 19.1287 12.9319L 12.8228 19.2916L 0.0880994 16.5977C -0.00682548 16.8973 -0.027829 17.2211 0.0387275 17.5402L 2.2771 28.3015C 2.36193 28.7089 2.57633 29.0643 2.87283 29.3262L 10.8743 21.2568L 31.6337 31.9029L 21.1085 10.9354Z"/>
<path id="path12_fill" fill-rule="evenodd" d="M 0 0.0148546L 2.72172 13.0979L 12.9881 2.74425L 0.0152753 0L 0 0.0148546Z"/>
<path id="path13_fill" fill-rule="evenodd" d="M 7.35546 13.9221C 6.55105 13.8409 5.88848 13.2401 5.72237 12.4418L 3.484 1.68077C 3.35688 1.07036 3.54237 0.438211 3.9769 0L 0.532324 3.47405C 0.0977973 3.91199 -0.0879608 4.54386 0.039424 5.15482L 2.2778 15.9159C 2.44391 16.7142 3.10675 17.3155 3.91088 17.3964L 30.1606 20.0416C 30.7064 20.0964 7.35546 13.9221 7.35546 13.9221"/>
<path id="path14_fill" fill-rule="evenodd" d="M 7.90143 28.8065C 7.50155 28.6235 7.17149 28.2874 7.0051 27.8401L 0.109414 9.30731C -0.0507031 8.87818 -0.0343367 8.40255 0.153604 7.98497C 0.341544 7.56739 0.68551 7.24197 1.11131 7.08049L 19.4825 0.110929C 19.9255 -0.0571479 20.3941 -0.0277137 20.794 0.155218C 21.1931 0.3376 21.5229 0.673479 21.689 1.12049L 28.5855 19.6538C 28.7445 20.083 28.729 20.5586 28.5413 20.9762C 28.3534 21.3937 28.008 21.7192 27.5833 21.8806L 9.21129 28.8499C 8.7683 29.0183 8.30023 28.9891 7.90143 28.8065"/>
<path id="path15_fill" fill-rule="evenodd" d="M 14.161 19.4722L 7.26448 0.939141C 7.106 0.512484 6.79613 0.187608 6.42106 0L 0 14.2698L 14.1381 20.7398C 14.3036 20.3357 14.3132 19.8829 14.161 19.4722"/>
<path id="path16_fill" fill-rule="evenodd" d="M 0.108526 1.22578L 7.00421 19.7586C 7.15806 20.1706 7.45074 20.4873 7.80835 20.6771L 14.21 6.45075L 0.114527 0C -0.0352255 0.393647 -0.0390443 0.829107 0.108526 1.22578"/>
<path id="path17_fill" fill-rule="evenodd" d="M 3.15562 11.46C 2.95513 11.3684 2.79037 11.2004 2.70663 10.9773L 0.0539193 3.84926C -0.0251848 3.63497 -0.0170016 3.39675 0.0768322 3.18796C 0.170939 2.97917 0.343058 2.81659 0.555002 2.73599L 7.62145 0.0552833C 7.84267 -0.0283426 8.07698 -0.0140382 8.27746 0.0775652C 8.47686 0.168894 8.64162 0.336971 8.72481 0.560065L 11.3775 7.68863C 11.4566 7.90264 11.4484 8.14087 11.3549 8.34911C 11.2611 8.5579 11.0887 8.72075 10.8764 8.80217L 3.81 11.4823C 3.58905 11.5662 3.35501 11.5514 3.15562 11.46"/>
<path id="path18_fill" fill-rule="evenodd" d="M 45.5305 12.4974L 38.1485 1.04175C 37.7284 0.391446 37.0184 0 36.2568 0L 9.64811 0C 8.88707 0 8.17623 0.391446 7.75725 1.04175L 0.374117 12.4974C -0.173883 13.3477 -0.114964 14.4643 0.518686 15.2496L 12.2744 29.8096L 33.6303 29.8096L 45.3857 15.2494C 46.0199 14.464 46.0788 13.3474 45.5305 12.4974"/>
<path id="path19_fill" fill-rule="evenodd" d="M 7.75625 0.785644L 0.373119 12.2413C 0.0935267 12.6751 -0.0273115 13.1782 0.00514844 13.6717L 17.4296 13.6717L 8.61794 0C 8.27425 0.179356 7.97502 0.445913 7.75625 0.785644"/>
<path id="path20_fill" fill-rule="evenodd" d="M 9.67333 0.785369C 9.45457 0.445638 9.15561 0.179081 8.81164 0L 0 13.6717L 17.4253 13.6717C 17.4574 13.1777 17.3363 12.6746 17.0565 12.241L 9.67333 0.785369Z"/>
<path id="path21_fill" fill-rule="evenodd" d="M 12.2746 29.8099L 17.6548 29.8099L 5.8994 15.2496C 5.2652 14.4643 5.20683 13.3477 5.75483 12.4974L 13.1377 1.04175C 13.5561 0.391446 14.2675 0 15.0288 0L 9.64811 0C 8.88707 0 8.17623 0.391446 7.75698 1.04175L 0.374117 12.4974C -0.173883 13.3477 -0.114964 14.4643 0.518686 15.2496L 12.2746 29.8099Z"/>
<path id="path22_fill" fill-rule="evenodd" d="M 0.192647 0L 0 0L 0.128747 0.200066L 0.192647 0Z"/>
<path id="path23_fill" fill-rule="evenodd" d="M 0.193593 0L 0 0L 0.0643733 0.200066L 0.193593 0Z"/>
<path id="path24_fill" fill-rule="evenodd" d="M 0 0L 5.10521 15.8818L 12.7622 15.8818L 17.8674 0L 0 0Z"/>
<path id="path25_fill" fill-rule="evenodd" d="M 8.97667 0L 0 13.9278L 17.979 13.9278L 9.00258 0L 8.97667 0Z"/>
<path id="path26_fill" fill-rule="evenodd" d="M 6.91178 0C 10.729 0 13.8236 3.12084 13.8236 6.97039C 13.8236 10.8199 10.729 13.9408 6.91178 13.9408C 3.09433 13.9408 0 10.8199 0 6.97039C 0 3.12084 3.09433 0 6.91178 0"/>
<path id="path27_fill" fill-rule="evenodd" d="M 8.19373 0.122012C 4.44311 -0.591284 0.828875 1.89576 0.121303 5.67819C -0.587087 9.45978 1.87959 13.1044 5.62967 13.818C 9.38002 14.5326 12.9945 12.0456 13.7024 8.26289C 14.4102 4.48129 11.9444 0.836134 8.19373 0.122012"/>
<path id="path28_fill" fill-rule="evenodd" d="M 10.6515 1.1093C 7.44178 -0.973651 3.1658 -0.0375352 1.09927 3.19912C -0.964797 6.43577 -0.0376437 10.7488 3.17207 12.8307C 6.38206 14.9139 10.6575 13.9783 12.7235 10.7414C 14.7884 7.50476 13.8615 3.19142 10.6515 1.1093"/>
<path id="path29_fill" fill-rule="evenodd" d="M 112.075 52.7526C 112.075 53.5679 111.413 54.2353 110.604 54.2353L 1.47052 54.2353C 0.662292 54.2353 0 53.5682 0 52.7526L 0 1.48271C 0 0.667357 0.661746 0 1.47052 0L 110.604 0C 111.413 0 112.075 0.667082 112.075 1.48271L 112.075 52.7526Z"/>
<path id="path30_fill" fill-rule="evenodd" d="M 9.14797 52.7526L 9.14797 1.48271C 9.14797 0.667357 9.80945 0 10.6182 0L 1.47024 0C 0.662019 0 0 0.667082 0 1.48271L 0 52.7526C 0 53.5679 0.661473 54.2353 1.47024 54.2353L 10.6179 54.2353C 9.80972 54.235 9.14797 53.5682 9.14797 52.7526"/>
<path id="path31_fill" fill-rule="evenodd" d="M 1.47024 36.8518C 0.661746 36.8518 0 36.1847 0 35.3691L 0 1.48271C 0 0.667357 0.661473 0 1.47024 0L 93.4674 0C 94.2756 0 94.9377 0.667082 94.9377 1.48271L 94.9377 35.3694C 94.9377 36.1847 94.2759 36.8521 93.4674 36.8521L 1.47024 36.8521L 1.47024 36.8518Z"/>
<path id="path32_fill" fill-rule="evenodd" d="M 9.13733 35.3694L 9.13733 1.48244C 9.13733 0.667357 9.79881 0 10.6076 0L 1.47024 0C 0.661746 0 0 0.667082 0 1.48244L 0 35.3694C 0 36.1847 0.661473 36.8521 1.47024 36.8521L 10.6073 36.8521C 9.79881 36.8518 9.13733 36.1847 9.13733 35.3694"/>
<path id="path33_fill" fill-rule="evenodd" d="M 0 0L 0 27.7762C 0 28.5915 0.661473 29.2586 1.47024 29.2586L 23.2069 29.2586C 24.0154 29.2586 24.6772 28.5918 24.6772 27.7762L 24.6772 0L 0 0Z"/>
<path id="path34_fill" fill-rule="evenodd" d="M 9.00013 4.56477C 9.00013 2.04361 6.98598 0 4.49993 0C 2.01552 0 0 2.04361 0 4.56477C 0 6.30111 0.956068 7.8105 2.36221 8.58184L 2.36221 15.4526C 2.36221 16.6432 3.31937 17.6085 4.49993 17.6085C 5.68049 17.6085 6.63765 16.6432 6.63765 15.4526L 6.63765 8.58211C 8.04433 7.81077 9.00013 6.30111 9.00013 4.56477"/>
<path id="path35_fill" fill-rule="evenodd" d="M 0 0L 0 27.7762C 0 28.5915 0.661473 29.2586 1.47024 29.2586L 7.51488 29.2586C 6.70638 29.2586 6.04464 28.5918 6.04464 27.7762L 6.04464 0L 0 0Z"/>
</defs>
</svg>
