<svg width="255" height="50" viewBox="0 0 255 50" version="1.1" xmlns="http://www.w3.org/2000/svg" xmlns:xlink="http://www.w3.org/1999/xlink">
<title>Page 1.svg</title>
<desc>Created using Figma</desc>
<g id="Canvas" transform="translate(-4268 -609)">
<g id="Page 1">
<g id="Group 3">
<g id="Fill 1">
<use xlink:href="#path0_fill" transform="translate(4268 621)" fill="#AFAFAF"/>
</g>
</g>
<g id="Fill 4">
<use xlink:href="#path1_fill" transform="translate(4384 616)" fill="#AFAFAF"/>
</g>
<g id="Fill 6">
<use xlink:href="#path2_fill" transform="translate(4407 620)" fill="#A0A0A0"/>
</g>
<g id="Fill 8">
<use xlink:href="#path3_fill" transform="translate(4415 616)" fill="#CCCCCC"/>
</g>
<g id="Fill 10">
<use xlink:href="#path4_fill" transform="translate(4473 609)" fill="#FFFFFF"/>
</g>
<g id="Fill 12">
<use xlink:href="#path5_fill" transform="translate(4484 637)" fill="#AFAFAF"/>
</g>
<g id="Fill 13">
<use xlink:href="#path6_fill" transform="translate(4473 627)" fill="#AFAFAF"/>
</g>
<g id="Fill 14">
<use xlink:href="#path7_fill" transform="translate(4473 609)" fill="#AFAFAF"/>
</g>
</g>
</g>
<defs>
<path id="path0_fill" fill-rule="evenodd" d="M 44 1L 38.1166 29L 31 29L 36.886 1L 44 1ZM 75 19L 78.8084 8L 81 19L 75 19ZM 83.2962 29L 90 29L 84.1477 1L 77.9607 1C 76.5697 1 75.3961 1.80818 74.8758 3.05364L 64 29L 71.609 29L 73.1218 24.8164L 82.4202 24.8164L 83.2962 29ZM 64.662 19.4032C 64.6939 12.0011 54.4446 11.5922 54.5155 8.28454C 54.5392 7.28005 55.4945 6.20999 57.5878 5.93587C 58.6239 5.80109 61.4853 5.69545 64.7275 7.1908L 66 1.244C 64.2557 0.608341 62.0152 0 59.2238 0C 52.0668 0 47.0277 3.81306 46.9877 9.27082C 46.9395 13.3116 50.5835 15.5619 53.3285 16.9051C 56.1489 18.2803 57.0951 19.1618 57.0842 20.3903C 57.0633 22.2746 54.8337 23.1042 52.7495 23.1361C 49.1082 23.1925 46.995 22.1507 45.3116 21.3639L 44 27.511C 45.6906 28.2888 48.8147 28.9672 52.0541 29C 59.662 29 64.6384 25.2361 64.662 19.4032ZM 34 1L 22.2761 29L 14.6273 29L 8.8576 6.65455C 8.50704 5.27818 8.2037 4.77273 7.13839 4.19545C 5.3992 3.24909 2.52659 2.36273 0 1.81273L 0.17074 1L 12.484 1C 14.0525 1 15.4647 2.04455 15.8207 3.85455L 18.8686 20.0573L 26.3993 1L 34 1Z"/>
<path id="path1_fill" fill-rule="evenodd" d="M 22.9691 18.5C 22.9691 12.6194 25.7191 7.38224 30 3.99471C 26.8428 1.4953 22.8558 0 18.515 0C 8.28975 0 0 8.28304 0 18.5C 0 28.717 8.28975 37 18.515 37C 22.8558 37 26.8428 35.5047 30 33.0053C 25.7191 29.6178 22.9691 24.3806 22.9691 18.5Z"/>
<path id="path2_fill" fill-rule="evenodd" d="M 0 14.5C 0 20.3785 2.73805 25.6137 7.00045 29C 11.2629 25.6137 14 20.3785 14 14.5C 14 8.62155 11.2629 3.38629 7.00045 0C 2.73805 3.38629 0 8.62155 0 14.5Z"/>
<path id="path3_fill" fill-rule="evenodd" d="M 11.4845 0C 7.14445 0 3.15637 1.4953 0 3.99471C 4.28105 7.38224 7.03017 12.6194 7.03017 18.5C 7.03017 24.3806 4.28105 29.6178 0 33.0053C 3.15637 35.5047 7.14445 37 11.4845 37C 21.71 37 30 28.717 30 18.5C 30 8.28304 21.71 0 11.4845 0Z"/>
<path id="path4_fill" fill-rule="evenodd" d="M 0 50L 50 50L 50 0L 0 0L 0 50Z"/>
<path id="path5_fill" fill-rule="evenodd" d="M 39 4.10838C 39 5.38356 38.2326 6 36.8395 6L 34.1858 5.99718L 34.1858 4.71355L 36.8296 4.71355C 37.0866 4.71355 37.2705 4.67502 37.3823 4.56602C 37.4743 4.47674 37.5455 4.34237 37.5455 4.17228C 37.5455 3.99468 37.4743 3.85842 37.3769 3.77761C 37.2741 3.68646 37.1335 3.64793 36.8981 3.64135C 35.6141 3.60282 34 3.68646 34 1.78074C 34 0.920914 34.5239 -0.00281267 35.9684 6.43654e-06L 38.7096 6.43654e-06L 38.7096 1.28646L 36.2002 1.28646C 35.954 1.28646 35.7872 1.2921 35.651 1.38889C 35.5077 1.48473 35.45 1.62945 35.45 1.81927C 35.45 2.04386 35.5744 2.20079 35.7511 2.26469C 35.8918 2.31637 36.0487 2.32859 36.2768 2.33422L 37.0144 2.35302C 37.7791 2.36805 38.2777 2.50149 38.5852 2.83603C 38.8593 3.13203 39 3.48536 39 4.10838ZM 32.5853 2.83603C 32.2761 2.50149 31.7766 2.36805 31.0157 2.35302L 30.2782 2.33422C 30.0483 2.32859 29.8906 2.31637 29.7508 2.26469C 29.5759 2.20079 29.4497 2.04198 29.4497 1.81927C 29.4497 1.62945 29.5092 1.48473 29.6525 1.38889C 29.7878 1.2921 29.9528 1.28646 30.2025 1.28646L 32.7241 1.28646L 32.7241 6.43654e-06L 29.969 6.43654e-06C 28.5256 -0.00281267 28 0.920914 28 1.78074C 28 3.68646 29.6129 3.60658 30.8976 3.64135C 31.1329 3.64793 31.2726 3.68646 31.3772 3.77761C 31.4737 3.85842 31.5449 3.99468 31.5449 4.17228C 31.5449 4.34237 31.4737 4.47674 31.3826 4.56602C 31.269 4.67502 31.0869 4.71355 30.8309 4.71355L 28.1623 4.71355L 28.1623 5.99718L 30.8399 6C 32.2319 6 33 5.38356 33 4.10838C 33 3.48536 32.8603 3.13203 32.5853 2.83603ZM 28 4.75337L 24.4974 4.75055L 24.4974 3.56315L 27.9165 3.56597L 27.9165 2.32968L 24.4974 2.33062L 24.4974 1.24851L 28 1.24851L 28 0L 23 0L 23 6L 28 6L 28 4.75337ZM 22.2313 0.291445C 21.7491 0.0225635 21.1927 0 20.4367 0L 17 0L 17 6L 18.4895 6L 18.4914 3.81699L 20.0924 3.81699C 20.6352 3.81699 20.9619 3.86023 21.176 4.07929C 21.4509 4.36227 21.4186 4.88687 21.4186 5.24318L 21.4196 6L 22.9188 6L 22.9188 4.80978C 22.9188 4.28894 22.8817 4.01348 22.6743 3.72297C 22.5482 3.54528 22.2675 3.32999 21.9399 3.21153C 22.333 3.06393 23 2.57223 23 1.61987C 23 0.947665 22.7095 0.553745 22.2313 0.291445ZM 13.6445 0L 9.15982 0L 7.37038 1.96772L 5.64906 0L 0 0L 0 6L 5.56254 6L 7.35473 4.02006L 9.08158 6L 11.8145 6L 11.8145 3.99185L 13.5598 3.99185C 14.785 3.99185 16 3.64306 16 1.98182C 16 0.321529 14.7527 0 13.6445 0ZM 20.6802 1.90788C 20.4683 1.99367 20.2143 1.99859 19.9088 1.99859L 18 2L 18 1L 19.9335 1C 20.2122 1 20.4919 1.00774 20.6802 1.07525C 20.8776 1.1526 21 1.29114 21 1.48031C 21 1.67229 20.8776 1.82841 20.6802 1.90788ZM 14.0337 3L 12 3L 12 1L 14.0481 1C 14.6147 1 15 1.28358 15 1.97015C 15 2.65299 14.6302 3 14.0337 3ZM 8 3.46134L 10 1L 10 6L 8 3.46134ZM 4.41323 5L 1 5L 1 3.64376L 4.0432 3.64698L 4.0432 2.2349L 1 2.23597L 1 1L 4.47703 1L 6 2.99302L 4.41323 5Z"/>
<path id="path6_fill" fill-rule="evenodd" d="M 46 6L 43.9929 6L 41.3237 1.50446L 41.3255 6L 38.4564 6L 37.9126 4.6581L 34.9788 4.6581L 34.4377 6L 32.7979 6C 32.1042 6 31.2366 5.84025 30.7464 5.33375C 30.2525 4.82067 30 4.13657 30 3.0437C 30 2.15474 30.1563 1.34096 30.7566 0.702897C 31.2098 0.226468 31.9303 0 32.9033 0L 34.2509 0L 34.2509 1.28645L 32.9329 1.28645C 32.4103 1.28645 32.1153 1.36445 31.8415 1.6426C 31.5918 1.89538 31.4281 2.37369 31.4281 3.00141C 31.4281 3.64135 31.5511 4.10086 31.8276 4.40908C 32.0366 4.64401 32.427 4.71355 32.8062 4.71543L 33.4416 4.71543L 35.4255 0L 37.5251 0L 39.915 5.67486L 39.915 0L 42.0682 0L 44.5497 4.17792L 44.5488 0L 46 0L 46 6ZM 28 6L 29 6L 29 0L 28 0L 28 6ZM 27.2321 0.294127C 26.7499 0.0263117 26.1914 0 25.4372 0L 22 0L 22 6L 23.4907 6L 23.4907 3.81519L 25.091 3.81707C 25.6348 3.81707 25.9625 3.86218 26.1748 4.08019C 26.4516 4.36116 26.4183 4.88551 26.4183 5.2426L 26.4183 6L 27.9208 6L 27.9198 4.80846C 27.9198 4.29068 27.8807 4.01347 27.6733 3.72216C 27.5481 3.54738 27.2664 3.33406 26.9397 3.21284C 27.3309 3.06625 28 2.57384 28 1.62193C 28 0.94816 27.7105 0.558183 27.2321 0.294127ZM 21 4.75114L 17.4974 4.75208L 17.4974 3.56429L 20.9165 3.56429L 20.9165 2.33046L 17.4974 2.33046L 17.4974 1.25074L 21 1.25074L 21 0L 16 0L 16 6L 21 6L 21 4.75114ZM 15 0L 12.6843 0L 11.0091 4.06891L 9.19617 0L 6.91971 0L 6.91971 5.67768L 4.56296 0L 2.49088 0L 0 6L 1.51551 6L 2.04927 4.6581L 4.94434 4.6581L 5.47993 6L 8.31113 6L 8.31022 1.29491L 10.333 6L 11.5538 6L 13.573 1.30337L 13.573 6L 15 6L 15 0ZM 38 3L 36.9986 1L 36 3L 38 3ZM 25.6791 1.90909C 25.4662 1.99436 25.2132 2 24.9109 2L 23 2L 23 1L 24.9325 1C 25.2091 1 25.493 1.00634 25.6791 1.07752C 25.8756 1.15222 26 1.28964 26 1.48132C 26 1.67371 25.8786 1.82875 25.6791 1.90909ZM 3 3L 3.99952 1L 5 3L 3 3Z"/>
<path id="path7_fill" fill-rule="evenodd" d="M 50 27.2276L 47.3953 27.2276C 46.619 27.2276 46.0344 27.4076 45.6315 27.6997L 45.6315 27.2276L 41.7913 27.2276C 41.1837 27.2276 40.4498 27.3782 40.1049 27.6997L 40.1068 27.2276L 33.2442 27.2276L 33.2442 27.6997C 32.6928 27.3148 31.7745 27.2276 31.3421 27.2276L 26.8095 27.2276L 26.8095 27.6997C 26.377 27.2845 25.4255 27.2276 24.8419 27.2276L 19.7625 27.2276L 18.5998 28.4823L 17.5192 27.2276L 9.9421 27.2276L 9.9421 35.4011L 17.3782 35.4011L 18.5694 34.1279L 19.6979 35.3983L 24.2758 35.4011L 24.2758 33.4757L 24.7303 33.4757C 25.3352 33.4766 26.0525 33.461 26.6767 33.1919L 26.6767 35.4011L 30.4671 35.4011L 30.4671 33.2617L 30.6543 33.2617C 30.8848 33.2617 30.9014 33.2801 30.9014 33.4987L 30.9014 35.4011L 42.3805 35.4011C 43.1015 35.4011 43.8778 35.2173 44.2973 34.883L 44.2973 35.4011L 47.9375 35.4011C 48.6917 35.4011 49.4376 35.2945 50 35.0263L 50 50L 0 50L 0 25.3224L 2.39816 25.3224L 2.94031 24.0116L 4.15092 24.0116L 4.69306 25.3224L 9.41839 25.3224L 9.41839 24.3258L 9.84252 25.3252L 12.2905 25.3252L 12.7146 24.3101L 12.7146 25.3224L 24.4491 25.3224L 24.4491 23.1812L 24.6768 23.1821C 24.8446 23.184 24.8871 23.2033 24.8871 23.4632L 24.8871 25.3224L 30.9576 25.3224L 30.9558 24.8135C 31.4389 25.0753 32.1996 25.3224 33.2092 25.3224L 35.7641 25.3224L 36.3145 24.0116L 37.5233 24.0116L 38.0663 25.3224L 42.9752 25.3224L 42.9752 24.0814L 43.7303 25.3224L 47.6728 25.3224L 47.6728 17.1508L 43.7727 17.1508L 43.7727 18.1143L 43.213 17.1508L 39.2096 17.1508L 39.2096 18.1143L 38.7154 17.1508L 33.3069 17.1508C 32.3941 17.1508 31.591 17.2693 30.9558 17.6211L 30.9558 17.1508L 27.2253 17.1508L 27.2253 17.6211C 26.8012 17.2637 26.2498 17.1508 25.633 17.1508L 11.9908 17.1508L 11.0697 19.2571L 10.1348 17.1508L 5.84281 17.1508L 5.84281 18.1143L 5.35876 17.1508L 1.69282 17.1508L 0 21.0272L 0 0L 50 0L 50 27.2276Z"/>
</defs>
</svg>
