<svg width="24" height="24" viewBox="0 0 24 24" version="1.1" xmlns="http://www.w3.org/2000/svg" xmlns:xlink="http://www.w3.org/1999/xlink">
<title>Page 1 Copy</title>
<desc>Created using Figma</desc>
<g id="Canvas" transform="translate(-631 -1153)">
<g id="Page 1 Copy">
<mask id="mask0_outline" mask-type="alpha">
<g id="Mask">
<use xlink:href="#path0_fill" transform="translate(631 1153)" fill="#FFFFFF"/>
</g>
</mask>
<g id="Mask" mask="url(#mask0_outline)">
<use xlink:href="#path0_fill" transform="translate(631 1153)" fill="#D8D8D8"/>
</g>
<g id="Page 1" mask="url(#mask0_outline)">
<g id="Fill 1">
<use xlink:href="#path1_fill" transform="translate(624 1153)" fill="#FF0000"/>
</g>
<g id="Group 12">
<g id="Fill 2">
<use xlink:href="#path2_fill" transform="translate(640 1157)" fill="#FFFFC2"/>
</g>
<g id="Fill 4">
<use xlink:href="#path3_fill" transform="translate(642 1161)" fill="#FFFFC2"/>
</g>
<g id="Fill 6">
<use xlink:href="#path4_fill" transform="translate(643 1165)" fill="#FFFFC2"/>
</g>
<g id="Fill 8">
<use xlink:href="#path5_fill" transform="translate(637 1165)" fill="#FFFFC2"/>
</g>
<g id="Fill 10">
<use xlink:href="#path6_fill" transform="translate(635 1161)" fill="#FFFFC2"/>
</g>
</g>
</g>
</g>
</g>
<defs>
<path id="path0_fill" fill-rule="evenodd" d="M 12 24C 18.6274 24 24 18.6274 24 12C 24 5.37258 18.6274 0 12 0C 5.37258 0 0 5.37258 0 12C 0 18.6274 5.37258 24 12 24Z"/>
<path id="path1_fill" fill-rule="evenodd" d="M 0 24L 36 24L 36 0L 0 0L 0 24Z"/>
<path id="path2_fill" fill-rule="evenodd" d="M 3.55885 0.9331C 3.87882 0.9331 4 1.10281 4 1.10281C 4 0.776461 3.29469 0 2.41885 0C 1.54295 0 0 0.507014 0 3.62428C 0 6.25149 1.32356 7.63114 1.73976 8C 1.58877 7.70646 1.27123 6.98267 1.27051 6.0769C 1.27112 5.338 1.47543 4.66748 1.62929 4.26687L 1.35713 4.38668L 1.58463 3.9802L 1.33151 3.59589L 1.72518 3.72897L 1.95263 3.32249L 1.96842 3.81121L 2.36199 3.94429L 1.97819 4.1132L 1.99398 4.602L 1.76217 4.24991C 1.61113 4.62669 1.38291 5.318 1.38357 6.0769C 1.38329 6.64392 1.51491 7.14156 1.64701 7.49708C 1.71558 7.68223 1.78326 7.82666 1.83284 7.92369C 1.80308 7.732 1.76245 7.41298 1.76245 7.09891C 1.76245 6.60372 2.0689 6.05017 2.64469 5.80679C 3.29458 5.53206 3.68941 4.63646 3.68941 3.71372C 3.68941 2.79098 3.08336 2.33559 3.04875 1.75438C 3.02175 1.30064 3.23888 0.9331 3.55885 0.9331Z"/>
<path id="path3_fill" fill-rule="evenodd" d="M 6.49435 3.02424C 6.59767 3.3373 6.49493 3.50079 6.49493 3.50079C 6.76773 3.4145 7.18903 2.51909 6.90619 1.66204C 6.62341 0.805059 5.70139 -0.570591 3.09581 0.253527C 0.899817 0.948221 0.174003 2.60798 0 3.11274C 0.196732 2.88738 0.699143 2.38529 1.45603 2.14512C 2.07371 1.95036 2.70015 1.973 3.08474 2.01768L 2.89676 1.78301L 3.30994 1.89813L 3.5494 1.54891L 3.56523 1.96931L 3.97847 2.08432L 3.57509 2.22902L 3.59103 2.64931L 3.32588 2.31842L 2.92245 2.46306L 3.14191 2.14319C 2.77813 2.09499 2.12665 2.05452 1.49251 2.25575C 1.01856 2.40544 0.645046 2.66577 0.390564 2.88903C 0.257902 3.00511 0.158928 3.10945 0.0938723 3.18364C 0.244567 3.10383 0.498062 2.97974 0.760603 2.89669C 1.17442 2.76579 1.7362 2.91928 2.12549 3.41836C 2.56488 3.98164 3.44109 4.13111 4.21242 3.88713C 4.98364 3.64321 5.16854 2.92978 5.64312 2.74223C 6.01368 2.59583 6.39102 2.71118 6.49435 3.02424Z"/>
<path id="path4_fill" fill-rule="evenodd" d="M 2.30251 6.62646C 2.00684 6.83836 1.8003 6.78834 1.8003 6.78834C 1.98219 7.03877 3.06674 7.16762 3.87601 6.5878C 4.68528 6.0081 5.82826 4.5979 4.09023 2.20592C 2.6256 0.190171 0.633664 0.00761934 0.0434602 0C 0.34655 0.125407 1.04355 0.470588 1.5491 1.1652C 1.96049 1.73228 2.14546 2.38211 2.22679 2.79137L 2.41132 2.51932L 2.4278 2.98179L 2.87586 3.10907L 2.43799 3.26751L 2.45446 3.72992L 2.16748 3.36544L 1.72954 3.52388L 1.98999 3.14023L 1.70306 2.77569L 2.11339 2.89229C 2.04294 2.5032 1.86829 1.82184 1.44463 1.23989C 1.12877 0.804653 0.729767 0.509934 0.409507 0.324696C 0.242899 0.228018 0.0998767 0.161817 0 0.120286C 0.13428 0.247691 0.349694 0.465592 0.524856 0.7066C 0.800901 1.08644 0.82631 1.71404 0.430011 2.28193C -0.0173589 2.92277 0.117361 3.87144 0.631714 4.57941C 1.14607 5.28751 1.95999 5.23555 2.31597 5.65874C 2.59396 5.98899 2.59805 6.41468 2.30251 6.62646Z"/>
<path id="path5_fill" fill-rule="evenodd" d="M 0.358287 4.04246C 0.074917 3.83508 0.0598815 3.63115 0.0598815 3.63115C -0.117512 3.8722 0.0848598 4.90266 0.860277 5.47019C 1.63563 6.03796 3.27698 6.66371 4.9715 4.3621C 6.39951 2.42246 5.97772 0.546124 5.80985 0.00399028C 5.78384 0.318497 5.67168 1.05881 5.17975 1.72791C 4.7778 2.27301 4.2324 2.63564 3.87846 2.83183L 4.18438 2.91962L 3.76212 3.07239L 3.7774 3.52003L 3.50118 3.16677L 3.07891 3.31943L 3.33052 2.94833L 3.05436 2.59495L 3.48602 2.71907L 3.73775 2.34804L 3.75157 2.75813C 4.09005 2.5779 4.66776 2.21527 5.07978 1.6547C 5.38825 1.23614 5.54218 0.783606 5.61845 0.435485C 5.65834 0.254169 5.67708 0.103808 5.68593 0C 5.60802 0.16076 5.47058 0.422667 5.2998 0.654587C 5.03079 1.02018 4.45854 1.23009 3.81656 1.03663C 3.09195 0.818249 2.2556 1.22375 1.75404 1.90488C 1.25241 2.58625 1.5416 3.3152 1.25623 3.7667C 1.03349 4.1193 0.641414 4.24977 0.358287 4.04246Z"/>
<path id="path6_fill" fill-rule="evenodd" d="M 1.3789 0.406231C 1.49156 0.0850589 1.68458 0.0107493 1.68458 0.0107493C 1.39548 -0.0801968 0.459141 0.411076 0.150932 1.29001C -0.157461 2.16888 -0.25157 3.8585 2.5106 4.7278C 4.83835 5.46034 6.52662 4.5169 7 4.20227C 6.68674 4.27179 5.93356 4.38865 5.1309 4.13666C 4.47646 3.93019 3.95427 3.53809 3.6534 3.27203L 3.66387 3.57843L 3.38358 3.23688L 2.95421 3.38375L 3.21065 3.02581L 2.93048 2.6842L 3.3691 2.80463L 3.62566 2.44674L 3.64002 2.87905L 4.0787 2.99954L 3.6852 3.13397C 3.96586 3.39058 4.49803 3.81221 5.17059 4.02329C 5.67293 4.1816 6.16011 4.18837 6.52163 4.15493C 6.70991 4.13765 6.8617 4.11015 6.96512 4.0875C 6.78479 4.06386 6.4878 4.01565 6.20948 3.92803C 5.7708 3.79009 5.38827 3.32806 5.37539 2.68251C 5.36078 1.95377 4.70603 1.30781 3.88857 1.0505C 3.07087 0.793131 2.45415 1.27448 1.92703 1.14705C 1.51541 1.0477 1.26636 0.727169 1.3789 0.406231Z"/>
</defs>
</svg>
