<svg width="120" height="153" viewBox="0 0 120 153" version="1.1" xmlns="http://www.w3.org/2000/svg" xmlns:xlink="http://www.w3.org/1999/xlink">
<title>Page 1</title>
<desc>Created using Figma</desc>
<g id="Canvas" transform="translate(-331 -413)">
<g id="Page 1">
<g id="Group 3">
<g id="Fill 1">
<use xlink:href="#path0_fill" transform="translate(331.722 413.889)" fill="#FFFFFF"/>
</g>
</g>
<g id="Fill 4">
<use xlink:href="#path1_fill" transform="translate(374.147 484.013)" fill="#FFFFFF"/>
</g>
</g>
</g>
<defs>
<path id="path0_fill" fill-rule="evenodd" d="M 57.9198 151.391C 57.1268 151.391 56.3338 151.213 55.6037 150.855C 54.6778 150.401 32.7353 139.622 15.2508 128.549C -0.574877 118.525 -0.065882 95.0441 0.0223512 92.7697L 0.0223512 32.5957C 0.0223512 31.0584 0.706158 29.599 1.89069 28.6098C 3.07632 27.6206 4.64136 27.2019 6.16393 27.4677C 44.7417 34.1762 52.7996 5.14687 53.1249 3.90776C 53.6902 1.74796 55.5811 0.174011 57.8211 0.0134375C 60.0639 -0.145492 62.1583 1.11718 63.0296 3.17395C 70.578 20.9911 81.1599 24.1505 81.6066 24.2771L 81.5294 24.2568L 78.9888 34.3587C 78.45 34.225 67.7192 31.3938 58.5292 17.0721C 56.8974 19.7393 54.7638 22.6368 52.0115 25.4214C 39.6765 37.8979 23.5552 39.7891 10.5 38.5528L 10.5 92.8793C 10.5 92.9643 10.4978 93.0487 10.4934 93.1331C 10.4851 93.3177 9.74454 112.714 20.8818 119.767C 34.6461 128.485 51.7893 137.278 57.9226 140.362L 94.4324 122.216C 96.0272 121.167 108.576 112.341 108.11 94.6599C 107.057 54.7165 106.456 32.7387 106.456 32.7376C 106.377 29.8632 108.658 27.4699 111.55 27.3915C 114.433 27.2945 116.851 29.5804 116.929 32.4548C 116.929 32.4548 117.531 54.4353 118.584 94.387C 119.234 119.028 100.559 130.701 99.7633 131.186C 99.6348 131.265 99.5019 131.338 99.3673 131.404L 60.2635 150.841C 59.5257 151.208 58.7228 151.391 57.9198 151.391Z"/>
<path id="path1_fill" fill-rule="evenodd" d="M 21.4442 37.5544C 20.3811 37.5544 19.3115 37.2214 18.3961 36.5388L 2.10815 24.3888C -0.189001 22.6757 -0.685785 19.3919 0.998936 17.0553C 2.68311 14.7181 5.91085 14.2133 8.20854 15.927L 20.7297 25.267L 41.4979 1.74083C 43.4009 -0.414683 46.6607 -0.593066 48.7819 1.34319C 50.901 3.2789 51.0763 6.59583 49.1728 8.75244L 25.2838 35.8137C 24.2712 36.9607 22.8634 37.5544 21.4442 37.5544Z"/>
</defs>
</svg>
