<svg width="123" height="156" viewBox="0 0 123 156" version="1.1" xmlns="http://www.w3.org/2000/svg" xmlns:xlink="http://www.w3.org/1999/xlink">
<title>Page 1</title>
<desc>Created using Figma</desc>
<g id="Canvas" transform="translate(-326 101)">
<g id="Page 1">
<g id="Group 3">
<mask id="mask0_outline" mask-type="alpha">
<g id="Clip 2">
<use xlink:href="#path0_fill" transform="translate(326.753 -100.487)" fill="#FFFFFF"/>
</g>
</mask>
<g id="Fill 1" mask="url(#mask0_outline)">
<use xlink:href="#path1_fill" transform="translate(326.753 -100.487)" fill="#2D527C"/>
</g>
</g>
<g id="Fill 4">
<use xlink:href="#path2_fill" transform="translate(362.786 -39.3135)" fill="#2D527C"/>
</g>
</g>
</g>
<defs>
<path id="path0_fill" fill-rule="evenodd" d="M 0 0L 121.308 0L 121.308 154.733L 0 154.733L 0 3.18398e-14L 0 0Z"/>
<path id="path1_fill" fill-rule="evenodd" d="M 59.2422 154.733C 58.4311 154.733 57.62 154.551 56.8732 154.185C 55.9262 153.721 33.4827 142.704 15.599 131.386C -0.588002 121.141 -0.0673861 97.1422 0.0228615 94.8176L 0.0228615 33.3152C 0.0228615 31.744 0.72228 30.2524 1.93385 29.2414C 3.14656 28.2303 4.74732 27.8024 6.30466 28.0741C 45.7632 34.9306 54.005 5.26048 54.3378 3.99403C 54.916 1.78655 56.8501 0.177853 59.1412 0.0137341C 61.4352 -0.148704 63.5775 1.14184 64.4687 3.24401C 72.1893 21.4544 83.0129 24.6836 83.4697 24.813L 83.3908 24.7923L 80.7922 35.1172C 80.2411 34.9805 69.2653 32.0868 59.8655 17.4489C 58.1965 20.1751 56.0142 23.1365 53.199 25.9825C 40.5824 38.7345 24.093 40.6675 10.7398 39.4038L 10.7398 94.9296C 10.7398 95.0165 10.7375 95.1027 10.733 95.189C 10.7245 95.3777 9.96702 115.202 21.3585 122.411C 35.4371 131.321 52.9717 140.309 59.245 143.461L 96.5883 124.913C 98.2196 123.842 111.054 114.82 110.578 96.7495C 109.501 55.9243 108.886 33.4614 108.886 33.4603C 108.806 30.5224 111.139 28.0763 114.097 27.9962C 117.045 27.8971 119.519 30.2334 119.599 33.1713C 119.599 33.1713 120.214 55.637 121.291 96.4706C 121.956 121.655 102.854 133.587 102.041 134.082C 101.91 134.162 101.774 134.237 101.636 134.305L 61.6394 154.171C 60.8847 154.546 60.0635 154.733 59.2422 154.733Z"/>
<path id="path2_fill" fill-rule="evenodd" d="M 21.9337 38.3834C 20.8464 38.3834 19.7524 38.043 18.8161 37.3454L 2.15628 24.9272C -0.193316 23.1763 -0.701442 19.82 1.02174 17.4318C 2.74437 15.043 6.0458 14.527 8.39595 16.2786L 21.2029 25.8247L 42.4454 1.77925C 44.3918 -0.423837 47.726 -0.606158 49.8956 1.37284C 52.0631 3.35128 52.2425 6.74143 50.2955 8.94565L 25.861 36.6042C 24.8253 37.7766 23.3854 38.3834 21.9337 38.3834Z"/>
</defs>
</svg>
