<svg width="143" height="152" viewBox="0 0 143 152" version="1.1" xmlns="http://www.w3.org/2000/svg" xmlns:xlink="http://www.w3.org/1999/xlink">
<title>Page 1</title>
<desc>Created using Figma</desc>
<g id="Canvas" transform="translate(-1942 -432)">
<g id="Page 1">
<g id="Group 7">
<g id="Group 6">
<g id="Fill 2">
<use xlink:href="#path0_fill" transform="translate(2026.19 548.334)" fill="#FFFFFF"/>
</g>
<g id="Fill 4">
<use xlink:href="#path1_fill" transform="translate(1942 432)" fill="#FFFFFF"/>
</g>
</g>
</g>
</g>
</g>
<defs>
<path id="path0_fill" fill-rule="evenodd" d="M 47.6623 0L 4.45451 0C 1.99451 0 0 2.04771 0 4.57434C 0 7.10096 1.99451 9.14867 4.45451 9.14867L 16.9249 9.14867C 21.3455 9.14867 24.9424 12.843 24.9424 17.3833C 24.9424 21.9236 21.3455 25.6171 16.9249 25.6171C 12.5044 25.6171 8.90824 21.9236 8.90824 17.3833C 8.90824 14.8567 6.91373 12.8089 4.45451 12.8089C 1.99451 12.8089 0 14.8567 0 17.3833C 0 26.9679 7.59303 34.7666 16.9249 34.7666C 26.2576 34.7666 33.8499 26.9679 33.8499 17.3833C 33.8499 14.4053 33.1161 11.6016 31.8262 9.14867L 47.6623 9.14867C 50.1223 9.14867 52.1161 7.10096 52.1161 4.57434C 52.1161 2.04771 50.1223 0 47.6623 0Z"/>
<path id="path1_fill" fill-rule="evenodd" d="M 40.0892 98.951L 40.0892 85.8173L 100.778 85.8173C 103.251 85.8173 105.256 83.8076 105.256 81.3278C 105.256 78.848 103.251 76.8383 100.778 76.8383L 40.0892 76.8383L 40.0892 62.8473L 128.286 62.8473L 121.062 98.951L 40.0892 98.951ZM 133.631 40.1153L 130.977 53.487L 40.0892 53.487L 40.0892 40.1153L 133.631 40.1153ZM 141.965 33.2823C 141.11 32.2403 139.832 31.6357 138.483 31.6357L 39.8997 31.6357L 39.8997 13.4977C 39.8997 11.4982 38.5792 9.73924 36.6584 9.18002L 5.76266 0.180692C 3.3746 -0.513954 0.876497 0.855422 0.181207 3.23888C -0.514881 5.62314 0.855766 8.11973 3.24224 8.81517L 30.8976 16.8713L 30.8976 36.1334L 30.8976 115.586L 26.4802 115.586C 23.9941 115.586 21.9792 117.599 21.9792 120.083C 21.9792 122.567 23.9941 124.58 26.4802 124.58L 52.0561 124.58L 52.5106 124.58C 56.9781 124.58 60.6133 128.211 60.6133 132.675C 60.6133 137.138 56.9781 140.769 52.5106 140.769C 48.043 140.769 44.4087 137.138 44.4087 132.675C 44.4087 130.191 42.393 128.178 39.9076 128.178C 37.4215 128.178 35.4058 130.191 35.4058 132.675C 35.4058 142.097 43.0795 149.764 52.5106 149.764C 61.9424 149.764 69.6153 142.097 69.6153 132.675C 69.6153 123.252 61.9424 115.586 52.5106 115.586L 52.0561 115.586L 39.8997 115.586L 39.8997 107.936L 124.971 107.936C 125.775 107.936 126.537 107.723 127.199 107.346C 128.301 106.72 129.121 105.636 129.385 104.323L 142.898 37.0176C 143.162 35.6952 142.82 34.3251 141.965 33.2823Z"/>
</defs>
</svg>
