<svg width="173" height="121" viewBox="0 0 173 121" version="1.1" xmlns="http://www.w3.org/2000/svg" xmlns:xlink="http://www.w3.org/1999/xlink">
<title>Car</title>
<desc>Created using Figma</desc>
<g id="Canvas" transform="translate(2952 60)">
<g id="Page 1 Copy 11">
<g id="Fill 1">
<use xlink:href="#path0_fill" transform="translate(-2927.89 10.3204)" fill="#CEE8FA"/>
</g>
<g id="Fill 3">
<use xlink:href="#path0_fill" transform="translate(-2849.32 10.3204)" fill="#CEE8FA"/>
</g>
<g id="Fill 5">
<use xlink:href="#path1_fill" transform="translate(-2929.05 -41.6699)" fill="#CEE8FA"/>
</g>
<g id="Fill 7">
<use xlink:href="#path2_fill" transform="translate(-2917.49 19.5631)" fill="#2F547E"/>
</g>
<g id="Stroke 9">
<use xlink:href="#path3_stroke" transform="translate(-2917.49 19.5631)" fill="#2D527C"/>
</g>
<g id="Fill 11">
<use xlink:href="#path4_fill" transform="translate(-2838.93 19.5631)" fill="#2F547E"/>
</g>
<g id="Stroke 13">
<use xlink:href="#path5_stroke" transform="translate(-2838.93 19.5631)" fill="#2D527C"/>
</g>
<g id="Fill 15">
<use xlink:href="#path6_fill" transform="translate(-2933.67 -43.9806)" fill="#2D527C"/>
</g>
<g id="Stroke 17">
<use xlink:href="#path7_stroke" transform="translate(-2933.67 -43.9806)" fill="#2D527C"/>
</g>
<g id="Fill 19">
<use xlink:href="#path8_fill" transform="translate(-2951 -59)" fill="#2D527C"/>
</g>
<g id="Stroke 21">
<use xlink:href="#path9_stroke" transform="translate(-2951 -59)" fill="#2D527C"/>
</g>
</g>
</g>
<defs>
<path id="path0_fill" fill-rule="evenodd" d="M 23.108 34.6602C 16.7269 34.6602 11.554 29.4875 11.554 23.1068C 11.554 16.7261 16.7269 11.5534 23.108 11.5534C 29.4891 11.5534 34.6621 16.7261 34.6621 23.1068C 34.6621 29.4875 29.4891 34.6602 23.108 34.6602ZM 23.1081 0C 10.3456 0 0 10.345 0 23.1068C 0 35.8686 10.3456 46.2136 23.1081 46.2136C 35.8706 46.2136 46.2162 35.8686 46.2162 23.1068C 46.2162 10.345 35.8706 0 23.1081 0Z"/>
<path id="path1_fill" fill-rule="evenodd" d="M 22.555 1.30225L 0 25.0781L 97.0541 25.4175L 85.4349 0.962861C 85.4349 0.962861 38.6165 -1.41465 22.555 1.30225Z"/>
<path id="path2_fill" fill-rule="evenodd" d="M 13.2872 5.7767C 17.4283 5.7767 20.7974 9.14593 20.7974 13.2864C 20.7974 17.4273 17.4283 20.7961 13.2872 20.7961C 9.14652 20.7961 5.7771 17.4273 5.7771 13.2864C 5.7771 9.14593 9.14615 5.7767 13.2872 5.7767ZM 12.7095 25.4175C 19.7178 25.4175 25.4189 19.7167 25.4189 12.7087C 25.4189 5.70114 19.7178 0 12.7095 0C 5.70146 0 0 5.70114 0 12.7087C 0 19.7167 5.70146 25.4175 12.7095 25.4175Z"/>
<path id="path3_stroke" d="M 13.2872 6.2767C 17.1522 6.2767 20.2974 9.42208 20.2974 13.2864L 21.2974 13.2864C 21.2974 8.86978 17.7045 5.2767 13.2872 5.2767L 13.2872 6.2767ZM 20.2974 13.2864C 20.2974 17.1511 17.1522 20.2961 13.2872 20.2961L 13.2872 21.2961C 17.7044 21.2961 21.2974 17.7034 21.2974 13.2864L 20.2974 13.2864ZM 13.2872 20.2961C 9.42262 20.2961 6.2771 17.1511 6.2771 13.2864L 5.2771 13.2864C 5.2771 17.7034 8.87042 21.2961 13.2872 21.2961L 13.2872 20.2961ZM 6.2771 13.2864C 6.2771 9.42208 9.42228 6.2767 13.2872 6.2767L 13.2872 5.2767C 8.87001 5.2767 5.2771 8.86978 5.2771 13.2864L 6.2771 13.2864ZM 12.7095 25.9175C 19.9939 25.9175 25.9189 19.9929 25.9189 12.7087L 24.9189 12.7087C 24.9189 19.4405 19.4417 24.9175 12.7095 24.9175L 12.7095 25.9175ZM 25.9189 12.7087C 25.9189 5.42498 19.9939 -0.5 12.7095 -0.5L 12.7095 0.5C 19.4417 0.5 24.9189 5.9773 24.9189 12.7087L 25.9189 12.7087ZM 12.7095 -0.5C 5.42535 -0.5 -0.5 5.42497 -0.5 12.7087L 0.5 12.7087C 0.5 5.97731 5.97758 0.5 12.7095 0.5L 12.7095 -0.5ZM -0.5 12.7087C -0.5 19.9929 5.42536 25.9175 12.7095 25.9175L 12.7095 24.9175C 5.97757 24.9175 0.5 19.4405 0.5 12.7087L -0.5 12.7087Z"/>
<path id="path4_fill" fill-rule="evenodd" d="M 13.2872 20.7961C 9.14615 20.7961 5.7771 17.4273 5.7771 13.2864C 5.7771 9.14593 9.14615 5.7767 13.2872 5.7767C 17.4279 5.7767 20.7974 9.14593 20.7974 13.2864C 20.7974 17.4273 17.4283 20.7961 13.2872 20.7961ZM 12.7095 0C 5.7011 0 0 5.70114 0 12.7087C 0 19.7167 5.7011 25.4175 12.7095 25.4175C 19.7175 25.4175 25.4189 19.7167 25.4189 12.7087C 25.4189 5.70114 19.7175 0 12.7095 0Z"/>
<path id="path5_stroke" d="M 13.2872 20.2961C 9.42226 20.2961 6.2771 17.1511 6.2771 13.2864L 5.2771 13.2864C 5.2771 17.7034 8.87003 21.2961 13.2872 21.2961L 13.2872 20.2961ZM 6.2771 13.2864C 6.2771 9.42208 9.42228 6.2767 13.2872 6.2767L 13.2872 5.2767C 8.87001 5.2767 5.2771 8.86978 5.2771 13.2864L 6.2771 13.2864ZM 13.2872 6.2767C 17.1518 6.2767 20.2974 9.4221 20.2974 13.2864L 21.2974 13.2864C 21.2974 8.86976 17.7041 5.2767 13.2872 5.2767L 13.2872 6.2767ZM 20.2974 13.2864C 20.2974 17.1511 17.1522 20.2961 13.2872 20.2961L 13.2872 21.2961C 17.7044 21.2961 21.2974 17.7034 21.2974 13.2864L 20.2974 13.2864ZM 12.7095 -0.5C 5.42498 -0.5 -0.5 5.42498 -0.5 12.7087L 0.5 12.7087C 0.5 5.9773 5.97723 0.5 12.7095 0.5L 12.7095 -0.5ZM -0.5 12.7087C -0.5 19.9929 5.42498 25.9175 12.7095 25.9175L 12.7095 24.9175C 5.97722 24.9175 0.5 19.4405 0.5 12.7087L -0.5 12.7087ZM 12.7095 25.9175C 19.9936 25.9175 25.9189 19.9929 25.9189 12.7087L 24.9189 12.7087C 24.9189 19.4405 19.4413 24.9175 12.7095 24.9175L 12.7095 25.9175ZM 25.9189 12.7087C 25.9189 5.42497 19.9936 -0.5 12.7095 -0.5L 12.7095 0.5C 19.4413 0.5 24.9189 5.97731 24.9189 12.7087L 25.9189 12.7087Z"/>
<path id="path6_fill" fill-rule="evenodd" d="M 53.149 4.62136L 85.1807 4.62136C 85.9338 4.65648 87.8616 5.8712 88.2057 6.51603L 97.0541 25.4175L 53.1487 25.4175L 53.149 4.62136ZM 32.8042 5.1277L 40.9041 5.1277C 42.3157 5.1277 43.4589 3.97975 43.4589 2.56385C 43.4589 1.14795 42.3157 0 40.9041 0L 32.8042 0C 29.2538 0 23.5964 2.45303 21.1623 5.04823L 0.694277 26.8732C -0.00426334 27.618 -0.194609 28.7083 0.209694 29.6474C 0.613634 30.5865 1.53558 31.1942 2.55487 31.1942L 101.432 31.1942C 102.304 31.1942 103.116 30.7472 103.586 30.009C 104.055 29.2712 104.116 28.3434 103.748 27.5494L 93.2379 4.86268C 92.1089 2.45412 88.2555 0 85.603 0L 51.1232 0C 49.712 0 48.5688 1.14795 48.5688 2.56385L 48.5684 26.0665L 8.46794 26.0665L 24.8827 8.56245C 26.3285 7.02151 30.6963 5.1277 32.8042 5.1277Z"/>
<path id="path7_stroke" d="M 53.149 4.62136L 53.149 4.12136L 52.6491 4.12136L 52.649 4.62135L 53.149 4.62136ZM 85.1807 4.62136L 85.204 4.1219L 85.1923 4.12136L 85.1807 4.12136L 85.1807 4.62136ZM 88.2057 6.51603L 88.6585 6.30404L 88.653 6.29218L 88.6468 6.28062L 88.2057 6.51603ZM 97.0541 25.4175L 97.0541 25.9175L 97.8402 25.9175L 97.5069 25.2055L 97.0541 25.4175ZM 53.1487 25.4175L 52.6487 25.4175L 52.6487 25.9175L 53.1487 25.9175L 53.1487 25.4175ZM 21.1623 5.04823L 20.7976 4.70617L 20.7976 4.7062L 21.1623 5.04823ZM 0.694277 26.8732L 1.05897 27.2153L 1.05899 27.2152L 0.694277 26.8732ZM 0.209694 29.6474L 0.669004 29.4498L 0.668939 29.4497L 0.209694 29.6474ZM 103.586 30.009L 104.007 30.2774L 104.008 30.2772L 103.586 30.009ZM 103.748 27.5494L 103.295 27.7596L 103.295 27.7597L 103.748 27.5494ZM 93.2379 4.86268L 93.6916 4.65249L 93.6907 4.65046L 93.2379 4.86268ZM 48.5688 2.56385L 49.0688 2.56386L 49.0688 2.56385L 48.5688 2.56385ZM 48.5684 26.0665L 48.5684 26.5665L 49.0684 26.5665L 49.0684 26.0665L 48.5684 26.0665ZM 8.46794 26.0665L 8.10322 25.7245L 7.3136 26.5665L 8.46794 26.5665L 8.46794 26.0665ZM 24.8827 8.56245L 24.5181 8.22034L 24.518 8.22043L 24.8827 8.56245ZM 53.149 5.12136L 85.1807 5.12136L 85.1807 4.12136L 53.149 4.12136L 53.149 5.12136ZM 85.1574 5.12082C 85.2492 5.1251 85.4406 5.17528 85.7208 5.29896C 85.9941 5.41915 86.2845 5.57729 86.5807 5.76352C 86.8771 5.9493 87.1446 6.14143 87.3696 6.33358C 87.6016 6.5311 87.7252 6.67753 87.7646 6.75145L 88.6468 6.28062C 88.5142 6.03211 88.2677 5.78489 88.0179 5.57219C 87.7612 5.35413 87.4351 5.11948 87.1124 4.91659C 86.7895 4.71415 86.4353 4.52172 86.1246 4.38412C 85.8208 4.25001 85.4888 4.13518 85.204 4.1219L 85.1574 5.12082ZM 87.7529 6.72802L 96.6012 25.6295L 97.5069 25.2055L 88.6585 6.30404L 87.7529 6.72802ZM 97.0541 24.9175L 53.1487 24.9175L 53.1487 25.9175L 97.0541 25.9175L 97.0541 24.9175ZM 53.6487 25.4175L 53.649 4.62137L 52.649 4.62135L 52.6487 25.4175L 53.6487 25.4175ZM 32.8042 5.6277L 40.9041 5.6277L 40.9041 4.6277L 32.8042 4.6277L 32.8042 5.6277ZM 40.9041 5.6277C 42.5936 5.6277 43.9589 4.25412 43.9589 2.56385L 42.9589 2.56385C 42.9589 3.70537 42.0378 4.6277 40.9041 4.6277L 40.9041 5.6277ZM 43.9589 2.56385C 43.9589 0.873579 42.5936 -0.5 40.9041 -0.5L 40.9041 0.5C 42.0378 0.5 42.9589 1.42233 42.9589 2.56385L 43.9589 2.56385ZM 40.9041 -0.5L 32.8042 -0.5L 32.8042 0.5L 40.9041 0.5L 40.9041 -0.5ZM 32.8042 -0.5C 30.934 -0.5 28.5609 0.140342 26.3657 1.09218C 24.1705 2.04406 22.0794 3.33953 20.7976 4.70617L 21.5269 5.39029C 22.6793 4.16172 24.6339 2.93308 26.7636 2.00964C 28.8933 1.08617 31.124 0.5 32.8042 0.5L 32.8042 -0.5ZM 20.7976 4.7062L 0.329567 26.5312L 1.05899 27.2152L 21.527 5.39026L 20.7976 4.7062ZM 0.329587 26.5312C -0.505322 27.4213 -0.732358 28.7237 -0.249551 29.8451L 0.668939 29.4497C 0.34314 28.693 0.496796 27.8146 1.05897 27.2153L 0.329587 26.5312ZM -0.249616 29.845C 0.233043 30.9671 1.33525 31.6942 2.55487 31.6942L 2.55487 30.6942C 1.7359 30.6942 0.994225 30.2059 0.669004 29.4498L -0.249616 29.845ZM 2.55487 31.6942L 101.432 31.6942L 101.432 30.6942L 2.55487 30.6942L 2.55487 31.6942ZM 101.432 31.6942C 102.476 31.6942 103.446 31.1593 104.007 30.2774L 103.164 29.7406C 102.785 30.3352 102.132 30.6942 101.432 30.6942L 101.432 31.6942ZM 104.008 30.2772C 104.568 29.3958 104.642 28.2877 104.202 27.3392L 103.295 27.7597C 103.591 28.3991 103.541 29.1466 103.164 29.7408L 104.008 30.2772ZM 104.202 27.3393L 93.6916 4.65249L 92.7843 5.07286L 103.295 27.7596L 104.202 27.3393ZM 93.6907 4.65046C 93.0706 3.32753 91.7392 2.04822 90.2604 1.1064C 88.7818 0.164679 87.061 -0.5 85.603 -0.5L 85.603 0.5C 86.7976 0.5 88.3297 1.06238 89.7232 1.94986C 91.1165 2.83724 92.2763 3.98926 92.7852 5.07489L 93.6907 4.65046ZM 85.603 -0.5L 51.1232 -0.5L 51.1232 0.5L 85.603 0.5L 85.603 -0.5ZM 51.1232 -0.5C 49.434 -0.5 48.0688 0.873624 48.0688 2.56385L 49.0688 2.56385C 49.0688 1.42228 49.9899 0.5 51.1232 0.5L 51.1232 -0.5ZM 48.0688 2.56384L 48.0684 26.0665L 49.0684 26.0665L 49.0688 2.56386L 48.0688 2.56384ZM 48.5684 25.5665L 8.46794 25.5665L 8.46794 26.5665L 48.5684 26.5665L 48.5684 25.5665ZM 8.83266 26.4085L 25.2474 8.90447L 24.518 8.22043L 8.10322 25.7245L 8.83266 26.4085ZM 25.2474 8.90456C 25.898 8.21108 27.2735 7.38525 28.7941 6.72596C 30.3147 6.0666 31.8562 5.6277 32.8042 5.6277L 32.8042 4.6277C 31.6443 4.6277 29.9479 5.1357 28.3962 5.80849C 26.8444 6.48134 25.3132 7.37289 24.5181 8.22034L 25.2474 8.90456Z"/>
<path id="path8_fill" fill-rule="evenodd" d="M 154.824 51.9112C 154.824 51.5507 154.838 51.1917 154.864 50.835C 159.373 53.6724 163.013 59.1573 164.067 64.699C 158.769 63.2909 154.824 58.0933 154.824 51.9112ZM 124.784 114.379C 112.679 114.379 102.831 104.531 102.831 92.4272C 102.831 80.3232 112.679 70.4757 124.784 70.4757C 136.888 70.4757 146.736 80.3232 146.736 92.4272C 146.736 104.531 136.888 114.379 124.784 114.379ZM 46.2161 70.4757C 58.3209 70.4757 68.1688 80.3232 68.1688 92.4272C 68.1688 104.531 58.3209 114.379 46.2161 114.379C 34.1114 114.379 24.2634 104.531 24.2634 92.4272C 24.2634 80.3232 34.1114 70.4757 46.2161 70.4757ZM 171 67.7352C 171 58.0705 163.521 47.7209 154.329 44.6648C 154.323 44.6627 141.567 40.4213 141.567 40.4213C 139.437 39.7132 136.628 37.2233 135.672 35.1975L 124.451 11.414C 121.432 5.01365 113.512 0 106.42 0L 50.0266 0C 43.2452 0 34.292 3.85849 29.6438 8.78468L 4.48238 35.4523C 1.96868 38.1161 0 43.0676 0 46.7258L 0 80.8937C 0 88.3984 6.12034 94.503 13.6436 94.503L 18.7587 94.503C 20.1325 108.238 31.7842 119 45.9091 119C 60.0345 119 71.6865 108.238 73.0596 94.503L 89.6175 94.503C 91.1248 94.503 92.3462 93.2847 92.3462 91.7811C 92.3462 90.2783 91.1248 89.0593 89.6175 89.0593L 73.0596 89.0593C 71.6865 75.3248 60.0345 64.5626 45.9091 64.5626C 31.7842 64.5626 20.1325 75.3248 18.7587 89.0593L 13.6436 89.0593C 9.12958 89.0593 5.45745 85.3968 5.45745 80.8937L 5.45745 46.7258C 5.45745 44.4416 6.88657 40.8466 8.45613 39.1834L 33.6182 12.5154C 37.2347 8.68198 44.7492 5.4437 50.0266 5.4437L 106.42 5.4437C 111.398 5.4437 117.394 9.23905 119.513 13.7319L 130.734 37.5154C 132.342 40.925 136.257 44.3945 139.841 45.5859L 150.209 49.0332C 150.03 50.0643 149.937 51.1123 149.937 52.1695C 149.937 61.3287 156.722 68.9354 165.543 70.2538L 165.543 80.8941C 165.543 85.3971 162.502 89.0597 158.764 89.0597L 152.241 89.0597C 150.867 75.3252 139.215 64.563 125.09 64.563C 110.044 64.563 97.8033 76.7736 97.8033 91.7815C 97.8033 106.79 110.044 119 125.09 119C 139.215 119 150.867 108.239 152.241 94.5033L 158.764 94.5033C 165.511 94.5033 171 88.3988 171 80.8941L 171 67.7352Z"/>
<path id="path9_stroke" d="M 154.864 50.835L 155.397 49.9886L 153.988 49.102L 153.867 50.7622L 154.864 50.835ZM 164.067 64.699L 163.811 65.6655L 165.347 66.0738L 165.05 64.5122L 164.067 64.699ZM 154.329 44.6648L 153.979 45.6014L 153.996 45.6079L 154.014 45.6138L 154.329 44.6648ZM 141.567 40.4213L 141.251 41.3702L 141.251 41.3702L 141.567 40.4213ZM 135.672 35.1975L 134.768 35.6242L 134.768 35.6242L 135.672 35.1975ZM 124.451 11.414L 123.547 11.8407L 123.547 11.8407L 124.451 11.414ZM 29.6438 8.78468L 28.9164 8.09838L 28.9164 8.09841L 29.6438 8.78468ZM 4.48238 35.4523L 5.20968 36.1386L 5.20973 36.1385L 4.48238 35.4523ZM 18.7587 94.503L 19.7537 94.4035L 19.6637 93.503L 18.7587 93.503L 18.7587 94.503ZM 73.0596 94.503L 73.0596 93.503L 72.1546 93.503L 72.0645 94.4035L 73.0596 94.503ZM 73.0596 89.0593L 72.0645 89.1588L 72.1546 90.0593L 73.0596 90.0593L 73.0596 89.0593ZM 18.7587 89.0593L 18.7587 90.0593L 19.6637 90.0593L 19.7537 89.1588L 18.7587 89.0593ZM 8.45613 39.1834L 9.18342 39.8697L 9.18348 39.8697L 8.45613 39.1834ZM 33.6182 12.5154L 34.3456 13.2017L 34.3456 13.2016L 33.6182 12.5154ZM 119.513 13.7319L 118.609 14.1585L 118.609 14.1586L 119.513 13.7319ZM 130.734 37.5154L 131.638 37.0888L 131.638 37.0888L 130.734 37.5154ZM 139.841 45.5859L 140.156 44.637L 140.156 44.637L 139.841 45.5859ZM 150.209 49.0332L 151.195 49.2043L 151.342 48.3559L 150.525 48.0843L 150.209 49.0332ZM 165.543 70.2538L 166.543 70.2538L 166.543 69.3922L 165.69 69.2648L 165.543 70.2538ZM 152.241 89.0597L 151.246 89.1592L 151.336 90.0597L 152.241 90.0597L 152.241 89.0597ZM 152.241 94.5033L 152.241 93.5033L 151.336 93.5033L 151.246 94.4038L 152.241 94.5033ZM 155.824 51.9112C 155.824 51.5698 155.836 51.2472 155.861 50.9077L 153.867 50.7622C 153.839 51.1363 153.824 51.5317 153.824 51.9112L 155.824 51.9112ZM 154.331 51.6813C 158.59 54.3614 162.079 59.5988 163.085 64.8859L 165.05 64.5122C 163.947 58.7158 160.155 52.9835 155.397 49.9886L 154.331 51.6813ZM 164.324 63.7326C 159.501 62.4506 155.824 57.6788 155.824 51.9112L 153.824 51.9112C 153.824 58.5077 158.038 64.1312 163.811 65.6655L 164.324 63.7326ZM 124.784 113.379C 113.231 113.379 103.831 103.979 103.831 92.4272L 101.831 92.4272C 101.831 105.084 112.127 115.379 124.784 115.379L 124.784 113.379ZM 103.831 92.4272C 103.831 80.8755 113.231 71.4757 124.784 71.4757L 124.784 69.4757C 112.127 69.4757 101.831 79.7708 101.831 92.4272L 103.831 92.4272ZM 124.784 71.4757C 136.336 71.4757 145.736 80.8755 145.736 92.4272L 147.736 92.4272C 147.736 79.7708 137.441 69.4757 124.784 69.4757L 124.784 71.4757ZM 145.736 92.4272C 145.736 103.979 136.336 113.379 124.784 113.379L 124.784 115.379C 137.441 115.379 147.736 105.084 147.736 92.4272L 145.736 92.4272ZM 46.2161 71.4757C 57.7686 71.4757 67.1688 80.8755 67.1688 92.4272L 69.1688 92.4272C 69.1688 79.7708 58.8731 69.4757 46.2161 69.4757L 46.2161 71.4757ZM 67.1688 92.4272C 67.1688 103.979 57.7686 113.379 46.2161 113.379L 46.2161 115.379C 58.8731 115.379 69.1688 105.084 69.1688 92.4272L 67.1688 92.4272ZM 46.2161 113.379C 34.6636 113.379 25.2634 103.979 25.2634 92.4272L 23.2634 92.4272C 23.2634 105.084 33.5592 115.379 46.2161 115.379L 46.2161 113.379ZM 25.2634 92.4272C 25.2634 80.8755 34.6636 71.4757 46.2161 71.4757L 46.2161 69.4757C 33.5592 69.4757 23.2634 79.7708 23.2634 92.4272L 25.2634 92.4272ZM 172 67.7352C 172 57.6384 164.244 46.9075 154.645 43.7159L 154.014 45.6138C 162.799 48.5344 170 58.5025 170 67.7352L 172 67.7352ZM 154.68 43.7282C 154.659 43.7208 151.451 42.6539 148.261 41.5933C 146.666 41.063 145.072 40.5328 143.876 40.1351C 143.278 39.9363 142.779 39.7706 142.431 39.6546C 142.256 39.5966 142.119 39.5511 142.026 39.52C 141.979 39.5045 141.943 39.4925 141.919 39.4845C 141.907 39.4805 141.898 39.4775 141.892 39.4754C 141.889 39.4744 141.886 39.4736 141.885 39.4731C 141.884 39.4729 141.883 39.4727 141.883 39.4726C 141.883 39.4725 141.883 39.4724 141.883 39.4724C 141.882 39.4724 141.882 39.4724 141.567 40.4213C 141.251 41.3702 141.251 41.3702 141.252 41.3703C 141.252 41.3703 141.252 41.3703 141.252 41.3704C 141.252 41.3705 141.253 41.3707 141.254 41.371C 141.255 41.3715 141.258 41.3723 141.261 41.3733C 141.267 41.3753 141.276 41.3784 141.288 41.3824C 141.312 41.3904 141.348 41.4023 141.395 41.4178C 141.488 41.4489 141.625 41.4945 141.8 41.5525C 142.148 41.6684 142.647 41.8341 143.245 42.033C 144.441 42.4306 146.035 42.9609 147.63 43.4912C 150.844 44.5595 153.999 45.609 153.979 45.6014L 154.68 43.7282ZM 141.882 39.4724C 140.992 39.1765 139.874 38.4692 138.843 37.5551C 137.811 36.6409 136.976 35.6167 136.577 34.7708L 134.768 35.6242C 135.324 36.8041 136.372 38.0377 137.516 39.052C 138.661 40.0663 140.012 40.9581 141.251 41.3702L 141.882 39.4724ZM 136.577 34.7708L 125.356 10.9873L 123.547 11.8407L 134.768 35.6242L 136.577 34.7708ZM 125.356 10.9873C 122.171 4.23604 113.898 -1 106.42 -1L 106.42 1C 113.126 1 120.693 5.79125 123.547 11.8407L 125.356 10.9873ZM 106.42 -1L 50.0266 -1L 50.0266 1L 106.42 1L 106.42 -1ZM 50.0266 -1C 42.9703 -1 33.7539 2.97168 28.9164 8.09838L 30.3711 9.47097C 34.8302 4.74531 43.52 1 50.0266 1L 50.0266 -1ZM 28.9164 8.09841L 3.75503 34.766L 5.20973 36.1385L 30.3711 9.47095L 28.9164 8.09841ZM 3.75508 34.766C 1.06646 37.6151 -1 42.8121 -1 46.7258L 1 46.7258C 1 43.3232 2.8709 38.617 5.20968 36.1386L 3.75508 34.766ZM -1 46.7258L -1 80.8937L 1 80.8937L 1 46.7258L -1 46.7258ZM -1 80.8937C -1 88.9531 5.57046 95.503 13.6436 95.503L 13.6436 93.503C 6.67023 93.503 1 87.8437 1 80.8937L -1 80.8937ZM 13.6436 95.503L 18.7587 95.503L 18.7587 93.503L 13.6436 93.503L 13.6436 95.503ZM 17.7637 94.6025C 19.1883 108.845 31.2668 120 45.9091 120L 45.9091 118C 32.3016 118 21.0768 107.631 19.7537 94.4035L 17.7637 94.6025ZM 45.9091 120C 60.5518 120 72.6308 108.845 74.0546 94.6025L 72.0645 94.4035C 70.7422 107.631 59.5171 118 45.9091 118L 45.9091 120ZM 73.0596 95.503L 89.6175 95.503L 89.6175 93.503L 73.0596 93.503L 73.0596 95.503ZM 89.6175 95.503C 91.6747 95.503 93.3462 93.8393 93.3462 91.7811L 91.3462 91.7811C 91.3462 92.73 90.5749 93.503 89.6175 93.503L 89.6175 95.503ZM 93.3462 91.7811C 93.3462 89.7238 91.6749 88.0593 89.6175 88.0593L 89.6175 90.0593C 90.5747 90.0593 91.3462 90.8328 91.3462 91.7811L 93.3462 91.7811ZM 89.6175 88.0593L 73.0596 88.0593L 73.0596 90.0593L 89.6175 90.0593L 89.6175 88.0593ZM 74.0546 88.9598C 72.6308 74.7177 60.5518 63.5626 45.9091 63.5626L 45.9091 65.5626C 59.5171 65.5626 70.7422 75.9319 72.0645 89.1588L 74.0546 88.9598ZM 45.9091 63.5626C 31.2668 63.5626 19.1883 74.7178 17.7637 88.9598L 19.7537 89.1588C 21.0768 75.9319 32.3016 65.5626 45.9091 65.5626L 45.9091 63.5626ZM 18.7587 88.0593L 13.6436 88.0593L 13.6436 90.0593L 18.7587 90.0593L 18.7587 88.0593ZM 13.6436 88.0593C 9.67946 88.0593 6.45745 84.8421 6.45745 80.8937L 4.45745 80.8937C 4.45745 85.9515 8.5797 90.0593 13.6436 90.0593L 13.6436 88.0593ZM 6.45745 80.8937L 6.45745 46.7258L 4.45745 46.7258L 4.45745 80.8937L 6.45745 80.8937ZM 6.45745 46.7258C 6.45745 45.7572 6.76951 44.4191 7.29746 43.0912C 7.82538 41.7633 8.51749 40.5754 9.18342 39.8697L 7.72884 38.4971C 6.82521 39.4546 6.01798 40.8958 5.43895 42.3523C 4.85994 43.8087 4.45745 45.4103 4.45745 46.7258L 6.45745 46.7258ZM 9.18348 39.8697L 34.3456 13.2017L 32.8909 11.8292L 7.72879 38.4971L 9.18348 39.8697ZM 34.3456 13.2016C 36.0632 11.3698 38.6767 9.71477 41.5954 8.46037C 44.5116 7.20014 47.5116 6.43603 50.0266 6.4437L 50.0266 4.4437C 47.2643 4.45137 43.8683 5.3064 40.8038 6.62367C 37.7417 7.94677 34.7897 9.82761 32.8908 11.8292L 34.3456 13.2016ZM 50.0266 6.4437L 106.42 6.4437L 106.42 4.4437L 50.0266 4.4437L 50.0266 6.4437ZM 106.42 6.4437C 108.673 6.4437 111.233 7.31072 113.504 8.74793C 115.774 10.1852 117.65 12.1262 118.609 14.1585L 120.418 13.3053C 119.257 10.8448 117.075 8.64163 114.573 7.05803C 112.072 5.47436 109.145 4.4437 106.42 4.4437L 106.42 6.4437ZM 118.609 14.1586L 129.829 37.9421L 131.638 37.0888L 120.418 13.3052L 118.609 14.1586ZM 129.829 37.9421C 131.555 41.5994 135.683 45.2573 139.525 46.5348L 140.156 44.637C 136.832 43.5316 133.13 40.2506 131.638 37.0888L 129.829 37.9421ZM 139.525 46.5348L 149.894 49.9821L 150.525 48.0843L 140.156 44.637L 139.525 46.5348ZM 149.224 48.8622C 149.039 49.9344 148.938 51.068 148.937 52.1695L 150.937 52.1695C 150.936 51.1566 151.022 50.1942 151.195 49.2043L 149.224 48.8622ZM 148.937 52.1695C 148.937 61.8338 156.095 69.8527 165.395 71.2429L 165.69 69.2648C 157.35 68.0181 150.937 60.8236 150.937 52.1695L 148.937 52.1695ZM 164.543 70.2538L 164.543 80.8941L 166.543 80.8941L 166.543 70.2538L 164.543 70.2538ZM 164.543 80.8941C 164.543 85.0271 161.783 88.0597 158.764 88.0597L 158.764 90.0597C 163.22 90.0597 166.543 85.7671 166.543 80.8941L 164.543 80.8941ZM 158.764 88.0597L 152.241 88.0597L 152.241 90.0597L 158.764 90.0597L 158.764 88.0597ZM 153.236 88.9602C 151.812 74.7181 139.733 63.563 125.09 63.563L 125.09 65.563C 138.698 65.563 149.923 75.9323 151.246 89.1592L 153.236 88.9602ZM 125.09 63.563C 109.494 63.563 96.8033 76.2189 96.8033 91.7815L 98.8033 91.7815C 98.8033 77.3282 110.594 65.563 125.09 65.563L 125.09 63.563ZM 96.8033 91.7815C 96.8033 107.345 109.494 120 125.09 120L 125.09 118C 110.594 118 98.8033 106.235 98.8033 91.7815L 96.8033 91.7815ZM 125.09 120C 139.733 120 151.812 108.846 153.236 94.6029L 151.246 94.4038C 149.923 107.631 138.698 118 125.09 118L 125.09 120ZM 152.241 95.5033L 158.764 95.5033L 158.764 93.5033L 152.241 93.5033L 152.241 95.5033ZM 158.764 95.5033C 166.161 95.5033 172 88.8484 172 80.8941L 170 80.8941C 170 87.9492 164.861 93.5033 158.764 93.5033L 158.764 95.5033ZM 172 80.8941L 172 67.7352L 170 67.7352L 170 80.8941L 172 80.8941Z"/>
</defs>
</svg>
