<svg width="414" height="512" viewBox="0 0 414 512" version="1.1" xmlns="http://www.w3.org/2000/svg" xmlns:xlink="http://www.w3.org/1999/xlink">
<title>Page 1.svg</title>
<desc>Created using Figma</desc>
<g id="Canvas" transform="translate(-498 -717)">
<g id="Page 1">
<mask id="mask0_outline" mask-type="alpha">
<g id=" ">
<use xlink:href="#path0_fill" transform="translate(498 717)" fill="#FFFFFF"/>
</g>
</mask>
<g id=" " mask="url(#mask0_outline)">
<use xlink:href="#path0_fill" transform="translate(498 717)" fill="url(#paint1_linear)"/>
</g>
<g id="Page 1" mask="url(#mask0_outline)">
<g id="Fill 244">
<use xlink:href="#path1_fill" transform="translate(770 808)" fill="#FFFFFF"/>
</g>
<g id="Fill 246">
<use xlink:href="#path2_fill" transform="translate(864 744)" fill="#FFFFFF"/>
</g>
<g id="Fill 248">
<use xlink:href="#path3_fill" transform="translate(872 738)" fill="#FFFFFF"/>
</g>
<g id="Fill 250">
<use xlink:href="#path4_fill" transform="translate(799 803)" fill="#FFFFFF"/>
</g>
<g id="Fill 252">
<use xlink:href="#path5_fill" transform="translate(787 804)" fill="#FFFFFF"/>
</g>
<g id="Fill 254">
<use xlink:href="#path6_fill" transform="translate(777 844)" fill="#FFFFFF"/>
</g>
<g id="Fill 256">
<use xlink:href="#path7_fill" transform="translate(793 762)" fill="#FFFFFF"/>
</g>
<g id="Fill 258">
<use xlink:href="#path8_fill" transform="translate(837 739)" fill="#FFFFFF"/>
</g>
<g id="Fill 260">
<use xlink:href="#path9_fill" transform="translate(829 780)" fill="#FFFFFF"/>
</g>
<g id="Fill 300">
<use xlink:href="#path10_fill" transform="translate(541 931)" fill="#FFFFFF"/>
</g>
<g id="Fill 304">
<use xlink:href="#path11_fill" transform="translate(739 885)" fill="#FFFFFF"/>
</g>
<g id="Fill 306">
<use xlink:href="#path12_fill" transform="translate(762 916)" fill="#FFFFFF"/>
</g>
<g id="Fill 308">
<use xlink:href="#path13_fill" transform="translate(726 923)" fill="#FFFFFF"/>
</g>
<g id="Fill 310">
<use xlink:href="#path14_fill" transform="translate(743 912)" fill="#FFFFFF"/>
</g>
<g id="Fill 312">
<use xlink:href="#path15_fill" transform="translate(750 921)" fill="#FFFFFF"/>
</g>
<g id="Fill 314">
<use xlink:href="#path16_fill" transform="translate(753 925)" fill="#FFFFFF"/>
</g>
<g id="Fill 316">
<use xlink:href="#path17_fill" transform="translate(762 923)" fill="#FFFFFF"/>
</g>
<g id="Fill 318">
<use xlink:href="#path18_fill" transform="translate(756 918)" fill="#FFFFFF"/>
</g>
<g id="Fill 320">
<use xlink:href="#path19_fill" transform="translate(750 932)" fill="#FFFFFF"/>
</g>
<g id="Fill 322">
<use xlink:href="#path20_fill" transform="translate(859 1192)" fill="#FFFFFF"/>
</g>
<g id="Fill 324">
<use xlink:href="#path21_fill" transform="translate(705 1032)" fill="#FFFFFF"/>
</g>
<g id="Fill 326">
<use xlink:href="#path22_fill" transform="translate(876 1185)" fill="#FFFFFF"/>
</g>
<g id="Fill 328">
<use xlink:href="#path23_fill" transform="translate(818 1163)" fill="#FFFFFF"/>
</g>
<g id="Fill 330">
<use xlink:href="#path24_fill" transform="translate(661 974)" fill="#FFFFFF"/>
</g>
<g id="Fill 332">
<use xlink:href="#path25_fill" transform="translate(808 942)" fill="#FFFFFF"/>
</g>
<g id="Fill 352">
<use xlink:href="#path26_fill" transform="translate(607 927)" fill="#FFFFFF"/>
</g>
<g id="Fill 354">
<use xlink:href="#path27_fill" transform="translate(607 921)" fill="#FFFFFF"/>
</g>
<g id="Fill 356">
<use xlink:href="#path28_fill" transform="translate(607 917)" fill="#FFFFFF"/>
</g>
<g id="Fill 358">
<use xlink:href="#path29_fill" transform="translate(607 914)" fill="#FFFFFF"/>
</g>
<g id="Fill 360">
<use xlink:href="#path30_fill" transform="translate(612 944)" fill="#FFFFFF"/>
</g>
<g id="Fill 362">
<use xlink:href="#path31_fill" transform="translate(879 1000)" fill="#FFFFFF"/>
</g>
<g id="Fill 366">
<use xlink:href="#path32_fill" transform="translate(892 994)" fill="#FFFFFF"/>
</g>
<g id="Fill 368">
<use xlink:href="#path33_fill" transform="translate(794 980)" fill="#FFFFFF"/>
</g>
<g id="Fill 372">
<use xlink:href="#path34_fill" transform="translate(685 945)" fill="#FFFFFF"/>
</g>
<g id="Fill 374">
<use xlink:href="#path35_fill" transform="translate(618 951)" fill="#FFFFFF"/>
</g>
<g id="Fill 376">
<use xlink:href="#path36_fill" transform="translate(669 1008)" fill="#FFFFFF"/>
</g>
<g id="Fill 378">
<use xlink:href="#path37_fill" transform="translate(667 986)" fill="#FFFFFF"/>
</g>
<g id="Fill 380">
<use xlink:href="#path38_fill" transform="translate(809 1008)" fill="#FFFFFF"/>
</g>
<g id="Fill 382">
<use xlink:href="#path39_fill" transform="translate(777 969)" fill="#FFFFFF"/>
</g>
<g id="Fill 384">
<use xlink:href="#path40_fill" transform="translate(712 1018)" fill="#FFFFFF"/>
</g>
<g id="Fill 386">
<use xlink:href="#path41_fill" transform="translate(721 1018)" fill="#FFFFFF"/>
</g>
<g id="Fill 388">
<use xlink:href="#path42_fill" transform="translate(770 994)" fill="#FFFFFF"/>
</g>
<g id="Fill 390">
<use xlink:href="#path43_fill" transform="translate(816 983)" fill="#FFFFFF"/>
</g>
<g id="Fill 392">
<use xlink:href="#path44_fill" transform="translate(739 1019)" fill="#FFFFFF"/>
</g>
<g id="Fill 394">
<use xlink:href="#path45_fill" transform="translate(778 993)" fill="#FFFFFF"/>
</g>
<g id="Fill 396">
<use xlink:href="#path46_fill" transform="translate(794 1016)" fill="#FFFFFF"/>
</g>
<g id="Fill 398">
<use xlink:href="#path47_fill" transform="translate(733 970)" fill="#FFFFFF"/>
</g>
<g id="Fill 400">
<use xlink:href="#path48_fill" transform="translate(726 1017)" fill="#FFFFFF"/>
</g>
<g id="Fill 402">
<use xlink:href="#path49_fill" transform="translate(733 1025)" fill="#FFFFFF"/>
</g>
<g id="Fill 404">
<use xlink:href="#path50_fill" transform="translate(756 1020)" fill="#FFFFFF"/>
</g>
<g id="Fill 418">
<use xlink:href="#path51_fill" transform="translate(846 683)" fill="#FFFFFF"/>
</g>
<g id="Fill 470">
<use xlink:href="#path52_fill" transform="translate(103 486)" fill="#FFFFFF"/>
</g>
<g id="Fill 472">
<use xlink:href="#path53_fill" transform="translate(684 879)" fill="#FFFFFF"/>
</g>
<g id="Fill 474">
<use xlink:href="#path54_fill" transform="translate(739 852)" fill="#FFFFFF"/>
</g>
</g>
</g>
</g>
<defs>
<linearGradient id="paint1_linear" x1="0" y1="0" x2="1" y2="0" gradientUnits="userSpaceOnUse" gradientTransform="matrix(123.021 -583.547 471.853 152.142 237.35 174.325)">
<stop offset="0" stop-color="#005DFF"/>
<stop offset="1" stop-color="#06E0FF"/>
</linearGradient>
<path id="path0_fill" fill-rule="evenodd" d="M 0 0.707269L 414 0L 414 152.244L 414 456.059L 0 512L 0 0.707269Z"/>
<path id="path1_fill" fill-rule="evenodd" d="M 3 0.244845C 2.88057 -0.125329 1.99819 0.0371271 1.12509 0.02662C 0.415474 0.0169211 -0.514445 0.521263 0.345904 0.912451C 1.20741 1.30606 3 0.244845 3 0.244845Z"/>
<path id="path2_fill" fill-rule="evenodd" d="M 3.3179 0.0491632C 2.60312 0.251264 2.5558 1.22787 1.74394 2.01411C 0.956348 2.77948 -0.0897256 3.9634 0.00614424 4.91002C 0.057113 5.45504 2.02062 3.391 2.95626 2.29574C 3.48052 1.66858 4.70862 1.78462 4.99016 0.581145C 5.13215 -0.0316772 3.69653 -0.0590586 3.3179 0.0491632Z"/>
<path id="path3_fill" fill-rule="evenodd" d="M 5.92638 1.11251C 5.15089 1.4577 4.29706 1.04994 3.31119 1.8072C 1.42338 3.26024 -0.104107 3.93013 0.00555845 4.90853C 0.0704625 5.4727 2.41484 3.26779 4.67194 2.64537C 6.92903 2.02295 7.662 1.45446 7.98093 0.210693C 8.14542 -0.425753 7.22782 0.527838 5.92638 1.11251Z"/>
<path id="path4_fill" fill-rule="evenodd" d="M 12.9274 2.38672C 12.2396 2.03443 12.6915 0.909919 12.1382 0.657953C 11.4799 0.36166 8.56598 -0.219261 8.27459 0.0863642C 7.98201 0.387323 8.22386 1.40219 7.99145 1.5165C 7.15621 1.93295 6.02249 2.0181 5.55768 1.87695C 5.00439 1.70898 4.71182 0.685949 4.34728 0.828263C 3.77748 1.0499 0.520258 3.59055 0 4.62058C 0.12977 5.06385 0.916646 4.30679 1.41685 4.54942C 1.41685 4.54942 2.24619 7.39104 2.51517 8.53188C 2.6355 9.04165 3.71849 9.04165 4.30953 8.95999C 4.59149 8.92383 6.16288 5.03236 7.15267 4.81539C 7.68708 4.69524 9.63245 6.417 10.0878 6.36101C 10.673 6.28985 13.4842 2.67251 12.9274 2.38672Z"/>
<path id="path5_fill" fill-rule="evenodd" d="M 0.311005 2.68039C -0.736979 3.71541 1.19154 4.32814 1.28836 5.01184C 1.32937 5.31465 0.246075 4.5032 0.213041 5.10055C 0.193676 5.42821 0.684634 7.08423 0.735894 7.48168C 0.819049 8.14645 1.48087 6.85594 1.95361 6.91508C 2.48785 6.98014 3.02096 7.95956 3.41623 7.08778C 3.67253 6.51409 2.53797 6.29289 2.66327 5.89899C 2.93894 5.06625 3.09044 3.99811 3.31826 4.3033C 3.67822 4.77881 4.47674 5.43885 4.51775 6.91035C 4.56445 8.43507 3.4037 10.0225 2.87629 10.5087C 1.36924 11.8997 1.93538 15.6045 3.45154 15.8304C 4.29562 15.9546 3.67822 11.0362 4.84923 12.9501C 6.02024 14.864 3.2522 17.587 4.08717 16.8879C 4.92441 16.1971 6.70827 16.6501 7.62981 14.7871C 8.25404 13.5202 7.55918 13.2553 8.39757 11.8642C 9.23254 10.4755 10.9788 6.52355 10.9993 5.96405C 11.0289 5.16916 10.1051 4.60256 9.51618 4.2962C 8.95118 4.00048 10.383 2.69814 9.98208 2.18713C 9.67338 1.78969 8.21645 2.56802 7.63323 2.11025C 6.29591 1.06577 7.16049 0 5.98948 0C 4.81962 0 1.12547 1.87722 0.311005 2.68039Z"/>
<path id="path6_fill" fill-rule="evenodd" d="M 2.07471 2.01439C 2.83896 1.41841 3.95525 1.43131 3.99954 0.321902C 4.02793 -0.35535 2.7379 0.168392 1.92254 0.681813C 1.35701 1.04043 1.16396 1.39261 0.797166 1.87507C 0.283878 2.55619 -0.262343 3.38437 0.138522 3.85264C 0.717674 4.53119 1.21734 2.6839 2.07471 2.01439Z"/>
<path id="path7_fill" fill-rule="evenodd" d="M 21.5191 33.1485C 20.9975 33.2244 20.1258 33.6511 19.5459 33.7495C 17.8513 34.0387 12.2054 33.7649 11.7815 33.7898C 10.9217 33.8372 9.71774 34.4168 9.39026 34.3776C 9.06992 34.3409 4.51371 38.3459 3.50863 39.0132C 1.96767 40.0385 0.145663 39.1258 0.1147 40.0954C 0.10041 40.5517 -0.398557 42.0665 0.803014 42.4564C 1.61518 42.7195 5.30325 43.5492 5.8951 43.5492C 7.31222 43.554 6.85731 41.1929 7.16336 41.0732C 8.12676 40.6904 8.17082 41.379 9.09135 41.4454C 9.84873 41.5011 13.5606 40.9049 15.6601 39.8571C 16.7652 39.3095 21.6025 39.0594 21.8502 39.5573C 22.0431 40.3466 21.1237 40.963 20.5664 41.7488C 20.1222 42.3782 22.9398 46.8324 23.5983 46.9758C 24.632 47.2034 25.1167 45.774 25.7216 44.7926C 26.641 43.3086 28.9834 41.987 28.9619 41.4371C 28.9333 40.6003 27.5424 40.4462 27.6079 39.703C 27.6937 38.7584 28.0545 37.7545 28.8047 37.7284C 29.1548 37.7189 29.0572 39.8216 29.4978 39.8429C 29.6883 39.8524 34.5423 40.5315 35.7557 40.4592C 36.2476 40.4308 36.8132 37.9311 37.1979 37.649C 37.6742 37.3017 38.7912 37.7023 38.1958 38.11C 37.8314 38.3578 38.1922 40.3289 38.6352 40.4746C 39.4069 40.7224 40.0154 37.5542 40.1738 37.1618C 40.4191 36.5514 41.1634 36.2539 41.4766 36.4092C 41.9387 36.6415 42.465 37.4913 42.571 37.4712C 42.7913 37.4297 42.8187 35.4859 42.8187 35.0438C 42.8187 34.271 43.4701 33.8585 44.006 34.3362C 45.0456 35.2583 42.8318 38.6896 43.7809 38.7856C 45.6791 38.9717 48.2871 34.3682 48.2895 34.1098C 48.2978 33.3073 46.9259 32.1209 47.3082 30.6725C 47.7643 28.9503 48.4371 28.6338 48.867 26.671C 49.5018 23.7589 48.4217 19.3508 49.6089 18.4216C 50.0055 18.1099 50.7938 18.827 51.0582 18.4749C 51.4714 17.9214 52.8481 13.2847 52.954 12.5474C 53.1291 11.3266 52.7718 8.82214 52.4241 8.1252C 52.0728 7.42708 51.3881 6.05928 50.7355 5.28293C 49.6852 4.02655 50.8165 0.860709 50.3556 0.761147C 49.784 0.635509 48.3431 -0.169286 47.7941 0.0322086C 47.2487 0.23726 47.2987 1.35734 47.6488 1.96656C 47.931 2.45726 49.0826 1.65958 49.079 2.06257C 49.0742 2.36363 49.1814 3.16605 48.7241 3.59275C 48.268 4.01826 47.3058 3.99929 47.0962 3.73735C 46.658 3.19213 47.1093 2.43 46.7771 1.96656C 46.5794 1.68921 45.9983 1.51735 45.4767 1.64654C 44.6538 1.85041 45.1623 3.12931 44.8777 4.17827C 44.6764 4.9155 43.7214 4.62867 43.7702 5.36235C 43.7976 5.78667 43.8321 7.07506 43.8655 8.44522C 43.8726 8.70361 43.2688 8.96437 43.2748 9.22157C 43.2784 9.41833 43.8928 9.61389 43.8976 9.80472C 43.9226 11.0801 43.9417 12.193 43.9417 12.4716C 43.9417 13.3238 41.5921 19.6353 41.1658 20.1308C 40.593 20.7909 39.401 20.9557 38.7579 21.6835C 36.5 24.2413 34.1588 27.3692 32.5238 26.2811C 32.1594 26.0393 31.1841 27.9298 30.8673 27.6074C 30.5481 27.2909 30.0432 25.9006 30.3088 25.1029C 30.6184 24.1772 31.7295 23.8383 31.5592 23.3665C 31.3984 22.9078 28.8024 23.8229 28.713 24.6217C 28.6047 25.5877 28.6535 26.3842 28.7214 27.0634C 28.8083 27.9535 26.4147 29.9127 25.4656 31.3244C 24.7677 32.3615 25.7669 33.2042 25.2572 33.6155C 24.3045 34.3741 21.743 34.6313 21.5262 34.3338C 21.3059 34.0387 22.0788 33.0703 21.5191 33.1485Z"/>
<path id="path8_fill" fill-rule="evenodd" d="M 0.0331216 17.6965C 0.560389 19.2691 0.673033 24.0225 1.70959 23.9999C 2.37107 23.9857 2.67066 22.5662 3.434 22.019C 4.10506 21.5336 5.70963 22.0095 5.98525 21.7033C 6.83487 20.755 2.61913 19.4685 2.79768 18.3303C 2.84082 18.049 3.434 17.0864 4.25486 17.0912C 5.41365 17.0995 5.2315 19.091 5.49513 18.9356C 6.51492 18.3303 8.00085 16.5381 9.37534 17.1826C 11.5084 18.119 15.1513 21.0707 15.784 20.9912C 16.6337 20.8868 19.9015 14.7471 21.0963 14.9228C 23.5888 15.2895 23.4833 14.3614 24.3629 14.5335C 25.2413 14.7091 28.623 12.5752 27.8992 12.5111C 27.481 12.4766 26.5427 12.9075 25.9028 12.612C 25.0292 12.206 24.5259 10.961 24.8926 10.1053C 25.3587 9.03118 26.2143 6.51028 25.5601 6.75834C 24.7859 7.0503 23.1131 9.28636 21.8129 8.94691C 20.4252 8.58611 11.6426 0.300604 10.7283 0.0478015C 10.1279 -0.120733 9.21836 0.129695 9.15005 1.22873C 9.09733 2.05479 8.37234 9.22345 7.6078 9.9332C 6.96909 10.5254 7.55627 12.8339 7.13925 13.3478C 6.73901 13.8451 4.20333 12.0126 3.27222 12.3663C 2.39504 12.7033 3.3609 14.2356 2.79768 14.9584C 1.85579 16.1571 -0.291627 16.7304 0.0331216 17.6965Z"/>
<path id="path9_fill" fill-rule="evenodd" d="M 1.21702 0.0496221C 0.773188 0.270343 -0.349846 1.14071 0.107437 1.72323C 0.436951 2.14419 -0.235525 2.56402 0.100713 2.85528C 0.598345 3.28648 1.24392 2.63456 1.50888 2.44911C 2.57273 1.70048 1.56402 1.62197 1.64875 1.21239C 1.7819 0.57298 1.72676 -0.205231 1.21702 0.0496221Z"/>
<path id="path10_fill" fill-rule="evenodd" d="M 9.76238 5.71138C 8.65328 3.56703 5.94254 1.54916 3.07424 0.147304C 0.888281 -0.914918 0.202222 4.04368 0.0186115 6.17749C -0.162518 8.31131 1.04708 11.1291 0.681099 13.264C 0.681099 15.5759 2.70826 18.1055 4.63989 18.8492C 6.41893 19.5261 9.88768 17.746 11.5303 17.0328C 13.1666 16.3207 13.4358 12.0753 12.3416 10.4697C 11.2474 8.87228 11.1891 8.49049 9.76238 5.71138Z"/>
<path id="path11_fill" fill-rule="evenodd" d="M 2.21675 20.6604C 2.42804 21.5582 3.97209 19.8472 4.66052 20.733C 5.48131 21.7796 2.29337 24.2252 5.48131 25.3706C 6.9557 25.9029 8.61584 24.0693 10.1123 24.8622C 10.673 25.1575 11.8107 27.3245 12.5328 27.3912C 13.2561 27.4591 13.5603 25.4266 14.3822 26.0172C 16.7238 27.7139 19.2001 31.2049 20 30.9906C 19.661 27.0173 18.9296 25.4969 18.4327 24.7694C 17.3275 23.1322 17.2706 24.8325 15.8833 24.3348C 14.8965 23.9847 13.9654 22.4023 12.9705 22.4023C 12.1579 22.4023 11.0526 24.4086 10.2226 23.8966C 8.60771 22.9048 7.55242 18.7827 8.36856 16.6955C 9.06977 14.8952 11.8769 10.797 12.1555 8.7026C 12.3831 6.9821 11.9582 3.51013 10.9354 0.619209C 10.6161 -0.286883 9.30428 1.44791 8.2455 1.39076C 7.35622 1.34432 4.72902 -1.42158 3.22096 0.977598C 2.29337 2.45044 3.0712 9.73728 2.26435 12.6211C 1.99385 13.5807 0.875865 12.1222 0.338351 12.327C -0.793564 12.7628 1.1928 16.3193 2.21675 20.6604Z"/>
<path id="path12_fill" fill-rule="evenodd" d="M 6.22658 8C 7.18477 7.91172 7.43434 2.69766 5.91494 1.3569C 4.39297 0.0194485 0.110221 -0.787214 0.00160075 1.16599C -0.0488301 2.06314 1.10332 2.43392 1.90504 3.6555C 3.16711 5.5767 5.05633 7.17347 6.22658 8Z"/>
<path id="path13_fill" fill-rule="evenodd" d="M 10.6978 0.0008859C 10.3634 0.0404726 9.32955 3.25419 7.36731 5.86691C 4.3633 9.86637 0.0964851 13.9342 0.00806532 14.6336C -0.190312 16.1954 3.32267 12.3267 4.83034 11.2279C 6.84586 9.75721 8.27758 6.77981 9.94055 5.68578C 11.0016 4.55695 11.2884 -0.0734891 10.6978 0.0008859Z"/>
<path id="path14_fill" fill-rule="evenodd" d="M 0.122401 0.601805C -0.656398 1.86039 2.48569 4.98094 3.77799 5.9885C 5.84541 6.23952 4.88444 2.30947 3.8489 1.30191C 2.81458 0.295507 0.901199 -0.656779 0.122401 0.601805Z"/>
<path id="path15_fill" fill-rule="evenodd" d="M 2.79933 1.47631C 1.8889 0.328178 1.24796 -0.744025 0.564064 0.686888C -0.117682 2.1178 -0.336699 5.85022 0.799185 6.99442C 1.93077 7.17378 5.24824 2.97399 4.98521 1.83371C 4.83275 1.14902 3.13859 1.90179 2.79933 1.47631Z"/>
<path id="path16_fill" fill-rule="evenodd" d="M 0.000569757 6.17078C 0.0251868 7.37454 1.0195 8.43697 1.61459 8.98114C 4.12874 9.33567 2.37879 4.59245 3.22969 3.1484C 4.2529 1.39929 4.36742 -0.307427 2.89468 0.0471077C 1.78156 0.315659 -0.036891 4.18845 0.000569757 6.17078Z"/>
<path id="path17_fill" fill-rule="evenodd" d="M 0.138668 0.460751C -0.755156 1.76719 2.94157 6.61641 3.53746 6.99292C 4.34515 7.17102 3.88341 3.94378 3.72102 2.37677C 3.56711 0.901807 1.03532 -0.849268 0.138668 0.460751Z"/>
<path id="path18_fill" fill-rule="evenodd" d="M 3.44405 2.98664C 4.14744 3.15034 4.28935 1.77375 3.24414 0.812443C 2.20017 -0.147764 0.895815 -0.387266 0.110983 0.812443C -0.671381 2.01325 2.92083 2.64387 3.44405 2.98664Z"/>
<path id="path19_fill" fill-rule="evenodd" d="M 10.2242 8.11541C 8.93706 8.75264 9.36852 5.75249 8.38267 5.58208C 7.25941 5.39007 6.17111 5.04925 5.20092 6.68494C 4.3404 8.14061 2.15777 8.17301 1.32498 9.37427C 0.139054 11.0808 -0.520194 13.1845 0.512668 14.5741C 1.02609 15.2582 2.52898 12.1836 3.49314 10.974C 4.77428 10.0943 4.85141 11.7732 5.71313 11.472C 6.55316 11.1816 7.1859 10.3415 8.26697 10.1963C 9.71201 10.0031 11.515 10.6583 11.38 11.8488C 11.2028 13.4437 9.28778 16.0994 10.0989 17.2947C 10.8545 18.4107 13.0637 18.4215 14.5774 18.9292C 15.8803 19.3684 16.5347 20.4424 16.8468 19.8004C 17.394 18.6723 18.8499 18.2319 18.2762 17.4363C 17.6736 16.5926 16.9866 16.1534 17.7676 14.7733C 18.5305 13.4269 19.1873 12.6996 19.8514 12.3072C 20.6252 11.8548 19.99 16.7894 20.9831 16.7894C 21.6556 16.7894 23.2248 14.3353 22.9729 11.5212C 22.7728 9.28667 21.2555 8.03261 21.9834 6.68494C 22.5173 5.69729 21.8545 3.36317 21.0277 2.82914C 20.319 2.37312 18.3714 -0.19141 17.6109 0.0113999C 16.6817 0.259812 17.8544 3.19276 17.1385 4.22001C 16.1008 5.71529 14.1122 2.94915 13.682 4.33042C 13.4903 4.94365 11.7127 7.37497 10.2242 8.11541Z"/>
<path id="path20_fill" fill-rule="evenodd" d="M 19.7452 0.617252C 18.6356 -0.191907 16.1351 0.91524 13.625 1.41463C 12.7395 1.58777 9.98746 1.87163 8.33673 1.60191C 5.91486 1.21323 3.05678 0.027167 0.899504 7.72651e-05C -0.878755 -0.0211234 0.255899 4.32501 1.91378 7.58521C 2.48945 8.71709 3.88989 9.41789 4.21169 10.174C 5.41786 13.0114 7.62399 15.2799 8.80632 17.1326C 9.6442 18.4541 12.19 18.1384 13.2496 17.0384C 13.9349 16.3258 14.0112 14.9736 14.569 14.5308C 15.9956 13.3977 16.2578 17.1326 17.843 14.87C 18.7524 13.5709 16.8371 9.90315 17.5904 9.13168C 17.9968 8.71591 20.1088 7.01279 20.4246 6.23543C 21.1934 4.36859 21.3924 1.81745 19.7452 0.617252Z"/>
<path id="path21_fill" fill-rule="evenodd" d="M 192.206 71.5006C 190.788 68.5851 189.456 68.7608 187.132 65.7112C 186.33 64.4267 186.646 60.8429 185.413 57.7909C 184.862 56.4388 182.905 55.177 182.297 54.2914C 181.484 53.1043 180.958 57.049 180.035 56.9184C 179.511 56.8424 178.662 53.1518 178.051 52.2199C 174.701 47.0573 171.247 44.1347 169.847 42.3303C 169.026 41.2738 163.771 39.384 163.413 37.7161C 163.155 36.5314 161.377 32.2591 161.637 30.6661C 161.921 28.9139 160.332 25.545 159.373 22.4977C 158.876 20.9153 156.873 19.8268 156.092 19.1418C 154.784 17.988 153.103 20.9676 152.291 20.0096C 149.84 17.125 150.522 12.4313 150.316 11.7036C 150.105 10.9486 148.524 9.38401 148.051 7.91202C 146.968 4.51459 146.516 1.58011 145.502 0.325366C 144.156 -1.34724 142.29 3.91986 141.542 4.99417C 140.026 7.17603 138.915 12.2235 140.042 15.2197C 140.693 16.954 139.735 24.4172 138.775 29.365C 138.538 30.5901 138.328 32.1368 137.649 33.2539C 136.967 34.3721 133.465 35.2245 131.354 34.7472C 128.679 34.1442 129.714 31.9683 127.391 30.6661C 126.594 30.6661 124.633 30.526 123.383 29.879C 120.659 28.4735 115.397 24.9016 113.241 23.6634C 111.331 22.5725 110.894 22.0086 111.165 20.7254C 111.339 19.8885 112.383 17.5796 112.957 15.7871C 113.56 13.8949 115.615 11.5433 116.352 10.247C 117.092 8.94597 115.057 7.12142 114.089 6.45191C 112.929 5.65419 111.55 8.70737 110.268 8.4747C 107.665 8.00105 107.357 7.82299 104.777 7.82299C 102.645 7.82299 101.656 5.51055 99.3712 3.82608C 97.5317 2.47399 94.2147 1.554 93.7099 2.36834C 93.8408 3.36549 96.0768 4.98705 95.6136 5.5426C 95.1005 6.16226 95.8041 7.30898 95.1255 7.62C 93.0896 8.56017 89.2915 7.7114 88.3343 8.20048C 86.6353 9.07893 85.2185 11.2881 85.2185 13.4557C 85.2185 13.9507 83.735 14.0196 83.2338 15.0547C 82.6837 16.186 81.955 17.4123 81.3157 18.2456C 80.6466 19.1145 82.3599 21.8591 82.1063 22.7886C 81.8527 23.7157 77.4248 20.8073 77.1486 21.2798C 76.8164 21.8508 72.8827 22.2567 73.0481 21.6205C 73.8339 18.6231 73.272 18.2503 72.079 17.0146C 70.8896 15.7895 67.2654 13.8023 65.3509 14.5906C 64.1639 15.0784 60.5349 18.8902 59.7467 20.1627C 58.368 22.3933 58.6847 23.3334 57.7477 24.8375C 57.3834 25.4263 58.5787 28.6611 57.5834 29.2427C 56.5869 29.8292 54.9045 28.2491 54.139 28.4889C 52.8984 28.87 52.5138 32.6366 51.8637 32.9761C 50.6791 33.5863 50.4041 27.1618 49.2766 27.1618C 47.8431 27.1618 45.3773 30.7123 45.0297 33.5803C 44.9523 34.2154 46.225 36.8484 46.1608 37.3731C 45.8119 40.2577 41.771 43.0141 40.372 44.8197C 38.2694 44.4576 35.1239 46.4151 31.1615 47.5832C 26.4396 48.9756 22.0737 50.8595 19.2746 50.4975C 18.0411 50.342 16.1695 53.0402 14.4621 54.2914C 12.2952 55.8833 11.4785 53.889 10.5022 54.2914C 9.58423 54.6689 6.47438 55.3503 4.83968 57.2057C 4.28605 57.8384 5.01232 59.5015 4.55751 60.1247C 3.78004 61.1812 1.72863 57.842 1.72863 59.251C 1.72863 62.7648 4.49202 72.322 5.96956 76.4614C 6.44342 77.7743 0.296337 74.9075 0.0308325 75.8785C -0.538276 77.9203 6.94348 87.2128 8.23647 89.8766C 9.89974 93.3049 10.1021 96.2679 9.75211 98.7928C 9.40207 101.315 12.8143 102.402 14.7443 107.38C 15.3134 108.837 14.4943 113.466 13.0489 116.713C 12.3357 118.311 10.5022 118.733 10.5022 119.923C 10.5022 122.254 13.9823 126.814 17.8589 127.215C 19.9294 127.429 26.9528 126.382 28.0469 126.632C 31.1984 127.354 35.6561 118.757 38.8028 118.757C 41.9508 118.757 52.8305 121.645 53.4651 119.905C 53.9925 118.449 55.126 114.331 57.2 113.798C 60.0325 113.066 66.1772 112.251 67.3892 110.589C 69.4894 107.707 80.3156 107.633 83.2397 107.088C 87.8843 106.217 96.1387 108.625 98.2389 109.714C 98.9712 110.091 101.818 110.666 103.334 111.756C 106.153 113.78 108.057 116.879 109.196 118.754C 110.59 121.054 109.633 123.447 111.259 125.177C 112.236 126.211 114.382 124.155 115.692 122.125C 119.191 116.72 122.727 117.133 122.03 119.296C 121.364 121.345 120.342 123.203 119.565 124.697C 118.997 125.786 116.994 126.871 116.922 127.507C 116.831 128.259 118.819 128.457 120.132 128.374C 122.097 128.25 124.038 122.309 125.788 123.811C 126.918 124.785 125.408 127.702 124.844 129.45C 124.647 130.061 128.024 129.252 128.502 129.779C 130.23 131.674 132.018 133.749 132.271 134.097C 133.319 135.541 131.07 138.396 131.637 139.564C 133.078 142.539 133.878 144.499 138.775 145.583C 143.672 146.663 148.181 149.686 151.733 146.757C 152.901 145.798 155.407 143.882 157.106 143.432C 158.188 143.147 158.897 145.101 160.318 146.563C 160.975 147.242 163.752 147.851 166.732 147.149C 168.889 146.639 171.151 145.095 172.768 144.036C 173.534 143.536 173.183 142.227 173.904 141.898C 176.802 140.554 180.327 141.204 181.45 139.759C 182.191 138.803 183.498 133.747 183.9 131.006C 184.267 128.567 186.435 124.861 187.676 123.422C 189.184 121.673 189.376 114.672 190.882 113.506C 191.33 113.16 193.578 112.823 193.903 111.948C 194.847 109.421 195.037 106.116 195.717 103.571C 196.576 100.365 199.113 95.634 198.996 93.0889C 198.876 90.4191 197.248 85.742 197.015 82.5844C 196.849 80.3372 193.357 73.8783 192.206 71.5006Z"/>
<path id="path22_fill" fill-rule="evenodd" d="M 0.682371 0C -0.833985 0 0.439754 4.13094 1.94729 3.9968C 4.29626 3.78991 2.19321 0 0.682371 0Z"/>
<path id="path23_fill" fill-rule="evenodd" d="M 7.3252 0.958418C 6.42738 0.245803 4.83286 -0.567373 3.34129 0.553692C 1.59235 0.348846 -0.868863 1.0925 0.306676 3.50099C 0.659817 4.22974 4.60901 4.19746 8.393 3.1571C 9.88576 2.74492 8.27209 1.70579 7.3252 0.958418Z"/>
<path id="path24_fill" fill-rule="evenodd" d="M 0.916219 0.0134391C -0.324091 -0.131041 -0.345931 0.935701 1.10129 0.997506C 2.40252 1.05289 2.24734 0.169156 0.916219 0.0134391Z"/>
<path id="path25_fill" fill-rule="evenodd" d="M 0.372307 2.75429C 1.38002 3.78985 2.63675 1.28174 1.62904 0.246187C 0.618998 -0.790528 -0.637732 1.71758 0.372307 2.75429Z"/>
<path id="path26_fill" fill-rule="evenodd" d="M 0.469377 0.000367829C -0.171399 -0.0336613 -0.171399 2.30556 0.563892 1.96637C 1.20787 1.66669 1.10695 0.0322015 0.469377 0.000367829Z"/>
<path id="path27_fill" fill-rule="evenodd" d="M 0.56444 2.97361C 1.20719 2.66429 1.10781 0.0333954 0.468268 0.000295168C -0.171277 -0.0362292 -0.171277 3.32972 0.56444 2.97361Z"/>
<path id="path28_fill" fill-rule="evenodd" d="M 0.56444 1.96677C 1.20719 1.66955 1.10781 0.0353965 0.468268 0.000300507C -0.171277 -0.0304085 -0.171277 2.30347 0.56444 1.96677Z"/>
<path id="path29_fill" fill-rule="evenodd" d="M 0.469484 0.000392121C -0.171315 -0.0347936 -0.171315 2.31055 0.563201 1.96529C 1.208 1.67171 1.10708 0.0344783 0.469484 0.000392121Z"/>
<path id="path30_fill" fill-rule="evenodd" d="M 0.930001 0C -0.994724 0 0.411806 4.94939 2.0468 3.83715C 3.86049 2.60819 2.86111 0 0.930001 0Z"/>
<path id="path31_fill" fill-rule="evenodd" d="M 8.24236 4.54969C 6.80621 4.82899 7.32537 5.90576 6.44105 5.90576C 4.87891 5.90576 -0.557657 6.26835 0.0466659 7.0303C 0.321994 7.37819 0.377993 7.88901 1.31248 8.31041C 3.45444 9.2855 7.36037 10.1381 8.79885 9.98129C 12.2218 9.61135 13.7233 8.31041 14.9646 7.74936C 16.0951 7.23854 17.145 6.10665 17.397 4.99926C 17.5289 4.41862 16.9035 3.9372 17.117 3.34553C 17.404 2.55419 19 1.82654 19 1.241C 19 0.0539852 17.1765 -0.449485 16.0099 0.486406C 15.3367 1.01928 15.3472 2.83471 14.8561 3.21691C 13.5156 4.27285 11.3293 5.06296 9.20834 5.57256C 8.79418 5.67301 8.64602 4.47252 8.24236 4.54969Z"/>
<path id="path32_fill" fill-rule="evenodd" d="M 10.3692 9C 10.7293 7.38095 11.3612 5.77237 10.7341 4.60027C 10.3263 3.83323 8.93131 3.35601 8.13603 2.81128C 6.9771 2.01398 2.37357 -0.693368 0.104598 0.16679C -0.906485 0.546238 5.71683 3.19422 6.87933 3.98454C 8.56527 5.12987 8.53427 6.51031 10.3692 9Z"/>
<path id="path33_fill" fill-rule="evenodd" d="M 73.392 26.1071C 72.7491 25.7278 72.8922 24.458 73.3896 23.4222C 73.8166 22.5388 69.5407 20.1935 65.8468 17.4726C 63.6855 15.8799 59.3714 15.611 57.017 14.6316C 54.5611 13.6138 51.1666 11.5626 48.372 10.6564C 47.5765 10.3948 45.5488 10.264 44.894 10.1511C 44.046 10.0035 41.9098 9.36739 39.3645 8.09394C 36.7429 6.78449 34.5459 4.69608 32.7938 5.51944C 31.7632 5.99953 32.2761 7.79028 31.7108 8.08554C 31.0631 8.42401 27.436 9.31218 26.7478 9.4142C 25.7554 9.56063 24.0558 14.2824 23.0623 14.5764C 22.3609 14.7853 20.9571 15.2209 20.0089 15.287C 19.3374 15.3338 18.6503 11.8795 17.8166 10.8881C 17.0783 10.0107 16.8243 12.8049 16.5392 12.2192C 16.0967 11.2902 16.6788 7.47822 16.8243 5.87711C 16.8708 5.36221 15.9738 4.18718 15.9738 3.8103C 15.9738 3.36982 16.4104 2.83211 16.2589 2.48044C 15.9178 1.71349 14.5784 2.89092 12.9145 1.79631C 11.5584 0.905731 9.84916 0.172387 7.91932 0.0175565C 6.04196 -0.137274 5.182 0.730497 3.97138 2.67968C 0.796324 3.00254 -0.410722 5.66347 0.121237 6.12076C 0.520802 6.46522 2.88122 5.69587 3.73522 6.13516C 4.58683 6.57565 4.59876 7.92351 4.67628 8.76007C 4.83015 10.444 8.26521 9.72866 12.2561 9.87029C 13.7005 9.9219 13.7577 10.7813 12.3265 11.2026C 9.79311 11.9491 4.19084 12.5696 4.72161 13.7951C 4.99951 14.4396 7.80124 14.6748 8.30577 15.4886C 9.18839 16.9181 8.46559 19.4242 10.1664 19.2981C 12.1464 19.1457 12.961 14.3916 14.1168 13.9355C 14.7262 13.6918 13.5574 15.6626 14.3338 17.1425C 15.0304 18.4628 18.3689 21.8462 19.8013 22.2411C 21.9292 22.8328 27.8439 24.2239 29.565 24.4015C 31.2885 24.5816 35.5299 26.652 35.5382 28.5844C 35.5478 31.0809 37.548 33.3121 39.819 35.1281C 40.1887 35.4233 38.1074 36.5335 35.8066 36.8348C 33.4665 37.1457 33.2685 40.5279 32.8451 42.4471C 34.9705 42.1506 36.1752 40.5963 40.0134 40.6083C 43.1228 40.6143 44.4086 40.3083 44.894 40.5279C 45.6025 40.8544 47.6159 42.201 48.4054 42.9236C 49.4407 43.8682 50.4438 44.82 51.1463 44.868C 52.3808 44.958 55.9018 45.5557 58.2312 45.6361C 59.5265 45.6853 61.0019 43.5561 60.2409 41.4257C 59.8151 40.2483 64.7888 37.1048 66.5612 37.1673C 70.5533 37.3101 72.3352 38.7744 74.3116 39.887C 76.2879 40.9996 76.2569 43.861 77.7634 44.9712C 79.2638 46.079 81.9284 49.2992 83.2452 49.9342C 84.5643 50.5703 88.7639 50.1322 91.1088 50.9988C 92.1942 51.3985 91.9223 51.7729 92.9564 52.4739C 93.6029 52.918 94.9149 52.96 95.1164 52.984C 96.3891 53.1472 98.0971 52.0274 97.9957 51.2904C 97.9444 50.9124 94.6644 50.2486 94.3543 49.7133C 94.1789 49.4121 94.4246 48.4015 93.802 47.7545C 93.1329 47.0536 91.5645 46.7091 90.5578 46.2038C 89.7754 45.8114 91.5311 44.6651 90.8107 44.2066C 89.5989 43.4385 88.7365 44.6075 88.1306 44.0662C 86.518 42.6235 84.9138 39.8714 83.6209 38.7852C 82.8635 38.1491 79.828 35.0536 80.0176 33.5365C 80.1536 32.4587 83.5541 33.7106 83.5994 32.4191C 83.6209 31.7266 83.8809 30.0187 83.0281 29.4701C 81.8616 28.7152 79.2316 28.5508 77.9041 27.7034C 76.6219 26.8884 74.4607 26.7444 73.392 26.1071Z"/>
<path id="path34_fill" fill-rule="evenodd" d="M 0.00142043 30.3034C 0.0379909 32.1911 1.33447 34.24 1.49963 35.2253C 1.9314 37.7308 3.43787 38.1944 4.29786 39.5319C 5.13191 40.8362 4.49016 43.3736 6.48148 47.4584C 8.89985 48.0098 12.2054 47.8936 14.1318 49.0982C 15.9414 50.2318 18.4035 50.3753 19.7896 49.6532C 21.1769 48.9311 22.753 50.0148 24.8906 50.7345C 27.2217 51.5242 26.3452 54 27.4836 54C 29.1658 54 35.6695 51.708 36.0139 48.4686C 36.3631 45.2269 37.8979 44.4478 37.577 43.7056C 36.8704 42.061 35.404 41.729 36.4551 40.7923C 37.7646 39.6232 40.4189 37.828 41.503 37.4901C 42.4102 37.2079 40.9545 28.7608 42.8137 28.9446C 43.4731 29.0074 46.1994 30.0165 46.9261 29.5268C 47.6551 29.0371 47.5855 27.7802 47.398 27.1411C 47.109 26.157 41.1609 23.9385 42.0658 23.3112C 42.481 23.0255 44.2623 22.4433 44.4971 21.7544C 44.6658 21.254 42.8514 19.6912 42.4385 19.428C 41.0382 18.528 40.518 17.1858 41.1043 16.0392C 41.5408 15.1879 43.6418 15.3835 43.4495 14.9816C 43.1511 14.3674 41.9891 13.0275 42.8845 12.5627C 44.0795 11.9378 47.9807 11.9058 47.2776 11.1493C 46.5521 10.3667 45.7889 9.38496 46.3657 8.93558C 47.3284 8.1862 50.1066 9.51895 49.9968 7.56133C 49.9213 6.21198 46.4082 5.66062 45.3901 5.05709C 44.8817 4.75355 42.5931 4.43933 42.0658 3.8856C 41.5384 3.33306 42.7712 2.53981 42.6261 2.17224C 42.1165 0.917746 40.7587 0 39.2604 0C 38.3261 0 36.8126 0.661631 36.4115 1.91256C 35.7166 4.07176 31.2633 5.84559 31.0356 7.38228C 30.9412 8.00242 31.4344 8.66286 30.5732 9.16323C 29.4725 9.80234 27.9189 10.2873 26.3605 10.4889C 24.9755 10.6691 24.0601 11.1244 23.3653 11.7552C 22.6633 12.3872 22.182 13.1959 21.6618 14.0994C 20.6213 15.9017 20.7239 17.1313 18.2997 18.215C 15.873 19.2928 13.4594 19.1494 11.4043 20.9813C 10.0949 22.1421 11.8715 25.0104 10.1373 26.0917C 8.40438 27.1707 4.22236 23.1796 2.20273 24.7483C 1.26959 25.4775 -0.0493064 27.8229 0.00142043 30.3034Z"/>
<path id="path35_fill" fill-rule="evenodd" d="M 51.1555 55.5929C 51.1555 53.7663 50.8722 49.7389 51.2191 47.5441C 51.4556 46.0304 52.5923 43.8681 51.5996 42.2196C 51.1507 41.4808 48.0742 41.2101 47.414 40.6445C 47.0143 40.3016 46.5486 36.1454 45.5127 35.32C 45.2726 35.1323 40.6573 32.3142 40.3752 30.9858C 40.2276 30.2987 42.0161 29.7873 41.8973 29.2121C 41.5323 27.4529 41.1278 27.2375 40.7569 26.6491C 39.9215 25.3243 37.7489 27.1774 37.3299 26.4518C 36.8834 25.6733 37.2651 24.0597 36.3817 23.4953C 34.2835 22.1609 33.3592 22.8612 31.0617 21.0924C 30.1075 20.3535 30.4112 19.0179 29.6285 18.3284C 28.8099 17.6052 27.5868 18.9349 26.1439 17.3153C 25.3337 16.4092 22.3064 13.5321 21.3534 12.6513C 19.6393 11.0762 16.6936 9.86572 15.9806 8.75389C 14.4682 6.38823 13.5775 3.7001 11.1624 3.3343C 10.2814 3.20434 9.11106 3.54969 7.84709 2.99497C 5.63606 2.02513 3.10213 0 1.12157 0C -1.98732 0 2.2715 5.01769 3.04332 6.46524C 4.07801 8.40253 8.03435 11.4733 9.55758 11.8511C 12.6149 12.6128 16.4043 18.7652 15.8354 19.7507C 15.4549 20.3427 18.4989 27.0426 19.6393 27.637C 21.9223 28.424 23.2895 31.5898 23.634 32.3671C 25.3481 36.2104 27.037 40.9899 28.9143 42.3664C 30.4448 43.4891 31.818 45.1135 33.19 47.0532C 34.6988 49.1878 36.5929 50.6582 38.1618 52.0938C 39.7642 53.5654 40.8469 53.6833 42.9608 55.9743C 44.1179 57.2294 46.8691 57.6662 47.414 57.5976C 47.9866 57.523 50.2757 58.0813 51.4076 57.9898C 52.327 57.9152 51.1555 56.4135 51.1555 55.5929Z"/>
<path id="path36_fill" fill-rule="evenodd" d="M 42.3359 12.7993C 43.0254 12.5195 43.4842 10.7763 42.1149 8.87208C 41.7201 8.31726 36.9735 9.22707 34.3497 8.45832C 32.9237 8.04103 34.7494 6.03335 33.3354 5.42329C 30.964 4.39946 26.9552 0.988286 25.0377 1.95686C 23.9667 2.49992 23.7747 4.23255 22.2436 4.03977C 20.6715 3.84112 17.3002 3.69301 16.3113 3.2675C 15.3079 2.83963 15.7353 2.22957 15.3538 1.9216C 13.8686 0.726159 9.92981 0.539262 8.61608 0.40526C 6.98841 0.238345 3.93713 -0.272979 2.72362 0.1878C 1.51735 0.647404 1.02108 2.12965 0.0164679 4.15497C -0.289022 4.91784 3.74031 5.5855 5.08181 6.44123C 6.794 7.53323 9.64726 7.31107 11.6505 7.93759C 14.0859 8.70046 15.943 9.63847 17.6178 9.30464C 19.2925 8.96611 18.9858 8.51474 23.6793 10.1992C 28.3691 11.8871 31.4433 12.5031 34.4584 12.1634C 37.4746 11.8284 40.4378 13.5751 42.3359 12.7993Z"/>
<path id="path37_fill" fill-rule="evenodd" d="M 4.12301 5.77088C 5.28947 6.39133 6.72308 5.58832 6.95223 5.28287C 7.32186 4.78769 5.42995 2.72826 5.2768 2.01116C 4.94748 0.476728 3.39181 -0.291681 1.93286 0.102069C 1.04045 0.340705 -0.686789 1.26304 0.29083 2.44667C 0.817063 3.08502 2.05262 2.8619 2.48097 3.22821C 2.94618 3.79019 3.40908 5.39145 4.12301 5.77088Z"/>
<path id="path38_fill" fill-rule="evenodd" d="M 0 2.2726C 0.283287 4.50673 1.92549 4.38105 2.55718 2.99081C 3.13787 1.72369 3.46783 0 1.43923 0C 0.794507 0 0.565489 0.618169 0 2.2726Z"/>
<path id="path39_fill" fill-rule="evenodd" d="M 0.826662 5.66478C 0.826662 5.66478 0.406673 8.87846 1.25645 10.1666C 3.24987 13.2197 2.17234 12.9964 3.60863 12.9964C 4.4131 12.9964 2.58254 10.4008 2.90947 8.86639C 3.16538 7.66035 6 9.36619 6 8.77102C 6 8.27725 4.22576 6.87323 4.39841 6.69456C 5.41716 5.65754 6.14449 4.7678 5.27145 2.83984C 5.01676 2.27364 2.47601 5.40764 2.36336 4.47203C 2.14418 2.6998 2.79804 -0.571826 1.11808 0.0861211C 0.0564777 0.498998 -0.61575 3.8334 0.826662 5.66478Z"/>
<path id="path40_fill" fill-rule="evenodd" d="M 0.144478 0.796326C -0.625969 2.31244 1.87495 2.75631 3.16065 3.9728C 4.34427 4.22942 5.65792 2.61621 4.62863 1.40249C 3.60055 0.188773 0.914926 -0.723944 0.144478 0.796326Z"/>
<path id="path41_fill" fill-rule="evenodd" d="M 0.269268 2.03411C -0.524476 3.47689 0.564266 3.86391 1.87426 3.97844C 3.98924 4.26673 4.53299 1.58917 3.47425 0.441268C 2.4155 -0.710582 1.06301 0.595287 0.269268 2.03411Z"/>
<path id="path42_fill" fill-rule="evenodd" d="M 0.158401 0.808411C -0.568357 2.00481 1.36814 2.82754 2.67058 2.97285C 4.60937 3.2165 5.59021 1.76553 4.6231 0.808411C 3.65486 -0.146521 0.884016 -0.3858 0.158401 0.808411Z"/>
<path id="path43_fill" fill-rule="evenodd" d="M 2.6942 2.23385C 3.33459 1.4246 3.07341 0.442018 0.90419 0.033026C -0.525197 -0.241298 0.134856 1.26125 0.267085 2.02811C 0.579627 3.45709 1.99481 3.12042 2.6942 2.23385Z"/>
<path id="path44_fill" fill-rule="evenodd" d="M 6.0653 3.88219C 6.0653 3.88219 9.34044 3.84427 11.3411 3.40278C 13.0546 3.02087 15.6214 2.18257 15.9702 0.534411C 16.3156 -1.11104 13.5803 1.55689 11.6841 1.68149C 9.79255 1.81014 7.11192 0.595354 7.11192 0.595354C 7.11192 0.595354 2.26684 -0.303888 0.524842 0.925798C -0.216812 1.45397 -0.189519 2.8868 0.715892 3.36892C 1.93577 4.02304 5.06377 4.11919 6.0653 3.88219Z"/>
<path id="path45_fill" fill-rule="evenodd" d="M 1.68918 0.281793C -0.0600339 1.06621 -0.373733 2.60089 0.394602 2.93493C 2.02106 3.64784 6.14575 1.66493 7.55512 2.15585C 8.96563 2.64358 13.8291 4.74923 13.9916 3.72041C 14.1019 3.03205 13.1187 1.44934 11.2797 0.674535C 10.3943 0.304205 8.42575 0.218827 7.9677 0.321281C 6.56515 0.632913 3.43612 -0.502622 1.68918 0.281793Z"/>
<path id="path46_fill" fill-rule="evenodd" d="M 0 3.67554C 0.648519 4.37641 1.47579 3.89777 2.10905 2.66355C 2.7434 1.43162 3.63171 0.416217 2.33249 0.0378622C 1.03654 -0.340493 0.570043 2.20657 0 3.67554Z"/>
<path id="path47_fill" fill-rule="evenodd" d="M 4.07552 14.4814C 3.63345 16.9058 2.92567 18.0391 2.41449 19.986C 2.24767 20.637 0.674822 20.9206 0.322121 21.7391C -0.669252 24.0571 0.875003 26.1943 1.62807 26.6957C 2.29891 27.1421 2.48122 26.1441 3.0913 26.2506C 4.83811 26.1118 5.46249 29.0903 4.41392 31.6308C 3.75737 33.2235 3.10798 35.0808 3.9087 36.0501C 4.3889 36.6316 6.64332 37.3245 8.06365 36.8327C 9.19801 36.4402 9.05026 35.6827 8.70114 32.7724C 8.34963 29.8645 9.17299 28.3747 8.24477 24.7954C 7.68951 22.657 11.2534 22.4009 11.2534 22.4009C 11.8802 22.2705 10.4646 23.8321 10.8972 25.8545C 11.1843 27.2079 13.3828 28.4309 13.8939 29.7209C 14.753 31.8976 14.9187 34.1019 16.0113 33.433C 16.7477 32.9854 16.7882 32.2961 17.4043 31.553C 17.9166 30.9331 19.8219 31.7983 20.5261 30.9511C 20.2866 30.3707 20.4153 28.9 19.7731 28.2083C 18.8937 27.2653 17.2196 27.1014 17.1481 26.442C 17.0098 25.176 17.7153 25.103 17.7558 24.5477C 17.8165 23.6777 17.1624 22.5936 16.0912 21.2581C 15.5419 20.576 14.6744 19.5828 13.2338 18.5297C 13.2362 17.3917 15.5359 17.9685 17.0444 17.5616C 18.8877 17.0674 19.2238 15.6697 20.4511 14.5951C 21.7141 13.4846 23.7767 13.8531 23.7326 12.173C 23.7028 11.1714 18.3337 13.0609 15.8064 13.1124C 12.4998 13.1806 12.6917 15.5823 11.2737 15.8575C 10.8996 15.9293 10.635 14.9002 9.95227 14.2899C 9.03954 13.4786 7.23433 12.7857 7.31893 11.5412C 7.42975 9.8802 7.78721 6.9735 9.00737 6.83947C 10.8841 6.63245 12.7953 6.02454 14.106 6.25191C 14.9568 6.3979 17.2386 5.77923 19.2035 5.8618C 19.8219 5.88334 20.2723 6.98307 20.9038 7.03573C 23.2381 7.23676 24.0341 7.49524 27.1369 7.03573C 30.4244 6.55227 31.6278 3.29974 31.977 0.761612C 32.3285 -1.78848 28.5608 2.78278 27.1917 3.98662C 26.1586 4.89848 21.2363 4.59094 17.6735 3.92081C 15.6396 3.53548 14.5243 2.78278 13.6282 2.70859C 12.955 2.64995 10.8626 2.00495 10.33 2.33164C 9.5245 2.82586 10.3502 4.41742 9.68179 4.72975C 8.49857 5.28381 7.52865 4.77164 7.37494 5.30056C 6.71601 7.50721 4.66415 8.60575 4.47707 10.1722C 4.25664 11.9768 4.28642 13.3086 4.07552 14.4814Z"/>
<path id="path48_fill" fill-rule="evenodd" d="M 1.19025 1.63556C 0.280398 1.85466 0.0406611 3.00053 0.000705061 4.0507C -0.0849151 6.28074 7.65172 4.03307 10 2.88846C 10 2.88846 6.33317 -0.439597 4.78744 0.0489717C 4.43811 0.158522 5.16075 1.98562 4.78744 2.1128C 3.87188 2.42004 2.57388 1.30061 1.19025 1.63556Z"/>
<path id="path49_fill" fill-rule="evenodd" d="M 2.90901 3.19932C 3.41527 3.11578 4.77247 2.98646 5.30027 3.18902C 6.87768 3.78985 7.63288 5.43896 8.66813 4.88964C 10.1642 4.09426 6.19071 0.539676 4.91848 0.190626C 3.64865 -0.159569 2.0868 -0.145836 0.18265 1.26639C -0.541429 1.80083 0.994096 3.52434 2.90901 3.19932Z"/>
<path id="path50_fill" fill-rule="evenodd" d="M 9.05064 0.267039C 7.65381 1.7585 6.43426 2.75685 4.90774 3.48072C 4.55318 3.64832 4.19981 3.8135 3.80242 3.95317C 3.43596 4.08556 3.04689 4.33818 2.65782 4.62724C 0.838615 6.00211 -0.88541 8.71539 0.50785 8.94494C 2.19499 9.22186 5.45981 8.51499 7.65143 5.43006C 7.85965 5.13978 8.35222 4.86772 9.02565 4.61388C 11.7348 3.58031 17.3543 2.71191 18.9867 0.987262C 19.4067 0.540311 9.75381 -0.483548 9.05064 0.267039Z"/>
<path id="path51_fill" fill-rule="evenodd" d="M 7.82397 31.9567C 8.1472 31.9247 8.47524 31.9686 8.80088 32.0648C 11.0251 32.7713 13.2012 35.9558 13.7551 36.0413C 13.8176 36.071 13.8717 36.0828 13.9065 36.0579C 14.4941 35.6174 12.151 30.0664 11.3627 28.8969C 11.2269 28.6926 11.1044 28.5026 10.9842 28.3139C 10.8977 28.1357 10.8088 27.9434 10.7162 27.7225C 10.1491 26.363 9.47978 24.2269 8.87418 21.9851C 8.295 18.7697 7.19673 15.9295 7.19673 13.2354C 7.19673 10.4462 7.18472 0.351188 4.7106 0.0234725C 4.7058 0.0222851 4.70339 0.0234725 4.69859 0.0234725C 4.67816 0.0199103 4.66254 0.0032871 4.64211 0.000912354C 4.59765 -0.00502452 4.5544 0.0199103 4.51114 0.0210977C 4.11821 0.018723 3.86227 0.170707 3.70606 0.436679C 2.80005 1.34027 1.93729 3.53573 1.2704 5.86535C 0.676807 6.94111 0.173334 9.53078 0.0748019 11.5505C 0.0123183 12.0967 -0.0129155 12.5443 0.00631023 12.8388C 0.216592 15.8939 2.25091 21.2727 1.78349 24.842C 1.65131 25.8204 1.50712 26.7691 1.37734 27.7225C 1.11539 29.614 0.914726 31.5198 1.02047 33.6867C 1.11539 35.6851 1.23075 40.5106 1.4182 44.835C 1.37254 45.5189 1.31126 46.1886 1.21032 46.8203C 0.996435 48.1869 1.46987 52.1112 2.15118 52.8723C 2.17641 52.9186 2.20285 52.9519 2.22928 52.9626C 2.2425 52.9685 2.25452 52.9602 2.26774 52.9637C 2.27735 52.9685 2.28696 52.9804 2.29537 52.9839C 3.10405 53.3223 3.52221 48.2083 4.85239 47.9483C 4.93771 47.9364 5.02302 47.9459 5.10834 47.9661C 6.39766 48.3971 7.65695 52.1587 8.41035 52.1789C 8.48726 52.2026 8.56176 52.2038 8.62905 52.1504C 9.00515 51.8512 9.22504 50.0927 8.04386 47.6075C 6.76776 44.9193 4.06534 41.4284 4.06534 39.2923C 4.06534 35.1804 6.40367 32.0956 7.82397 31.9567Z"/>
<path id="path52_fill" fill-rule="evenodd" d="M 435 334C 435.021 334.03 435.042 334.059 435.064 334.088C 435.042 334.059 435.021 334.03 435 334ZM 434 333C 434.012 333.027 434.025 333.054 434.037 333.081C 434.025 333.053 434.012 333.027 434 333ZM 434 331C 434.005 331.017 434.011 331.034 434.017 331.052C 434.011 331.034 434.006 331.017 434 331ZM 434 330C 434.004 330.016 434.009 330.034 434.013 330.051C 434.009 330.033 434.004 330.017 434 330ZM 434 330C 434 330 434.03 330.175 434.095 330.454C 434.094 330.449 434.092 330.443 434.091 330.439C 434.029 330.17 434 330 434 330ZM 413.035 331C 413.022 331.037 413.011 331.074 413 331.112C 413.011 331.074 413.022 331.037 413.035 331ZM 312.017 301.88C 311.478 302.373 309.849 303.051 307.991 303.347C 305.527 303.734 303.16 304.175 300.03 303.929C 298.671 303.825 294.848 301.335 293.997 300.817C 293.426 300.465 289.824 301.688 288.852 301.001C 286.708 299.478 285.92 296.888 285.765 294.552C 285.645 292.761 285.9 291.125 286.199 290.252C 286.799 289.534 286.677 286.769 287.904 284.681C 288.64 283.427 292.296 284.153 291.504 281.457C 291.288 280.719 289.275 280.611 288.982 280.031C 287.903 277.898 286.334 275.933 284.842 274.252C 282.773 271.917 280.855 270.126 280.609 269.189C 280.076 267.176 280.586 265.828 280.467 264.94C 280.348 264.046 277.181 261.814 275.777 259.758C 274.248 257.523 275.34 257.174 275.968 255.066C 276.492 253.295 277.264 252.041 278.761 251.449C 279.855 251.017 281.535 250.738 282.599 249.984C 283.989 248.998 284.713 247.492 285.619 246.724C 288.492 244.29 291.927 243.585 293.684 242.215C 294.394 241.659 295.788 242.339 297.38 242.507C 299.72 242.754 303.662 242.216 305.333 243.847C 306.23 244.722 304.376 246.915 304.481 247.953C 304.707 250.176 305.596 251.9 303.442 252.134C 300.282 252.475 292.842 253.891 293.54 256.288C 293.697 256.816 294.523 258.253 294.821 258.927C 295.048 259.441 293.444 259.974 293.684 260.54C 293.949 261.163 295.74 261.335 296.385 262.007C 297.282 262.941 297.809 265.284 298.896 266.403C 299.585 267.114 301.206 267.737 302.305 268.359C 303.289 270.716 303.881 272.396 304.316 273.598C 304.842 275.062 305.135 275.82 305.621 276.227C 306.304 276.798 306.946 273.89 308.321 273.296C 309.521 272.773 310.445 274.147 311.448 275.201C 312.402 276.199 313.152 277.357 312.974 278.444C 312.843 279.229 312.23 279.977 310.859 280.601C 308.882 281.5 307.084 280.728 306.332 281.504C 305.621 282.238 305.852 285.528 308.05 287.456C 308.707 288.034 309.731 287.804 310.17 288.393C 312.067 290.949 311.639 294.499 311.845 298.075C 311.884 298.736 312.151 299.484 312.297 300.168C 312.439 300.854 312.464 301.47 312.017 301.88ZM 139 265.196C 139.036 265.125 139.071 265.058 139.102 265C 139.071 265.058 139.036 265.125 139 265.196ZM 139 265.261C 139.066 265.141 139.122 265.047 139.16 265C 139.141 265.023 139.118 265.061 139.093 265.101C 139.066 265.144 139.034 265.199 139 265.261ZM 139 267.209C 139.034 267.137 139.067 267.067 139.099 267C 139.067 267.067 139.034 267.137 139 267.209ZM 139 267.206C 139.032 267.136 139.063 267.067 139.095 267C 139.064 267.067 139.032 267.136 139 267.206ZM 138 267.176C 138.027 267.117 138.053 267.058 138.08 267C 138.053 267.058 138.027 267.117 138 267.176ZM 139 266.208C 139.035 266.135 139.069 266.065 139.102 266C 139.07 266.064 139.035 266.136 139 266.208ZM 137.006 268C 137.004 268.005 137.002 268.009 137 268.014C 137.002 268.009 137.004 268.005 137.006 268ZM 137.001 270C 137.001 270.001 137 270.002 137 270.003C 137 270.002 137.001 270.001 137.001 270ZM 155.299 270C 155.228 270 155.124 270.017 155 270.044C 155.124 270.018 155.228 270 155.299 270ZM 155.322 270C 155.222 270.025 155.119 270.051 155 270.087C 155.119 270.051 155.222 270.025 155.322 270ZM 153.416 271C 153.275 271.052 153.137 271.105 153 271.158C 153.138 271.105 153.274 271.053 153.416 271ZM 154.432 271C 154.291 271.049 154.146 271.1 154 271.154C 154.147 271.1 154.29 271.049 154.432 271ZM 154.394 271C 154.267 271.039 154.138 271.081 154 271.127C 154.138 271.081 154.267 271.039 154.394 271ZM 152.158 271C 152.102 271.023 152.052 271.043 152 271.065C 152.052 271.043 152.102 271.023 152.158 271ZM 152.321 271C 152.209 271.044 152.104 271.086 152 271.128C 152.104 271.086 152.209 271.044 152.321 271ZM 151.243 272.002C 151.244 272.001 151.245 272.001 151.246 272C 151.154 272.04 151.061 272.081 151 272.109C 151.059 272.081 151.152 272.041 151.243 272.002ZM 145.065 271.1C 145.043 271.066 145.022 271.033 145 271C 145.022 271.033 145.043 271.066 145.065 271.1ZM 146.177 272.325C 146.125 272.22 146.064 272.11 146 272C 146.065 272.11 146.125 272.22 146.177 272.325ZM 146.108 273.266C 146.079 273.183 146.043 273.093 146 273C 146.043 273.094 146.079 273.182 146.108 273.266ZM 146.051 273.272C 146.051 273.197 146.029 273.102 146 273C 146.03 273.102 146.051 273.196 146.051 273.272ZM 144.212 270.081C 144.136 270.039 144.062 270.004 144 270C 144.062 270.005 144.135 270.037 144.212 270.081ZM 145.125 270.1C 145.083 270.065 145.04 270.027 145 270C 145.04 270.028 145.083 270.064 145.125 270.1ZM 146.029 270C 146.019 270.009 146.01 270.016 146 270.025C 146.01 270.016 146.019 270.009 146.029 270ZM 146.015 269C 146.01 269.004 146.006 269.007 146 269.011C 146.002 269.009 146.004 269.008 146.006 269.006C 146.009 269.004 146.011 269.003 146.015 269ZM 138.034 268C 138.022 268.026 138.011 268.052 138 268.078C 138.011 268.052 138.022 268.026 138.034 268ZM 138.059 268C 138.039 268.044 138.02 268.088 138 268.133C 138.02 268.088 138.039 268.044 138.059 268ZM 148.122 268.003C 148.081 268.001 148.041 268 148 268C 148.04 268 148.082 268.001 148.122 268.003ZM 147.063 269C 147.042 269.011 147.021 269.024 147 269.035C 147.02 269.024 147.042 269.011 147.063 269ZM 195.077 144.566C 197.805 144.566 198.825 143.28 199.853 143.082C 202.401 142.594 204.721 144.337 205.742 146.782C 207.106 150.048 208.585 150.554 207.764 152.245C 205.763 156.372 202.528 155.042 199.119 157C 198.382 155.591 200.482 153.579 196.931 149.693C 195.491 148.117 192.35 144.566 195.077 144.566ZM 117.074 162.489C 116.961 163.306 115.023 164.092 114.456 164.092C 112.297 164.42 111.011 165.259 110.008 164.921C 109.896 162.967 110.974 161.333 111.883 159.864C 111.998 159.538 113.16 160.921 113.387 160.595C 113.454 159.524 113.474 157.579 114.268 157.253C 115.633 156.6 116.77 157.253 117.679 158.721C 118.588 160.355 117.303 160.694 117.074 162.489ZM 215.834 138.374C 218.182 138.374 216.119 135.404 216.932 134.527C 217.878 133.502 220.525 134.053 221.43 135.489C 222.617 137.373 223.327 139.298 226 142.602C 226 144.169 225.91 145.401 224.224 146.36C 223.601 146.714 222.241 147.275 221.79 146.844C 222.063 145.833 220.957 142.697 219.257 142.276C 216.573 141.308 213.484 138.374 215.834 138.374ZM 558.08 212.277C 559.009 210.432 562.978 209.011 566.799 206.659C 570.623 204.302 571.855 203.019 573.555 200.737C 575.259 198.454 574.235 200.841 578.519 194.956C 582.798 189.071 586.571 181.678 585.928 186.622C 585.285 191.563 584.267 193.251 583.207 195.983C 582.152 198.714 576.584 199.003 577.115 203.027C 577.649 207.051 576.656 206.558 574.447 207.336C 572.235 208.112 570.14 210.703 567.977 211.128C 565.812 211.553 557.077 214.271 558.08 212.277ZM 428.122 313C 428.083 313.017 428.041 313.037 428 313.055C 428.042 313.036 428.083 313.017 428.122 313ZM 430.205 313.304C 430.433 313.221 430.679 313.128 431 313C 430.026 313.393 429.594 313.512 429 313.712C 429.403 313.576 429.741 313.471 430.205 313.304ZM 415 329.206C 415.26 329.073 415.454 329 415.454 329C 415.454 329 415.26 329.074 415 329.206ZM 415.022 330C 415.015 330.005 415.007 330.01 415 330.016C 415.007 330.01 415.015 330.005 415.022 330ZM 415.13 330C 415.088 330.024 415.044 330.05 415 330.077C 415.046 330.049 415.087 330.025 415.13 330ZM 414.064 330C 414.042 330.021 414.021 330.042 414 330.064C 414.022 330.042 414.042 330.021 414.064 330ZM 403.179 304C 403.119 304.009 403.059 304.019 403 304.028C 403.059 304.019 403.119 304.01 403.179 304ZM 404.184 304C 404.122 304.008 404.062 304.017 404 304.026C 404.062 304.017 404.122 304.008 404.184 304ZM 405.536 304C 405.357 304.023 405.179 304.046 405 304.069C 405.179 304.046 405.357 304.023 405.536 304ZM 401.069 304C 401.046 304.004 401.023 304.008 401 304.012C 401.023 304.008 401.046 304.004 401.069 304ZM 399.079 305C 399.051 305.008 399.025 305.016 399 305.024C 399.025 305.016 399.051 305.008 399.079 305ZM 399.046 305C 399.029 305.004 399.016 305.008 399 305.012C 399.016 305.008 399.029 305.004 399.046 305ZM 400.044 304C 400.03 304.003 400.015 304.006 400 304.009C 400.015 304.006 400.03 304.003 400.044 304ZM 397 269.336C 397.175 269.209 397.35 269.101 397.524 269C 397.35 269.101 397.175 269.21 397 269.336ZM 397 270.331C 397.134 270.213 397.273 270.107 397.412 270C 397.273 270.107 397.134 270.213 397 270.331ZM 396 270.2C 396.067 270.132 396.141 270.068 396.211 270C 396.141 270.068 396.067 270.132 396 270.2ZM 399 268.097C 399.196 268.034 399.385 268 399.563 268C 399.385 268 399.196 268.034 399 268.097ZM 398 268.23C 398.178 268.132 398.35 268.06 398.521 268C 398.35 268.061 398.178 268.132 398 268.23ZM 346.287 244.757C 346.061 243.831 347.182 243.747 347.36 244.547C 347.54 245.348 347.629 245.895 348.929 245.811C 350.227 245.728 350.227 246.359 349.555 247.286C 348.884 248.213 347.72 248.171 347.27 247.539C 346.823 246.907 345.525 246.78 344.002 246.739C 342.479 246.695 342.842 244.73 344.091 244.928C 344.629 245.011 345.211 245.642 345.615 245.685C 346.016 245.728 346.511 245.685 346.287 244.757ZM 409.313 303.143C 408.291 303.216 407.151 303.313 406 303.424C 409.11 303.123 412.132 302.917 413 303.033C 412.938 303.025 412.827 303.025 412.749 303.018C 412.096 302.979 410.853 303.031 409.313 303.143ZM 413.221 242.87C 414.612 241.478 418.831 242.715 422.618 242.521C 427.492 242.175 430.623 241.129 430.97 243.567C 431.32 246.002 428.533 244.565 425.752 244.911C 422.969 245.258 419.484 246.49 417.398 245.448C 415.31 244.401 413.568 245.653 412.873 248.437C 412.383 250.393 412.683 254.843 411.695 255.853C 411.276 256.281 410.117 255.737 409.391 254.7C 406.956 251.221 407 253.027 407 250.222C 407 247.595 411.829 244.261 413.221 242.87ZM 335.729 251.508C 335.81 250.695 336.207 249.9 337.214 249.414C 337.833 249.116 338.577 248.819 339.402 250.056C 340.229 251.294 341.094 249.414 340.723 248.133C 340.352 246.853 341.342 246.683 341.713 247.494C 342.084 248.305 342.25 248.603 343.405 248.689C 344.563 248.774 344.066 250.098 342.58 250.056C 341.094 250.013 340.888 251.807 342.208 251.636C 343.53 251.466 344.025 251.893 344.686 254.241C 345.156 255.917 345.064 256.91 344.636 257.783C 344.467 258.131 344.256 258.467 343.984 258.811C 343.033 260.006 341.219 260.262 339.773 259.75C 338.329 259.238 338.247 258.127 338.989 257.145C 339.414 256.583 339.744 255.657 339.881 254.714L 337.02 252.715C 336.925 253.483 337.061 254.53 337.296 255.394C 337.668 256.762 337.42 258 336.677 259.151C 335.933 260.304 334.325 259.75 334.078 258.427C 333.831 257.103 334.202 255.138 334.778 254.113C 335.211 253.346 335.439 252.727 335.582 252.125C 335.632 251.92 335.708 251.711 335.729 251.508ZM 977 106.238C 976.963 104.243 971.344 105.457 969.967 104.642C 968.603 103.837 968.492 101.144 967.017 100.503C 965.845 99.9916 965.157 100.273 963.295 101.077C 962.691 101.339 959.555 98.971 958.94 99.7665C 958.228 100.692 959.973 102.158 959.963 104.059C 959.954 105.532 958.167 106.15 957.884 106.204C 956.69 106.434 952.341 98.1945 952.284 96.7903C 952.224 95.2802 947.693 93.7188 945.24 91.5715C 942.522 89.1932 939.481 87.7771 935.047 86.3027C 933.593 85.8204 932.528 85.3344 931.554 84.8545C 926.718 82.4737 926.854 80.2728 922.19 79.6702C 916.594 78.9473 904.575 77.1918 898.976 77.9135C 895.124 78.4114 883.442 73.0568 882.552 74.5383C 882.15 75.2124 883.468 82.8894 882.742 83.5135C 881.61 84.4889 877.708 84.9771 876.515 84.6842C 875.201 84.3614 876.563 82.6047 875.757 81.3673C 875.177 80.4765 871.937 81.0148 870.849 80.1978C 869.053 78.8449 869.043 76.2867 866.427 75.8329C 865.172 75.6186 864.083 76.8869 863.113 76.8798C 857.573 76.8572 856.099 77.636 851.22 77.0739C 846.124 76.4903 841.406 78.54 837.819 79.3213C 836.994 79.5023 836.501 86.0478 835.742 87.5151C 835.549 86.3575 835.479 80.118 834.986 79.3213C 834.438 78.4221 832.718 80.2371 831.779 79.7119C 830.841 79.1855 832.003 74.7587 831.59 74.0524C 830.629 72.4161 825.491 66.5172 824.606 66.4029C 820.076 65.8181 815.546 68.1619 812.715 67.9654C 809.538 67.7451 804.552 69.366 800.068 69.7209C 801.012 67.5748 795.663 65.3465 794.974 65.038C 796.296 63.8685 794.751 63.3111 796.296 61.7212C 798.512 59.4286 783.056 50.4809 779.73 53.4285C 775.443 57.2241 773.267 60.2003 770.892 61.6092C 770.708 60.8935 772.91 57.03 772.511 56.1046C 772.249 55.496 766.361 55.6223 766.661 54.7374C 767.03 53.6453 772.709 53.4345 773.076 52.7866C 769.867 51.2252 759.675 50.7191 753.07 49.7437C 747.581 48.9338 737.643 47.6512 735.474 49.8937C 731.482 54.018 738.007 60.7005 732.621 60.5374C 722.127 60.2194 721.532 57.0991 717.729 58.5711C 716.882 58.901 716.332 62.4775 713.766 62.9943C 710.571 63.6398 701.919 61.5271 698.144 58.795C 696.255 60.354 696.255 63.4767 694.745 67.3783C 690.215 64.2568 686.332 64.5402 683.35 60.3397C 682.275 58.8283 679.103 56.2833 677.003 54.1121C 676.626 56.0641 678.133 67.7689 677.003 71.6717C 676.473 70.6725 673.627 52.2959 673.843 50.8537C 678.512 50.4261 684.814 47.9477 679.266 44.1819C 677.904 43.2565 671.297 41.7737 665.677 40.2803C 660.816 38.9881 654.716 36.9063 652.087 37.4315C 648.543 38.1389 646.804 42.8944 650.954 45.6241C 649.742 49.7365 634.61 46.6853 630.193 44.7476C 626.338 43.0576 633.718 41.4665 630.946 40.4553C 622.228 37.2755 614.933 37.0742 610.183 38.5046C 605.117 40.0326 601.678 36.5395 594.707 38.5046C 585.195 41.1866 565.639 47.8703 556.958 51.3812C 557.643 50.1224 562.993 47.6095 567.906 43.9675C 576.63 37.4982 586.326 33.1714 592.818 31.0896C 595.803 30.1345 599.007 30.6382 600.746 28.3599C 604.923 22.8851 605.356 18.9227 603.767 15.8715C 601.126 10.7992 591.761 9.12705 587.912 7.67884C 584.063 6.23063 573.245 15.4487 569.481 15.6428C 570.235 12.9119 571.026 13.7754 572.401 7.3811C 572.72 5.89716 565.963 7.63835 564.951 6.27827C 567.595 3.54739 569.41 -0.414948 565.706 0.0352358C 559.756 0.758151 553.421 1.9384 549.406 4.55613C 547.328 6.24373 547.11 6.77847 545.253 8.84718C 544.463 9.72849 556.926 12.033 556.58 12.7523C 556.297 13.3347 537.478 11.2077 536.948 12.3605C 539.215 16.6539 541.416 26.2221 539.968 26.7986C 537.703 21.7263 537.592 22.2336 533.174 15.4844C 532.487 13.355 527.516 20.3459 522.983 19.3848C 524.115 16.2633 520.328 14.247 515.433 15.8715C 509.517 17.8378 504.109 18.8644 502.595 20.1661C 500.331 22.1169 477 23.6806 472.773 29.1412C 471.133 31.2587 475.051 32.1829 476.278 35.5414C 476.684 36.6633 474.268 42.368 473.527 43.185C 471.858 45.0382 473.114 37.5625 470.131 36.9432C 466.358 36.1631 460.711 40.3994 456.163 39.6741C 453.015 39.1751 447.237 38.8297 444.838 40.8472C 443.77 41.7428 444.378 44.4808 444.461 45.5277C 445.095 53.3868 454.013 51.9243 457.162 56.6286C 460.314 61.3294 458.627 69.8698 456.53 69.5089C 454.429 69.1504 452.585 69.7757 451.882 65.7991C 451.532 63.8078 453.952 62.5001 453.143 61.5271C 452.334 60.5529 448.3 59.9133 447.104 58.795C 442.668 54.6457 438.117 54.3301 433.89 54.1121C 431.61 53.9942 424.549 52.5424 423.322 57.6231C 422.686 60.2456 432.95 64.5343 432.378 65.038C 431.814 65.543 423.309 62.7204 422.564 63.0884C 417.707 65.4894 419.413 55.7569 418.362 53.2249C 417.315 50.6929 417.355 54.9803 413.508 56.0641C 409.658 57.1467 406.119 60.0753 407.167 61.5223C 408.217 62.9693 409.629 59.3095 410.267 63.6136C 410.69 66.4529 410.237 74.9635 409.847 78.9866C 409.423 83.355 421.28 79.2879 425.478 80.7337C 429.678 82.182 430.6 81.9092 430.872 87.2793C 431.003 89.8815 430.872 93.0626 427.59 93.8343C 428.004 91.4131 428.206 86.5397 425.056 84.0065C 421.908 81.4757 416.797 83.941 413.648 84.6627C 410.498 85.3856 418.443 88.5679 415.341 92.7434C 414.282 94.1607 411.906 99.0972 408.976 101.717C 407.509 103.027 404.66 106.964 402.936 107.959C 401.209 108.956 392.703 105.738 390.856 106.01C 390.098 100.547 399.16 104.059 401.802 102.887C 404.444 100.936 408.223 89.9482 408.976 88.0594C 406.709 85.7179 404.299 84.0279 404.778 79.3344C 405.2 75.1874 403.999 70.4128 404.778 68.2C 407.31 60.9947 400.966 61.3484 402.876 57.2825C 404.655 53.4893 403.152 56.1832 405.215 52.9843C 406.058 51.6742 405.062 49.5519 402.936 49.4316C 399.133 49.2113 396.518 47.1331 394.978 47.3891C 391.038 48.0466 390.338 46.5983 386.835 49.49C 385.11 50.9192 385.227 56.2713 383.686 59.1844C 382.099 62.1761 378.862 62.724 377.644 63.4767C 375.667 64.7034 378.224 69.6173 377.266 73.6225C 376.689 76.0378 375.018 76.2998 374.623 77.5253C 373.575 80.7802 379.347 76.7262 381.796 81.4269C 384.248 86.1288 386.326 86.8898 383.686 89.6219C 380.288 87.2793 374.734 86.5171 369.865 85.5905C 366.709 84.9962 364.27 82.4392 361.124 82.126C 357.974 81.8104 353.321 78.877 347.829 79.4475C 345.813 79.6559 341.916 80.1263 342.922 82.1653C 344.432 85.2225 344.012 88.2094 341.787 88.4488C 336.866 88.9859 336.881 87.9415 335.874 85.7572C 332.729 87.259 327.821 88.6084 323.621 88.6084C 319.424 88.6084 318.481 86.3682 314.982 89.8303C 311.481 93.296 309.322 93.3758 305.925 94.3941C 310.127 91.1547 315.33 81.6436 313.233 81.9604C 311.132 82.2748 305.925 85.2225 302.905 86.5814C 299.85 87.9569 298.927 90.1114 294.73 89.797C 290.529 89.4802 282.898 95.0837 282.519 100.936C 278.745 100.936 276.964 97.8455 273.815 98.1611C 270.665 98.4779 269.436 92.6184 271.535 92.9328C 273.102 93.1662 278.225 92.217 278.041 89.9863C 277.978 89.2337 273.447 88.4488 272.375 88.1939C 269.685 87.558 264.59 86.922 260.625 85.0522C 262.891 87.259 263.121 88.4178 264.522 90.9379C 265.922 93.4556 259.416 93.6724 264.536 96.3973C 266.424 97.4001 265.229 97.4811 265.577 100.631C 265.928 103.781 264.399 107.764 262.513 109.326C 261.207 107.299 256.425 102.882 254.018 103.865C 252.554 104.46 251.678 106.193 249.866 106.594C 247.225 107.179 244.771 108.156 244.242 109.693C 243.831 110.895 247.035 114.993 247.035 116.35C 245.337 116.544 242.475 116.177 240.994 115.959C 238.473 115.586 233.954 114.032 229.406 111.863C 228.463 113.031 227.984 115.496 228.272 116.74C 228.499 117.705 230.296 117.398 232.426 118.105C 233.081 118.324 234.478 119.664 235.144 119.86C 236.465 120.251 234.621 122.539 233.559 123.763C 231.794 124.007 227.812 123.351 226.913 122.578C 224.814 120.768 224.708 118.865 221.209 118.865C 217.712 118.865 218.354 110.882 219.4 108.351C 219.898 107.156 214.117 106.791 214.187 104.852C 214.225 103.828 206.978 101.722 206.754 99.1794C 208.917 100.158 211.783 100.258 216.382 102.887C 219.554 104.703 222.915 105.183 224.308 105.424C 225.441 105.619 229.519 106.343 230.725 106.594C 234.644 107.413 235.095 107.455 239.108 107.179C 240.549 107.08 244.528 105.534 246.28 103.865C 248.424 101.815 249.002 100.684 249.16 97.8527C 249.343 94.5787 242.707 92.1741 241.373 91.1821C 238.585 89.111 236.918 87.9462 233.068 86.4992C 230.241 85.4369 227.698 83.2264 224.167 82.0081C 221.016 80.9243 216.607 80.3586 212.306 79.8655C 208.028 79.3748 207.584 78.2244 205.808 76.7488C 203.858 75.1255 198.582 75.1755 198.83 74.7932C 197.427 76.9632 198.785 77.2061 196.336 77.5705C 195.112 77.7516 190.581 79.7357 190.409 78.9866C 190.289 78.4507 193.474 76.3331 194.515 74.4514C 194.925 73.7106 193.179 71.4454 193.524 71.0869C 194.442 70.1366 200.602 71.817 200.454 69.8733C 200.365 68.6979 197.158 66.9876 194.752 66.7625C 193.861 66.678 191.973 65.4489 190.976 65.9646C 189.605 66.672 189.148 69.2088 188.256 69.2183C 186.991 69.2302 189.36 65.6121 188.256 64.7963C 187.337 64.1174 184.996 63.94 184.18 64.3544C 182.82 65.0464 183.047 67.0067 181.76 68.2346C 180.666 69.2802 180.578 62.7526 178.592 63.1587C 177.183 63.4469 176.254 69.6959 174.948 69.5446C 173.216 69.3469 174.332 66.5446 174.272 65.2322C 174.223 64.1603 171.285 64.7605 170.024 65.0881C 167.224 65.8098 165.824 72.2053 165.125 70.0365C 164.426 67.8654 160.256 66.1111 158.922 66.6208C 156.601 67.5057 159.689 73.426 158.559 73.7202C 158.147 73.8261 153.597 71.8396 152.491 72.5602C 151.804 73.0115 151.342 73.8369 151.342 74.9492C 151.342 76.3367 151.689 78.5102 150.708 79.0438C 149.642 79.6226 148.487 78.1934 147.941 76.5011C 147.678 75.6864 148.387 73.9857 147.799 73.7202C 146.037 72.9258 140.844 75.6019 140.014 76.0616C 139.165 76.5296 140.609 78.9092 138.508 80.3526C 136.411 81.8008 134.62 80.1002 132.172 77.5705C 129.722 75.0386 131.1 81.5567 129.953 84.6115C 129.538 85.7179 125.717 85.2796 124.301 85.4261C 122.006 85.6643 118.354 87.1816 120.479 87.9129C 122.511 88.6143 122.55 90.1816 123.167 91.4262C 123.644 92.3837 123.254 96.3318 122.035 97.2774C 120.348 98.5875 119.7 96.8403 117.787 97.7169C 116.53 98.2933 115.523 101.376 114.108 102.839C 112.066 104.948 112.244 105.499 110.144 107.667C 109.178 108.668 112.834 107.228 114.815 106.936C 114.357 107.956 112.617 111.649 110.426 113.08C 109.159 113.912 106.308 114.177 105.755 114.105C 104.471 113.94 103.322 116.335 101.508 118.497C 99.369 121.042 96.6023 123.562 95.846 125.519C 95.6114 126.123 97.2776 126.255 99.2428 125.664C 101.575 124.966 104.271 123.5 103.971 124.215C 103.419 125.527 99.5977 128.01 98.6771 128.152C 97.991 128.26 94.5764 127.031 93.7224 127.129C 90.5734 127.492 91.151 129.854 88.626 130.2C 86.5013 130.496 81.5323 132.026 78.7334 134.195C 77.334 135.28 75.819 136.299 74.6994 137.5C 74.1408 138.101 74.6494 139.136 74.3505 139.86C 74.0515 140.581 72.9427 140.986 73.0296 141.891C 73.1773 143.4 72.5925 147.099 73.3607 148.491C 75.4831 147.761 78.7418 147.35 81.0035 147.761C 81.7586 147.898 81.5156 148.918 81.5692 149.076C 80.0114 149.225 75.8107 149.265 75.1997 149.37C 73.5561 149.655 73.1416 151.204 73.0868 153.672C 73.0796 154.015 76.3323 153.57 76.3323 153.905C 76.3311 154.238 73.0785 155.35 73.0785 155.661C 73.0785 156.874 73.6418 159.173 74.4195 158.653C 74.9031 158.325 76.0572 158.349 76.3323 158.88C 76.7682 159.715 76.1394 161.444 75.7642 162.341C 74.7173 164.875 76.4764 164.451 78.575 166.618C 80.6736 168.79 87.4386 167.144 90.1827 166.637C 92.2789 166.25 94.3429 162.703 95.0992 162.361C 97.6349 161.215 99.9503 159.028 101.508 156.978C 102.216 158.149 102.947 158.754 103.348 159.173C 104.027 159.884 103.773 161.224 104.446 162.034C 104.339 163.418 107.516 164.597 108.564 170.387C 109.04 173.005 111.304 174.951 112.033 180.066C 112.267 181.707 111.966 183.512 113.116 183.902C 115.093 183.663 117.363 183.756 118.354 183.316C 118.7 182.917 118.995 180.834 119.345 180.391C 121.133 178.134 128.781 179.516 129.114 178.78C 130.296 176.16 130.103 174.977 130.745 172.514C 131.185 170.833 130.102 166.421 130.812 163.125C 131.095 161.809 133.088 161.324 134.231 161.052C 136.291 160.559 137.083 159.085 139.141 157.776C 140.9 156.659 139.019 152.934 137.183 150.101C 136.526 149.09 132.738 148.808 132.094 148.238C 131.288 146.297 132.253 142.883 132.496 140.581C 132.807 137.634 132.451 134.106 136.298 131.575C 138.222 130.309 142.847 128.452 145.481 126.344C 148.114 124.235 153.345 121.392 155.62 118.318C 155.303 117.177 153.932 116.895 153.718 115.862C 153.078 112.769 157.167 109.773 159.831 108.544C 162.061 108.765 161.407 109.884 163.282 110.003C 163.908 110.041 164.814 109.97 166.202 109.716C 168.609 109.279 171.021 115.313 169.6 117.324C 168.747 118.533 166.406 117.732 164.963 118.273C 161.114 119.72 163.938 120.544 161.955 122.447C 159.033 125.253 156.823 127.984 155.073 129.069C 148.793 132.961 156.141 131.357 153.085 134.031C 150.772 136.055 152.503 137.768 152.811 140.021C 153.138 142.395 151.975 147.293 153.559 149.099C 155.303 150.571 160.431 148.133 161.482 151.388C 162.066 153.201 160.857 156.35 161.814 155.81C 163.696 154.745 169.561 152.445 172.007 152.298C 178.28 151.915 180.599 151.976 184.321 152.089C 184.882 152.107 185.476 152.126 186.119 152.144C 187.738 152.193 187.402 153.527 189.376 154.191C 191.72 154.984 194.303 154.682 194.303 155.881C 194.303 156.612 189.559 155.226 187.577 155.955C 186.278 156.433 185.413 156.23 185.031 156.686C 184.816 156.938 185.182 157.732 184.676 158.149C 183.934 158.133 180.32 157.958 179.367 157.857C 176.608 157.564 171.934 157.345 170.521 157.564C 169.67 157.928 164.492 159.452 164.15 159.979C 163.865 160.418 163.954 162.764 164.929 165.028C 165.207 165.678 166.129 166.241 166.77 166.198C 167.564 166.143 168.121 165.377 168.751 165.32C 169.063 165.948 168.723 168.145 168.609 170.077C 168.457 172.613 168.386 174.951 167.617 175.29C 166.086 175.969 165.069 177.122 164.22 176.733C 163.252 176.29 159.874 172.387 159.55 171.634C 158.982 170.314 155.018 172.219 154.246 173.476C 154.09 173.916 153.957 174.977 153.487 175.427C 152.754 175.929 152.477 177.915 151.936 179.275C 151.221 181.068 150.544 182.839 150.205 183.972C 149.972 184.758 151.056 186.537 151.237 187.251C 151.352 187.705 151.621 189.024 151.621 189.537C 151.621 189.956 151.773 191.4 150.913 191.512C 150.347 191.584 148.789 191.073 148.508 190.704C 148.011 190.058 149.593 187.73 149.453 187.19C 149.144 187.287 147.87 189.171 146.948 189.901C 146.211 190.446 144.834 190.388 143.906 190.925C 143.175 191.349 142.414 192.306 142.089 192.655C 141.388 193.405 143.779 193.45 143.6 193.728C 143.524 193.846 143.15 194.08 142.666 194.509C 141.935 195.154 141.006 196.052 140.862 196.167C 140.581 196.393 141.563 193.629 141.241 193.728C 139.707 194.198 138.059 194.423 137.465 193.436C 137.123 192.867 138.252 192.832 138.404 192.036C 135.484 190.998 128.617 192.39 126.518 192.752C 125.468 192.934 124.572 193.947 123.78 194.312C 122.991 194.678 120.538 195.241 119.724 195.874C 118.967 196.458 118.731 198.362 118.024 199.094C 117.818 199.305 117.726 198.447 117.401 198.481C 116.43 198.588 115.061 197.972 114.108 197.092C 113.777 196.069 113.966 194.41 113.542 194.019C 112.928 193.533 110.662 192.85 110.001 193.239C 109.231 193.697 108.339 194.258 107.424 194.743C 107.213 194.859 107.102 195.576 106.887 195.678C 106.613 195.813 106.232 195.326 105.963 195.432C 105.069 195.783 102.226 195.965 101.508 195.802C 101.293 194.618 102.287 191.886 101.508 191.461C 100.728 191.04 97.3788 192.56 97.1668 192.048C 96.8822 191.362 96.9501 190.356 96.9918 189.45C 97.0239 188.77 97.0692 188.146 96.7905 187.756C 96.4844 187.335 96.5094 185.571 96.3117 184.929C 95.9651 183.801 97.087 182.094 97.3538 181.122C 97.5432 180.438 99.1487 180.829 100.753 178.587C 99.6084 177.676 98.2995 176.829 98.8652 176.441C 99.8133 175.786 100.71 170.416 100.414 169.834C 99.612 169.769 97.2407 171.173 96.0282 171.7C 94.2345 172.48 92.3027 174.218 90.5614 175.856C 91.9263 175.932 92.2587 175.561 93.5807 175.66C 93.3592 176.126 91.12 178.041 90.0815 178.332C 89.8826 180.809 89.3002 183.084 89.804 185.413C 90.0017 186.316 91.3535 187.014 91.4726 188.053C 91.5369 188.592 90.2923 188.512 90.2708 189.024C 90.1767 191.365 92.5886 195.315 93.0149 197.657C 92.3384 197.657 91.7179 197.604 91.1272 197.515C 90.4423 197.411 90.1672 198.751 89.5229 198.586C 88.9762 198.441 88.0579 196.794 87.491 196.645C 87.1122 196.544 84.8565 196.071 84.3777 196.924C 83.8715 197.834 84.1478 200.952 83.6714 200.877C 82.2553 198.827 80.1519 197.549 77.727 198.096C 76.692 198.328 73.9634 198.514 73.3357 199.998C 72.8676 201.108 75.052 204.874 75.4593 206.875C 75.5963 207.544 73.1559 209.502 73.0534 209.656C 72.7557 210.102 73.5942 206.785 72.9129 206.486C 71.66 205.936 70.5654 205.313 69.9866 205.705C 69.1278 206.286 68.0166 208.602 66.9483 210.376C 66.7136 210.764 67.7606 211.829 67.5319 212.142C 67.2663 212.511 66.8042 212.096 66.2122 212.096C 66.0383 212.096 65.338 212.4 65.2677 212.435C 64.4805 212.839 61.0515 213.679 58.6302 214.366C 57.4142 214.712 56.453 215.02 56.2077 215.215C 55.5454 216.63 56.2077 219.753 56.0183 221.313C 55.5645 221.603 54.6629 222.6 54.1007 222.775C 51.8533 223.472 49.0163 223.447 47.799 224.315C 47.2297 224.714 47.3608 225.58 47.6871 226.308C 47.8193 226.593 51.7056 227.347 51.8664 227.557C 51.5746 227.587 49.9786 227.165 47.7145 227.165C 46.2055 228.044 43.4673 228.238 42.4752 228.093C 41.7677 227.36 41.5295 226.037 41.3437 225.313C 40.4933 225.021 38.7985 225.32 38.4888 225.388C 38.5591 226.387 38.8461 227.87 39.2201 229.702C 39.5179 231.167 39.2309 232.086 39.3142 232.823C 37.5229 232.727 35.2064 233.387 32.9911 233.213C 32.2527 233.157 31.3856 231.457 30.7258 231.262C 29.5919 231.457 27.8947 231.262 26.5727 231.849C 25.2518 231.75 24.1192 232.53 23.1342 233.219C 23.1342 233.733 23.6475 235.75 24.4967 236.14C 24.9898 236.368 25.1578 237.018 24.4967 237.505C 24.5742 238.245 25.1578 238.822 25.6294 238.677C 26.163 238.511 27.7196 238.48 28.3676 238.578C 30.3161 238.878 32.1931 240.29 33.2746 241.409C 33.9344 242.091 36.4379 242.178 38.1816 243.653C 38.1577 244.265 38.6937 245.911 38.9367 246.285C 39.4035 247.01 40.9328 247.977 42.0524 248.82C 42.4073 249.091 42.4275 249.895 42.7122 250.87C 42.7587 251.451 42.8063 254.382 42.6169 255.26C 42.3346 254.774 42.2429 254.432 41.8618 254.286C 41.2961 255.747 40.9066 263.414 40.3528 263.797C 40.1741 263.919 39.6322 263.997 38.8426 264.042C 34.9563 264.255 25.0256 263.615 22.3958 263.073C 21.7943 262.948 20.1888 262.32 19.2134 262.284C 16.2013 262.176 12.6723 262.915 10.17 262.521C 8.88246 262.318 8.0023 261.179 7.0078 261.26C 5.92278 261.351 5.49639 262.082 5.07358 262.961C 4.67816 263.774 1.28256 263.88 1.14559 264.699C 0.826401 266.618 2.83327 266.36 2.71893 267.317C 2.50098 269.164 2.97381 271.153 2.86066 273.507C 2.85114 273.732 2.80707 274.218 2.77134 274.563C 2.85709 274.889 2.68201 283.643 1.46241 284.186C -0.607587 285.11 0.115362 289.251 0.149902 291.158C 0.184441 293.222 1.68989 292.481 2.41403 294.278C 3.38233 296.689 2.6963 298.506 2.6963 301.4C 4.05049 301.297 5.94541 303.471 7.12571 303.132C 8.32864 302.928 9.27193 302.039 10.1604 301.824C 10.5249 301.736 10.8822 301.765 11.2419 301.999C 11.7421 302.33 14.2385 302.839 14.304 303.449C 14.4934 305.201 17.3828 307.786 18.5524 307.25C 19.0538 307.017 19.0121 306.164 19.5588 305.869C 21.7312 304.697 22.2802 303.73 25.9129 303.73C 28.5522 303.73 35.5458 304.784 37.2383 304.03C 37.6396 303.855 37.1156 302.794 37.6635 302.276C 37.9374 302.016 38.8581 301.935 39.2201 301.691C 40.3302 300.942 41.0388 300.081 41.1127 299.309C 43.4899 298.49 46.5806 297.202 47.3357 295.449C 45.4492 293.499 45.1002 290.914 45.0716 289.404C 45.0025 285.877 49.7571 280.544 51.9605 280.037C 53.0014 279.8 59.1507 278.078 60.5489 277.111C 62.4974 275.764 61.6947 273.177 62.0591 271.551C 62.3426 270.283 62.0186 269.823 62.2473 267.941C 62.5641 265.321 69.4208 263.455 70.931 265.015C 72.8653 267.014 76.6777 268.823 78.1022 268.332C 78.2499 267.268 80.6903 266.204 82.2076 264.953C 82.4065 264.789 82.5923 264.621 82.7519 264.451C 82.9353 264.252 83.0878 264.053 83.1974 263.844C 85.0554 260.392 88.4283 258.23 90.5614 258.384C 93.009 261.096 95.8793 261.755 97.1668 262.675C 98.452 263.592 98.9605 265.237 99.9991 266.575C 101.266 268.214 101.608 269.388 104.151 272.039C 105.168 273.101 108.28 275.871 109.812 276.915C 111.149 277.829 112.393 278.891 113.911 279.751C 114.628 280.158 115.405 280.519 116.284 280.798C 116.935 281.006 117.009 281.64 117.739 281.989C 119.097 282.638 121.128 283.176 122.082 284.33C 124.048 286.705 125.464 289.838 125.101 290.964C 124.87 291.677 123.69 292.312 123.592 292.913C 123.403 294.084 124.158 297.401 125.101 297.598C 126.046 297.789 127.609 297.521 127.932 296.621C 128.298 295.601 127.588 293.624 127.743 292.524C 127.901 291.422 129.592 291.589 130.199 290.964C 130.764 290.379 130.213 288.331 129.066 286.477C 128.724 285.926 127.531 285.701 127.178 284.916C 126.676 283.788 127.097 282.13 127.39 281.993C 128.45 281.5 130.346 281.397 131.331 281.989C 133.288 283.167 135.064 287.272 135.673 287.06C 136.804 286.672 137.596 284.424 136.804 282.381C 136.455 281.474 132.448 279.526 131.67 278.718C 130.17 277.171 128.405 276.971 126.612 276.526C 126.1 276.4 126.886 274.652 126.235 274.382C 125.294 273.829 122.456 274.296 121.516 273.6C 119.551 272.145 118.909 271.305 117.726 270.204C 115.978 268.575 115.659 266.197 113.211 263.844C 111.994 262.677 108.834 260.963 107.049 259.058C 106.452 258.422 107.337 257.096 107.17 256.431C 106.83 255.074 105.661 254.48 107.588 253.498C 108.707 252.965 112.089 251.678 114.531 251.749C 114.682 251.753 114.587 251.942 114.449 252.23C 114.266 252.615 114.005 253.171 114.154 253.701C 114.51 254.966 116.087 256.259 116.42 256.431C 117.264 256.867 118.075 253.313 118.555 253.576C 121.491 255.175 119.794 258.025 121.892 260.918C 123.993 263.811 123.114 263.264 126.612 265.795C 127.245 266.254 130.062 266.759 131.708 267.552C 133.335 268.336 135.226 269.437 136.802 270.566C 136.802 270.566 136.817 270.532 136.837 270.482C 136.817 270.532 136.802 270.566 136.802 270.566C 138.4 271.713 139.673 272.887 140.014 273.795C 140.15 274.427 142.115 275.599 142.278 276.721C 142.46 277.969 140.848 279.196 141.145 280.429C 141.518 281.971 140.769 283.549 141.712 284.722C 142.081 285.227 143.228 285.653 143.978 286.281C 144.267 286.525 144.391 287.071 144.543 287.256C 145.371 288.262 147.092 289.842 146.555 290.774C 146.242 291.158 147.62 293.122 148.129 293.499C 148.739 293.95 149.775 292.313 151.362 292.84C 154.331 293.822 157.906 294.856 157.945 295.644C 157.959 295.93 154.729 294.877 152.283 295.06C 150.615 295.182 149.411 296.483 149.453 296.814C 149.579 297.882 151.294 298.974 152.66 300.521C 153.694 301.691 153.752 303.413 154.736 304.422C 155.977 305.692 159.026 306.305 159.643 306.177C 160.736 305.953 159.102 302.59 159.124 301.4C 159.138 300.681 160.749 302.061 161.106 301.691C 161.333 301.46 158.74 297.276 158.982 297.157C 159.495 296.906 160.284 296.721 160.964 296.572C 162.531 296.223 164.806 299.426 165.872 298.765C 167.622 297.68 165.273 295.669 162.475 293.499C 161.135 292.457 158.319 287.348 158.7 285.5C 158.955 284.261 162.512 286.912 163.938 287.06C 164.818 287.154 165.714 286.111 166.202 286.038C 166.815 285.947 165.049 283.262 165.354 282.965C 166.26 282.072 166.435 281.573 169.359 281.336C 170.536 281.246 171.89 280.195 174.272 280.623C 174.638 280.689 176.105 280.388 176.65 280.808C 177.406 281.397 178.014 282.251 177.575 283.161C 177.24 283.854 178.872 284.063 180.501 282.965C 181.509 282.285 182.239 280.448 183.33 279.891C 184.681 279.204 185.548 280.062 186.445 279.598C 187.335 279.14 187.778 278.817 187.862 278.135C 187.943 277.461 186.801 278.003 185.879 277.111C 184.808 276.073 183.191 274.479 182.906 273.16C 182.732 272.349 182.556 271.693 182.439 271.121C 181.348 271.258 182.206 268.939 183.253 267.602C 183.655 267.093 184.464 266.137 185.314 266.43C 185.788 265.857 186.113 265.212 186.35 264.546C 186.71 263.528 186.859 262.456 187.013 261.504C 187.719 257.065 189.56 257.503 190.269 255.894C 190.694 254.923 189.79 254.302 190.269 252.677C 190.564 251.668 192.423 250.496 192.958 249.604C 193.781 248.225 193.809 246.273 194.657 245.945C 196.056 245.402 197.464 244.731 199.186 244.627C 200.125 244.571 203.01 244.627 202.869 246.091C 202.806 246.728 203.053 247.171 203.486 247.479C 203.905 247.779 205.336 247.451 205.982 247.554C 207.914 247.862 211.46 247.839 211.078 248.432C 209.68 250.602 204.381 250.889 206.832 252.334C 207.636 252.81 210.566 253.961 211.078 255.015C 211.644 256.188 210.086 258.674 211.644 258.674C 214.655 258.674 216.396 256.185 218.296 255.747C 219.246 255.53 220.443 254.641 221.555 254.58C 223.009 254.495 224.321 255.228 224.762 254.674C 225.249 254.067 223.002 254.011 221.271 252.821C 220.844 252.529 219.924 251.575 219.572 251.212C 219.151 250.776 218.164 249.734 217.471 248.748C 217 248.081 214.264 248.251 214.332 247.845C 214.543 246.627 219.709 245.069 222.016 245.069C 224.348 245.069 227.781 244.317 230.19 243.456C 232.12 242.767 234.961 242.677 236.089 242.773C 236.436 243.849 231.893 245.23 231.179 246.677C 230.901 247.242 232.498 248.868 232.313 249.406C 231.54 251.66 228.223 252.804 227.075 253.99C 226.508 254.58 229.066 256.032 231.866 257.118C 234.834 258.267 236.385 259.414 238.352 261.504C 239.462 262.683 240.877 263.797 242.901 265.183C 244.061 265.976 245.42 266.859 247.035 267.892C 250.786 270.292 250.433 273.989 249.678 275.55C 248.974 277.006 245.157 278.76 243.07 279.308C 241.695 279.668 239.181 278.805 238.399 278.868C 237.133 278.967 235.27 279.365 234.153 279.454C 231.258 279.681 229.367 279.328 226.083 277.501C 224.731 276.75 224.493 275.613 222.686 275.063C 221.78 274.787 219.718 274.087 218.721 273.893C 215.034 273.173 213.097 273.794 208.718 274.771C 203.479 275.941 203.238 278.72 199.47 278.72C 197.894 278.72 190.86 277.102 189.42 278.282C 188.743 278.837 191.805 279.724 190.833 280.037C 189.738 280.392 187.499 280.581 187.418 281.336C 187.183 283.5 180.716 284.253 181.467 283.87C 179.508 284.867 176.708 286.761 177.408 288.932C 177.776 290.073 179.508 289.842 180.784 289.257C 181.037 290.389 181.559 295.836 181.209 297.45C 180.856 299.062 179.348 298.449 179.463 299.741C 179.55 300.734 182.478 299.767 182.906 300.521C 184.195 302.788 186.729 305.346 186.589 306.518C 187.378 306.724 188.862 305.953 189.985 306.082C 191.842 306.289 191.221 307.658 192.391 307.542C 193.331 307.454 196.612 307.33 197.629 306.518C 198.648 305.708 198.479 304.326 198.622 303.156C 202.444 302.86 204.29 304.591 206.267 306.567C 207.821 308.129 213.357 304.167 216.033 303.595C 217.315 303.319 218.802 304.644 219.713 304.617C 221.833 304.553 222.635 301.718 224.102 303.74C 224.97 304.935 223.16 306.724 222.828 308.417C 222.391 310.649 222.898 312.991 222.715 315.686C 222.702 315.901 222.712 316.097 222.686 316.317C 222.384 319.024 220.734 322.302 219.713 325.023C 219.294 326.143 218.981 327.168 218.912 328.018C 218.154 330.497 217.774 332.194 217.173 333.421C 216.769 334.247 216.265 334.864 215.467 335.337L 215.725 336.269L 217.984 344.519C 217.993 344.523 218.001 344.539 218.013 344.551C 218.201 344.706 218.364 344.955 218.508 345.288C 219.105 346.671 219.417 349.35 220.26 351.219C 220.532 351.822 221.806 352.331 222.118 352.898C 223.579 355.524 224.39 357.901 225.415 360.723C 226.134 362.703 231.508 368.924 232.942 370.649C 233.892 371.798 236.176 373.25 237.377 375.071C 239.781 378.712 238.378 386.061 240.148 388.993C 242.526 392.923 245.768 393.838 248.218 398.9C 250.667 403.964 255.246 410.84 255.257 412.553C 255.299 419.071 259.776 426.646 260.625 430.157C 261.073 432.008 264.901 431.194 268.27 429.573C 269.459 428.999 270.673 426.921 272.799 426.349C 274.925 425.782 277.961 426.717 280.312 424.694C 288.709 417.461 291.391 422.06 296.488 418.353C 298.006 417.249 298.989 417.847 303.095 416.206C 305.916 415.08 305.925 411.816 307.059 410.94C 308.365 409.924 311.297 410.495 314.418 408.987C 318.454 407.043 322.81 402.947 324.416 401.17C 325.41 400.063 324.454 398.734 325.462 397.966C 326.655 397.055 329.795 396.729 330.691 395.544C 332.878 392.647 331.576 390.041 332.592 389.645C 335.392 388.557 336.716 388.287 338.485 385.086C 339.618 383.038 342.167 383.038 341.885 379.527C 340.466 378.796 337.261 378.701 335.371 377.772C 334.241 377.216 334.434 375.921 333.387 375.245C 330.585 373.437 326.712 375.103 324.612 372.209C 323.824 371.126 323.51 369.536 323.427 367.846C 323.367 366.605 323.431 365.31 323.526 364.118C 323.65 362.607 323.823 361.263 323.857 360.407C 323.076 360.396 321.638 361.002 320.36 362.033C 319.342 362.852 318.42 363.939 318.008 365.189C 316.379 370.1 315.836 372.209 314.136 372.209C 311.304 372.209 303.51 372.444 300.83 371.335C 300.392 371.154 300.211 370.576 300.127 369.766C 299.944 367.962 300.257 365.011 299.32 362.749C 298.47 360.703 296.677 364.506 295.734 366.848C 294.876 366.49 293.004 359.258 290.92 355.821C 289.561 353.582 287.519 352.56 286.967 351.991C 286.332 351.339 285.356 349.943 284.446 348.478C 283.347 346.704 282.342 344.833 282.149 344.042C 282.052 343.639 282.292 343.248 282.778 342.902C 283.6 342.315 285.128 341.861 286.933 341.689C 287.891 341.593 288.927 341.581 289.976 341.673C 291.026 341.762 294.913 347.233 295.734 348.505C 296.865 350.261 300.46 353.899 303.661 355.531C 307.661 357.572 310.786 360.059 314.987 359.335C 316.082 359.145 319.247 356.816 322.006 355.68C 323.521 355.054 326.124 356.8 326.878 357.578C 328.01 358.749 328.01 361.278 328.01 364.894C 331.974 368.019 343.729 366.49 346.695 366.65C 347.378 366.69 348.233 366.666 349.166 366.614C 352.355 366.433 356.653 365.872 359.717 365.872C 365.148 365.872 372.979 362.749 374.729 364.919C 376.478 367.088 375.484 368.968 377.581 370.323C 379.583 371.618 379.56 371.908 381.073 373.055C 381.524 373.398 381.908 373.783 382.252 374.187C 383.832 376.046 384.531 378.284 386.687 378.284C 389.312 378.284 391.093 375.544 391.874 378.107C 392.445 379.988 385.132 380.446 386.108 381.736C 387.033 382.946 391.115 387.383 393.738 388.827C 396.363 390.274 400.564 386.966 401.612 384.795C 402.746 386.355 403.094 385.765 404.143 390.466C 405.194 395.168 405.219 396.1 405.411 400.512C 405.572 404.222 406.042 409.77 406.927 412.917C 408.091 417.044 410.298 418.353 411.356 421.378C 413.204 426.66 415.135 427.108 416.183 432.17C 416.54 433.894 418.451 434.836 419.353 436.319C 421.098 439.184 420.542 442.668 421.464 445.054C 423.701 450.83 427.32 453.779 429.071 452.694C 430.005 452.112 430.302 448.984 431.435 448.396C 432.915 447.635 434.161 447.35 435.406 445.926C 435.944 445.308 436.486 443.401 436.889 441.761C 437.204 440.486 438.715 441.59 438.798 441.374C 439.543 439.452 439.355 436.721 439.931 434.35C 440.439 432.262 441.731 430.682 442.092 426.874C 442.299 424.672 440.307 419.152 440.497 417.573C 440.686 416.014 442.072 413.883 442.762 413.476C 445.141 412.071 447.765 411.887 449.285 410.993C 450.49 410.289 451.969 409.318 452.767 408.207C 453.265 407.51 453.185 406.577 453.571 406.187C 458.056 401.653 464.649 396.126 468.148 393.96C 469.898 392.872 473.04 391.785 473.906 390.453C 474.774 389.124 473.368 387.546 475.119 386.1C 476.376 385.059 479.72 384.142 483.248 383.822C 485.531 383.612 488.057 384.122 489.589 383.423C 490.938 382.81 490.31 381.419 491.081 380.895C 491.858 380.368 494.824 379.576 496.367 379.918C 498.27 380.341 498.904 384.397 500.057 387.44C 500.502 388.617 501.025 389.651 501.736 390.247C 504.325 392.428 504.88 395.417 506.56 396.501C 508.07 397.476 509.72 400.93 510.395 404.221C 511.138 407.828 509.391 414.257 511.451 414.704C 513.16 415.072 517.554 414.997 519.058 413.826C 519.917 413.165 521.895 412.673 522.415 412.109C 523.98 410.415 523.004 409.149 523.914 409.244C 527.413 409.605 525.172 414.075 526.24 417.543C 527.717 422.346 527.839 424.423 529.873 426.936C 530.866 428.169 530.221 429.578 530.154 431.232C 530.104 432.481 530.341 435.529 530.341 437.082C 530.341 441.204 528.708 440.133 529.408 444.833C 529.454 445.141 529.537 445.574 529.643 446.093C 530.19 448.702 531.421 453.476 532.23 455.227C 532.605 456.034 533.025 453.145 533.741 453.861C 535.88 456.01 538.773 458.73 538.932 460.372C 538.982 460.886 539.065 461.404 539.169 461.92C 539.805 465.035 541.26 468.179 541.236 471.035C 541.222 472.951 544.047 478.511 545.725 480.491C 546.659 481.594 549.477 482.501 550.823 483.418C 553.001 484.905 553.862 486.294 555.593 487.635C 556.641 488.451 557.331 487.672 557.951 487.484C 558.98 487.17 560.845 488.609 560.407 486.346C 560.12 484.86 557.096 482.029 556.39 479.615C 555.382 476.157 556.116 472.076 554.882 468.883C 554.087 466.837 552.264 465.423 549.972 463.226C 549.745 463.009 548.593 462.006 548.394 461.783C 547.358 460.625 546.644 459.429 545.443 458.543C 543.041 456.77 540.562 456.065 540.426 455.076C 540.169 453.224 540.062 451.289 538.928 449.583C 538.703 449.246 538.222 447.805 537.137 446.837C 536.22 446.019 534.683 445.674 534.477 445.271C 532.154 440.739 534.325 440.382 535.112 436.971C 536.421 431.3 537.489 431.972 537.857 430.207C 538.361 427.773 537.495 426.63 539.547 426.491C 541.77 426.347 543.242 427.842 543.973 430.289C 544.177 430.972 544.041 431.955 544.499 432.205C 545.873 432.951 548.881 432.348 550.538 433.377C 551.273 433.829 551.878 434.683 552.421 435.694C 553.38 437.467 554.146 439.734 555.069 441.18C 555.81 442.34 556.849 440.968 557.503 441.837C 557.63 442.005 557.449 442.439 557.401 442.872C 557.35 443.31 557.435 443.744 558.091 443.91C 559.527 444.278 560.309 445.024 560.461 445.706C 560.901 447.69 559.628 450.822 561.299 451.715C 562.044 452.112 563.349 449.762 565.073 448.009C 565.619 447.449 566.722 447.996 567.338 447.62C 568.186 447.097 568.643 443.96 569.414 443.522C 570.203 443.07 572.415 443.239 573.002 442.937C 574.758 442.023 574.151 442.408 576.775 439.422C 578.314 437.675 582.776 437.674 583.488 436.646C 584.023 435.87 583.135 431.076 583.488 430.422C 583.912 429.622 583.956 427.547 583.633 425.175C 583.489 424.085 582.543 422.981 582.249 421.863C 581.632 419.51 581.412 417.243 580.173 416.014C 577.316 413.175 572.508 408.681 569.227 404.891C 567.165 402.509 566.303 399.42 565.45 397.867C 564.016 395.257 569.392 393.426 571.492 389.085C 571.865 388.319 573.53 387.646 575.685 387.098C 578.895 386.289 583.196 385.765 586.021 385.661C 587.401 385.609 585.706 388.065 586.232 390.029C 586.52 391.112 587.952 391.71 588.51 391.676C 592.357 391.449 589.089 388.622 590.655 386.791C 591.882 385.345 595.404 385.011 596.161 384.79C 598.149 384.208 600.27 383.242 602.287 382.169C 603.721 381.409 604.134 380.702 604.914 380.595C 606.941 380.314 603.704 377.414 605.493 377.884C 606.461 378.138 607.536 380.387 608.39 380.387C 610.023 380.387 614.321 378.004 617.283 377.366C 619.212 376.947 621.169 374.542 623.104 373.5C 625.846 372.023 628.022 370.109 630.528 368.811C 632.68 367.699 631.451 364.577 634.49 362.837C 635.136 362.467 634.375 359.411 635.01 359.01C 635.588 358.645 636.21 359.741 636.761 359.258C 638.777 357.484 640.077 352.441 641.791 350.737C 642.566 349.965 643.267 351.799 643.925 350.96C 644.414 350.332 643.599 347.512 643.962 346.4C 644.341 345.24 645.896 345.773 646.049 344.601C 646.119 344.049 644.909 343.487 644.991 343.016C 645.135 342.181 646.054 341.555 646.325 341.231C 646.578 340.92 645.037 339.229 643.493 339.572C 641.432 340.027 637.884 339.753 638.257 339.201C 638.654 338.621 645.548 336.515 645.658 335.748C 645.769 335 641.627 332.311 641.583 331.579C 641.532 330.767 645.553 331.913 645.148 331.089C 644.156 329.057 641.402 325.225 640.575 323.515C 638.474 319.175 639.181 320.872 637.959 316.98C 637.629 315.934 633.212 315.662 633.212 313.781C 633.212 310.996 641.513 304.101 644.823 303.252C 645.873 302.979 647.3 303.948 648.311 303.252C 649.701 302.296 650.53 300.395 649.963 299.938C 648.498 298.76 641.025 297.446 639.019 298.883C 638.075 299.56 637.383 301.292 636.304 301.592C 634.693 302.039 632.76 300.851 632.073 300.638C 630.802 300.244 633.487 297.26 631.518 297.038C 629.379 296.791 624.189 295.12 624.21 293.352C 624.223 292.02 626.465 289.586 628.269 289.586C 629.499 289.586 630.999 290.439 632.183 289.559C 633.372 288.675 635.861 284.212 636.897 283.51C 638.357 282.521 640.179 283.438 641.047 281.64C 642.073 279.516 644.636 278.982 645.859 279.647C 646.712 280.113 648.251 280.125 648.427 281.025C 648.709 282.446 645.507 282.485 644.414 284.52C 643.666 285.914 645.228 286.274 644.836 287.358C 644.316 288.801 643.478 290.783 643.973 291.158C 644.833 291.814 648.009 289.489 648.82 288.256C 650.562 285.61 657.663 283.681 660.616 283.401C 661.475 283.32 659.237 288.107 660.182 288.235C 661.13 288.368 663.099 287.54 663.896 288.146C 664.607 288.689 663.512 290.547 663.219 292.199C 663.122 292.75 664.681 292.166 664.506 292.981C 664.247 294.178 663.498 293.26 662.754 293.593C 661.704 294.06 660.648 296.384 660.822 296.95C 660.893 297.172 661.871 296.654 662.782 297.073C 663.397 297.358 662.974 299.091 663.76 299.156C 664.246 299.197 665.052 297.536 665.479 297.776C 666.671 298.451 668.229 298.187 668.752 298.283C 668.848 298.301 668.918 298.326 668.936 298.374C 669.432 299.663 671.023 301.705 670.66 303.421C 670.512 304.104 668.191 303.687 667.859 304.088C 667.6 304.399 669.247 305.492 669.247 306.034C 669.247 306.775 669.186 309.338 669.075 310.467C 668.967 311.568 668.495 311.806 668.11 312.965C 667.368 315.193 667.643 316.672 668.508 317.682C 669.253 318.553 671.673 317.397 674.163 316.534C 674.919 316.275 675.132 315.325 675.859 315.183C 676.623 315.033 677.886 315.694 678.074 315.611C 678.679 315.34 678.232 315.081 679.353 313.829C 679.954 313.156 680.906 314.564 681.804 313.989C 683.018 313.209 683.055 310.235 683.073 308.969C 683.098 307.007 682.452 301.617 682.227 300.675C 681.91 299.351 679.963 296.312 678.719 294.25C 678.094 293.21 674.432 290.9 673.959 289.907C 673.456 288.855 674.022 287.739 674.157 287.133C 674.51 285.577 680.641 285.864 681.64 284.144C 682.497 282.663 685.003 278.828 685.139 277.655C 685.462 274.791 685.796 273.396 687.927 271.668C 689.708 270.222 690.727 269 692.305 267.099C 692.727 266.59 693.571 263.803 694.244 264.203C 695.13 264.734 696.282 265.933 697.297 267.273C 698.312 268.613 699.341 268.798 700.993 268.337C 703.633 267.601 708.376 265.864 710.592 263.898C 712.856 261.895 722.268 252.656 726.078 246.091C 729.227 240.666 733.36 234.991 734.759 232.823C 736.158 230.652 735.892 227.02 735.892 222.679C 735.892 220.945 736.805 217.568 737.781 214.094C 738.141 212.804 739.872 211.767 739.857 210.583C 739.827 208.536 740.874 204.446 740.045 202.388C 739.408 200.81 737.898 200.576 737.307 199.516C 736.197 197.526 731.165 195.54 730.336 195.419C 728.418 195.142 726.883 199.45 722.679 198.876C 720.191 198.538 720.352 194.851 718.453 194.436C 715.443 193.782 712.217 195.867 711.356 194.973C 709.955 193.529 714.944 191.818 717.395 188.926C 719.845 186.033 721.922 185.216 726.833 181.122C 729.722 178.713 733.112 173.379 741.554 167.66C 742.699 166.887 743.276 164.551 745.331 163.759C 751.532 161.369 761.588 160.802 764.204 161.418C 766.495 161.954 766.532 161.628 771.376 161.418C 773.801 161.314 777.218 161.774 778.983 160.926C 780.745 160.079 780.855 157.921 781.994 157.652C 785.544 156.804 789.362 157.065 791.737 159.849C 792.174 160.358 789.222 161.486 789.875 162.979C 790.417 164.216 797.368 164.51 798.029 164.655C 799.491 164.974 809.38 162.153 810.073 162.003C 812.683 161.439 804.259 159.14 805.92 157.712C 806.591 157.134 807.824 156.434 809.884 155.175C 814.267 152.488 817.684 148.35 816.972 145.888C 816.368 143.796 820.682 145.247 824.984 144.641C 828.117 144.197 832.454 143.777 833.666 143.663C 835.409 143.5 833.177 144.584 833.285 147.761C 833.341 149.251 833.796 149.714 834.582 150.175C 835.204 150.543 837.864 151.991 840.368 149.713C 842.332 147.928 846.6 146.818 846.878 145.809C 847.092 145.039 845.693 144.454 845.908 143.785C 846.522 141.856 847.276 140.369 848.923 139.397C 852.769 137.126 857.953 138.176 857.45 138.785C 856.697 139.696 854.97 140.441 854.033 141.693C 852.582 143.623 853.303 146.456 852.92 148.54C 852.443 151.115 846.059 150.438 844.613 151.466C 843.384 152.344 841.029 154.103 839.575 156.098C 836.425 160.44 833.52 164.077 830.389 167.488C 827.541 170.601 824.322 169.478 820.454 171.953C 818.442 173.241 817.808 176.301 816.112 178.393C 815.007 179.753 812.928 181.608 811.959 183.465C 809.511 188.167 812.56 193.248 813.037 196.026C 813.45 198.468 814.842 202.075 815.176 206.093C 815.226 206.661 816.112 208.049 816.112 208.629C 816.112 212.571 816.112 216.826 816.867 218.388C 818.944 218.388 822.537 215.335 823.094 212.729C 823.852 209.217 826.303 206.682 827.328 205.499C 828.687 203.934 832.398 203.865 833.666 202.388C 834.941 200.909 832.966 198.143 834.043 196.146C 834.638 195.04 837.244 193.629 839.139 193.61C 841.354 193.586 842.88 195.028 843.291 194.389C 843.646 193.847 842.231 189.569 842.161 188.926C 842.004 187.452 842.728 185.025 844.425 183.465C 846.183 181.851 846.83 186.303 848.578 185.219C 850.326 184.133 850.386 184.04 850.279 182.293C 850.23 181.477 849.43 180.058 847.636 179.366C 846.074 178.766 846.846 174.004 846.051 173.288C 844.496 171.888 845.311 170.231 845.836 169.356C 846.475 168.304 845.989 166.614 847.257 164.539C 848.721 162.146 849.627 156.989 850.279 156.15C 850.871 155.381 853.586 155.137 854.618 155.563C 855.563 155.955 856.077 157.397 856.883 156.15C 858.28 153.98 862.135 148.529 862.676 149.467C 863.309 150.56 861.978 155.103 862.546 155.758C 863.301 156.63 867.171 151.808 868.169 150.777C 869.915 148.968 871.638 147.796 875.142 148.158C 878.637 148.517 879.754 157.013 882.552 155.563C 883.939 154.846 884.562 151.803 886.337 149.467C 888.142 147.081 889.836 144.641 891.426 144.641C 892.84 144.641 894.039 144.38 894.998 143.043C 896.174 141.398 900.527 140.007 903.503 138.161C 907.279 135.822 910.96 134.882 913.06 133.435C 915.156 131.99 927.222 136.049 928.62 135.688C 931.334 134.987 932.319 129.249 930.1 128.048C 927.462 127.063 927.982 122.694 925.024 121.384C 924.634 121.211 922.464 121.581 921.246 120.992C 920.638 120.697 918.088 121.271 917.945 120.976C 917.583 120.239 921.168 118.674 922.646 118.564C 923.979 118.466 928.131 117.761 929.343 116.95C 930.361 116.266 930.846 115.225 931.554 114.23C 932.263 113.232 933.014 112.28 933.158 111.776C 933.672 109.993 932.682 110.203 932.593 107.959C 932.526 106.249 935.07 106.02 936.37 105.619C 937.94 105.131 937.879 108.833 938.677 110.6C 939.2 111.76 940.931 112.35 942.267 112.566C 943.345 112.74 946.332 108.137 946.962 109.713C 947.428 110.891 950.086 110.573 950.146 111.276C 950.33 113.386 948.447 114.205 950.068 115.379C 951.097 116.127 953.811 117.063 955.534 118.08C 958.55 119.86 961.234 120.33 962.741 120.455C 964.904 120.633 965.816 116.036 965.197 113.903C 964.671 112.097 965.698 111.738 966.705 111.152C 967.71 110.564 969.052 110.314 971.852 110.496C 974.297 110.653 977.032 107.788 977 106.238Z"/>
<path id="path53_fill" fill-rule="evenodd" d="M 9.20139 7.06192C 9.91598 4.74208 11.7907 1.00031 10.6294 0.307156C 8.72296 -0.826058 3.95694 1.39713 1.90566 3.37866C -0.718998 5.91854 -0.813953 8.60722 2.76391 9.76714C 5.68439 10.7134 8.73513 8.56779 9.20139 7.06192Z"/>
<path id="path54_fill" fill-rule="evenodd" d="M 3.6436 17C 4.25155 16.5537 4.28681 15.0904 4.98473 13.6593C 5.92096 11.7359 7.44933 9.69859 7.44933 8.69546C 7.44933 6.94805 8.86827 4.02035 8.99837 1.57926C 9.06281 0.392074 7.2025 -0.476457 6.04984 0.28854C 3.96217 1.67474 2.26965 3.95018 1.28965 6.08412C 0.823963 7.09299 0.123612 9.22233 0.00323916 10.9111C -0.0757935 12.0626 1.31153 13.2993 1.96446 14.376C 2.76573 15.6978 2.93231 16.7688 3.6436 17Z"/>
</defs>
</svg>
