<svg width="24" height="25" viewBox="0 0 24 25" version="1.1" xmlns="http://www.w3.org/2000/svg" xmlns:xlink="http://www.w3.org/1999/xlink">
<title>Page 1 Copy</title>
<desc>Created using Figma</desc>
<g id="Canvas" transform="translate(-817 -1102)">
<g id="Page 1 Copy 6">
<mask id="mask0_outline" mask-type="alpha">
<g id="Mask">
<use xlink:href="#path0_fill" transform="translate(817 1102)" fill="#FFFFFF"/>
</g>
</mask>
<g id="Mask" mask="url(#mask0_outline)">
<use xlink:href="#path0_fill" transform="translate(817 1102)" fill="#D8D8D8"/>
</g>
<g id="Page 1" mask="url(#mask0_outline)">
<g id="Fill 1">
<use xlink:href="#path1_fill" transform="translate(816 1105)" fill="#FFFFFF"/>
</g>
<g id="Fill 2">
<use xlink:href="#path2_fill" transform="translate(820 1115)" fill="#D60029"/>
</g>
<g id="Fill 3">
<use xlink:href="#path3_fill" transform="translate(820 1099)" fill="#004A7B"/>
</g>
<g id="Group 12">
<g id="Fill 4">
<use xlink:href="#path4_fill" transform="translate(821 1110)" fill="#FFBD00"/>
</g>
<g id="Fill 6">
<use xlink:href="#path5_fill" transform="translate(820 1106)" fill="#FFBD00"/>
</g>
<g id="Fill 8">
<use xlink:href="#path6_fill" transform="translate(820 1121)" fill="#FFBD00"/>
</g>
<g id="Fill 10">
<use xlink:href="#path7_fill" transform="translate(833 1114)" fill="#FFBD00"/>
</g>
</g>
</g>
</g>
</g>
<defs>
<path id="path0_fill" fill-rule="evenodd" d="M 12 25C 18.6274 25 24 19.4036 24 12.5C 24 5.59644 18.6274 0 12 0C 5.37258 0 0 5.59644 0 12.5C 0 19.4036 5.37258 25 12 25Z"/>
<path id="path1_fill" fill-rule="evenodd" d="M 0 21L 34 21L 34 0L 0 0L 0 21Z"/>
<path id="path2_fill" fill-rule="evenodd" d="M 17.1238 0L 0 10.5186L 3.00056 14L 30 10.5186L 30 0L 17.1238 0Z"/>
<path id="path3_fill" fill-rule="evenodd" d="M 0 5.39526L 17.1238 16L 30 16L 30 5.39526L 4.19749 0L 0 5.39526Z"/>
<path id="path4_fill" fill-rule="evenodd" d="M 8.5769 4.83139L 9 4.50003L 8.5769 4.16861L 6.73403 4.31823C 6.7306 4.27541 6.72606 4.2329 6.72021 4.19079L 8.30912 3.95887L 7.99142 3.71006L 6.68562 4.00123C 6.62883 3.75146 6.5305 3.51767 6.39802 3.30728L 7.52742 2.58973L 7.57609 2.18922L 6.28874 3.14868C 6.26292 3.11459 6.23599 3.08136 6.2083 3.04883L 7.61714 1.8516L 7.68199 1.31806L 7.14845 1.38291L 5.95117 2.79169C 5.91864 2.76406 5.88546 2.73708 5.85137 2.71131L 6.81078 1.42396L 6.41022 1.47263L 5.69267 2.60193C 5.48238 2.4695 5.24854 2.37117 4.99877 2.31439L 5.28994 1.00853L 5.04113 0.690927L 4.80926 2.27979C 4.76715 2.27394 4.72459 2.2694 4.68177 2.26597L 4.83144 0.423099L 4.49997 0L 4.16856 0.423099L 4.31818 2.26597C 4.27536 2.2694 4.23285 2.27394 4.19074 2.27979L 3.95887 0.690927L 3.71006 1.00853L 4.00123 2.31439C 3.75146 2.37117 3.51762 2.4695 3.30723 2.60198L 2.58973 1.47268L 2.18922 1.42396L 3.14863 2.71126C 3.11454 2.73703 3.08141 2.76401 3.04883 2.79169L 1.85155 1.38291L 1.31806 1.31806L 1.38281 1.85155L 2.79169 3.04888C 2.76396 3.08141 2.73703 3.11459 2.71126 3.14868L 1.42396 2.18927L 1.47263 2.58973L 2.60193 3.30728C 2.46945 3.51767 2.37117 3.75151 2.31439 4.00128L 1.00853 3.71011L 0.690927 3.95887L 2.27979 4.19074C 2.27394 4.23285 2.2694 4.27536 2.26597 4.31818L 0.423099 4.16861L 0 4.49997L 0.423099 4.83139L 2.26597 4.68177C 2.26945 4.72474 2.27394 4.76725 2.27979 4.80936L 0.690927 5.04118L 1.00853 5.28994L 2.31444 4.99877C 2.37122 5.24849 2.4695 5.48238 2.60198 5.69272L 1.47263 6.41032L 1.42396 6.81078L 2.71126 5.85137C 2.73708 5.88546 2.76401 5.91864 2.79169 5.95117L 1.38281 7.1485L 1.31801 7.68194L 1.85155 7.61719L 3.04883 6.2083C 3.08141 6.23604 3.11454 6.26302 3.14863 6.28879L 2.18922 7.57609L 2.58973 7.52742L 3.30733 6.39807C 3.51772 6.5305 3.75151 6.62883 4.00128 6.68556L 3.71011 7.99147L 3.95887 8.30907L 4.19074 6.72021C 4.23285 6.72606 4.27536 6.7306 4.31818 6.73403L 4.16861 8.57695L 4.49997 9L 4.83144 8.57695L 4.68177 6.73403C 4.72459 6.7306 4.76715 6.72606 4.80926 6.72021L 5.04118 8.30907L 5.28994 7.99147L 4.99882 6.68556C 5.24859 6.62883 5.48238 6.5305 5.69277 6.39797L 6.41032 7.52742L 6.81078 7.57609L 5.85132 6.28879C 5.88541 6.26292 5.91864 6.23604 5.95117 6.2083L 7.1485 7.61719L 7.68199 7.68194L 7.61714 7.1485L 6.2083 5.95117C 6.23594 5.91864 6.26287 5.88546 6.28874 5.85137L 7.57609 6.81078L 7.52742 6.41032L 6.39802 5.69262C 6.5305 5.48238 6.62883 5.24849 6.68562 4.99877L 7.99152 5.28994L 8.30912 5.04118L 6.72021 4.80926C 6.72606 4.76715 6.7306 4.72464 6.73403 4.68177L 8.5769 4.83139Z"/>
<path id="path5_fill" fill-rule="evenodd" d="M 0.485022 0L 1.06367 0.514424L 1.72107 0.110764L 1.42131 0.83238L 2 1.34685L 1.23605 1.27838L 0.936333 2L 0.763903 1.23604L 0 1.16762L 0.657402 0.763909L 0.485022 0Z"/>
<path id="path6_fill" fill-rule="evenodd" d="M 0.934229 0L 1.23606 0.720327L 2 0.649666L 1.4226 1.16532L 1.72448 1.8856L 1.06582 1.48424L 0.488425 2L 0.65866 1.23609L 0 0.834675L 0.763944 0.763912L 0.934229 0Z"/>
<path id="path7_fill" fill-rule="evenodd" d="M 1.24033 0L 1.23768 0.76398L 2 1.00248L 1.23612 1.23602L 1.23341 2L 0.763988 1.3805L 0 1.61415L 0.473792 0.997622L 0.00421403 0.378176L 0.766641 0.616573L 1.24033 0Z"/>
</defs>
</svg>
