<svg width="144" height="127" viewBox="0 0 144 127" version="1.1" xmlns="http://www.w3.org/2000/svg" xmlns:xlink="http://www.w3.org/1999/xlink">
<title>Page 1.svg</title>
<desc>Created using Figma</desc>
<g id="Canvas" transform="translate(-3865 -738)">
<g id="Page 1">
<g id="Fill 1">
<use xlink:href="#path0_fill" transform="translate(3946 741)" fill="#CEE8FA"/>
</g>
<g id="Group 5">
<mask id="mask0_outline" mask-type="alpha">
<g id="Clip 4">
<use xlink:href="#path1_fill" transform="translate(3940 738)" fill="#FFFFFF"/>
</g>
</mask>
<g id="Fill 3" mask="url(#mask0_outline)">
<use xlink:href="#path2_fill" transform="translate(3940 738)" fill="#2D527C"/>
</g>
</g>
<g id="Group 8">
<g id="Fill 6">
<use xlink:href="#path3_fill" transform="translate(3865 781)" fill="#2D527C"/>
</g>
</g>
<g id="Fill 9">
<use xlink:href="#path4_fill" transform="translate(3916 809)" fill="#2D527C"/>
</g>
<g id="Fill 11">
<use xlink:href="#path5_fill" transform="translate(3885 809)" fill="#2D527C"/>
</g>
<g id="Fill 13">
<use xlink:href="#path6_fill" transform="translate(3886 829)" fill="#2D527C"/>
</g>
</g>
</g>
<defs>
<path id="path0_fill" fill-rule="evenodd" d="M 49.8166 41.4724L 57.3144 41.4724C 59.3496 41.4724 61 39.8306 61 37.8054L 61 3.66696C 61 1.64205 59.3499 0 57.3144 0L 3.68558 0C 1.65039 0 0 1.64176 0 3.66696L 0 37.8054C 0 39.8303 1.6501 41.4724 3.68558 41.4724L 11.1807 41.4724L 10.4019 54.7053C 10.2872 56.6532 12.6203 57.7447 14.0551 56.4139L 30.1626 41.4724L 40.9202 41.4724L 49.8166 41.4724Z"/>
<path id="path1_fill" fill-rule="evenodd" d="M 69 65L 69 0L 0 1.68311e-14L 0 65L 69 65Z"/>
<path id="path2_fill" fill-rule="evenodd" d="M 8 41.1996L 15.1848 41.1996C 16.2846 41.1996 17.3359 41.6464 18.0899 42.4352C 18.8444 43.2234 19.2357 44.284 19.1718 45.3655L 18.6586 54L 31.4395 42.2567C 32.1795 41.5773 33.152 41.1996 34.1631 41.1996L 61 41.1996L 61 8L 8 8L 8 41.1996ZM 16.5856 65C 14.8835 65 13.2371 64.2917 12.0673 63.0573C 10.8985 61.8235 10.3108 60.2027 10.4113 58.4927L 10.9422 49.4597L 7.68134 49.4597C 3.44585 49.4597 0 46.0292 0 41.8122L 0 7.64695C 0 3.43056 3.44585 0 7.68134 0L 61.3184 0C 65.5538 0 69 3.43056 69 7.64695L 69 41.8119C 69 46.0289 65.5538 49.4594 61.3184 49.4594L 35.7365 49.4594L 20.7774 63.3442C 19.6276 64.4117 18.1388 65 16.5856 65Z"/>
<path id="path3_fill" fill-rule="evenodd" d="M 42 84C 18.8412 84 0 65.1588 0 42.0001C 0 18.8412 18.8412 0 42 0C 65.1588 0 84 18.8409 84 42.0001C 84 48.6548 82.4876 55.0217 79.505 60.9225C 78.5137 62.8834 76.1214 63.6692 74.1614 62.6776C 72.2004 61.6873 71.415 59.2944 72.4059 57.334C 74.821 52.5556 76.0456 47.3968 76.0456 41.9996C 76.0456 23.2264 60.7731 7.95354 42 7.95354C 23.2269 7.95354 7.9547 23.2267 7.9547 41.9999C 7.9547 60.7724 23.2266 76.0456 42 76.0456C 49.624 76.0456 56.8293 73.5837 62.8382 68.9261C 64.5738 67.5801 67.0721 67.8969 68.4181 69.6322C 69.764 71.3684 69.4472 73.8661 67.7116 75.2121C 60.2955 80.9608 51.4043 84 42 84Z"/>
<path id="path4_fill" fill-rule="evenodd" d="M 6.5 0C 2.91602 0 0 2.91544 0 6.5C 0 10.0846 2.91602 13 6.5 13C 10.084 13 13 10.084 13 6.5C 13 2.91602 10.084 0 6.5 0Z"/>
<path id="path5_fill" fill-rule="evenodd" d="M 6.5 0C 2.91632 0 0 2.91544 0 6.5C 0 10.0846 2.91573 13 6.5 13C 10.0846 13 13 10.084 13 6.5C 13 2.91602 10.084 0 6.5 0Z"/>
<path id="path6_fill" fill-rule="evenodd" d="M 21 20C 11.7609 20 3.6247 14.318 0.271747 5.52537C -0.523733 3.43955 0.486494 1.08937 2.52851 0.276709C 4.57023 -0.533841 6.87042 0.496397 7.6662 2.58252C 9.82312 8.23797 15.0565 11.893 21 11.893C 26.9435 11.893 32.1766 8.23797 34.3338 2.58252C 35.1296 0.497 37.4307 -0.533841 39.4715 0.276709C 41.5132 1.08937 42.5235 3.43985 41.7286 5.52537C 38.3753 14.318 30.2389 20 21 20Z"/>
</defs>
</svg>
