<svg width="24" height="25" viewBox="0 0 24 25" version="1.1" xmlns="http://www.w3.org/2000/svg" xmlns:xlink="http://www.w3.org/1999/xlink">
<title>Page 1 Copy</title>
<desc>Created using Figma</desc>
<g id="Canvas" transform="translate(-624 -1302)">
<g id="Page 1 Copy 2">
<mask id="mask0_outline" mask-type="alpha">
<g id="Mask">
<use xlink:href="#path0_fill" transform="translate(624 1302)" fill="#FFFFFF"/>
</g>
</mask>
<g id="Mask" mask="url(#mask0_outline)">
<use xlink:href="#path0_fill" transform="translate(624 1302)" fill="#D8D8D8"/>
</g>
<g id="Page 1" mask="url(#mask0_outline)">
<g id="Fill 1">
<use xlink:href="#path1_fill" transform="translate(619 1300)" fill="#ED1C24"/>
</g>
<g id="Fill 2">
<use xlink:href="#path2_fill" transform="translate(622 1307)" fill="#FFFFFF"/>
</g>
<g id="Fill 3">
<use xlink:href="#path3_fill" transform="translate(622 1310)" fill="#241D4F"/>
</g>
</g>
</g>
</g>
<defs>
<path id="path0_fill" fill-rule="evenodd" d="M 12 25C 18.6274 25 24 19.4036 24 12.5C 24 5.59644 18.6274 0 12 0C 5.37258 0 0 5.59644 0 12.5C 0 19.4036 5.37258 25 12 25Z"/>
<path id="path1_fill" fill-rule="evenodd" d="M 0 30L 42 30L 42 0L 0 0L 0 30Z"/>
<path id="path2_fill" fill-rule="evenodd" d="M 0 17L 35 17L 35 0L 0 0L 0 17Z"/>
<path id="path3_fill" fill-rule="evenodd" d="M 0 8L 35 8L 35 0L 0 0L 0 8Z"/>
</defs>
</svg>
