<svg width="117" height="122" viewBox="0 0 117 122" version="1.1" xmlns="http://www.w3.org/2000/svg" xmlns:xlink="http://www.w3.org/1999/xlink">
<title>Page 1.svg</title>
<desc>Created using Figma</desc>
<g id="Canvas" transform="translate(-4699 -741)">
<g id="Page 1">
<g id="Fill 1">
<use xlink:href="#path0_fill" transform="translate(4702.2 749.581)" fill="#FFFFFF"/>
</g>
<g id="Path 5">
<use xlink:href="#path1_fill" transform="translate(4756.2 766.722)" fill="#CEE8FA"/>
</g>
<g id="Path 5 Copy">
<use xlink:href="#path2_fill" transform="matrix(-0.97437 0.224951 -0.224951 -0.97437 4774.93 829.617)" fill="#CEE8FA"/>
</g>
<g id="Stroke 3">
<use xlink:href="#path3_stroke" transform="translate(4702.2 749.581)" fill="#2D527C"/>
</g>
<g id="Stroke 5">
<use xlink:href="#path4_stroke" transform="translate(4756.6 749.581)" fill="#2D527C"/>
</g>
<g id="Stroke 7">
<use xlink:href="#path5_stroke" transform="translate(4702.2 803.794)" fill="#2D527C"/>
</g>
<g id="Stroke 9">
<use xlink:href="#path6_stroke" transform="translate(4718.2 765.526)" fill="#2D527C"/>
</g>
<g id="Stroke 11">
<use xlink:href="#path7_stroke" transform="translate(4718.2 765.526)" fill="#2D527C"/>
</g>
<g id="Fill 13">
<use xlink:href="#path8_fill" transform="translate(4742.2 789.045)" fill="#FFFFFF"/>
</g>
<g id="Stroke 15">
<use xlink:href="#path9_stroke" transform="translate(4742.2 789.045)" fill="#2D527C"/>
</g>
<g id="Fill 17">
<use xlink:href="#path10_fill" transform="translate(4746.2 744)" fill="#CEE8FA"/>
</g>
<g id="Stroke 19">
<use xlink:href="#path11_stroke" transform="translate(4746.2 744)" fill="#2D527C"/>
</g>
</g>
</g>
<defs>
<path id="path0_fill" fill-rule="evenodd" d="M 110 54.811C 110 85.0812 85.375 109.622 54.9994 109.622C 24.6243 109.622 0 85.0812 0 54.811C 0 24.5397 24.6243 0 54.9994 0C 85.375 0 110 24.5397 110 54.811Z"/>
<path id="path1_fill" fill-rule="evenodd" d="M 39.2781 0L 2.21875 33.5873L 0 92.9109C 0 92.9109 30.3594 89.2781 39.2781 77.6993C 38.8781 77.4454 7.81406 42.8974 7.81406 42.8974L 10.6094 37.4677L 56.4991 37.4677C 56.4991 37.4677 54.1635 19.7476 51.2234 13.3508C 48.2833 6.95406 39.2781 0 39.2781 0Z"/>
<path id="path2_fill" fill-rule="evenodd" d="M 56.8845 0L 11.0539 33.4877L 0 81.2028C 0 81.2028 30.9612 84.9805 39.8799 73.4017C 39.4799 73.1478 21.292 41.4589 21.292 41.4589L 25.6876 31.338L 65.2638 40.4434C 65.2638 40.4434 68.4763 20.1221 65.5362 13.7253C 62.5961 7.32854 56.8845 0 56.8845 0Z"/>
<path id="path3_stroke" d="M 107.06 54.811C 107.06 83.448 83.7609 106.682 54.9994 106.682L 54.9994 112.562C 86.9892 112.562 112.94 86.7145 112.94 54.811L 107.06 54.811ZM 54.9994 106.682C 26.2386 106.682 2.94 83.448 2.94 54.811L -2.94 54.811C -2.94 86.7144 23.0101 112.562 54.9994 112.562L 54.9994 106.682ZM 2.94 54.811C 2.94 26.1729 26.2385 2.94 54.9994 2.94L 54.9994 -2.94C 23.0101 -2.94 -2.94 22.9065 -2.94 54.811L 2.94 54.811ZM 54.9994 2.94C 83.7609 2.94 107.06 26.173 107.06 54.811L 112.94 54.811C 112.94 22.9064 86.9892 -2.94 54.9994 -2.94L 54.9994 2.94Z"/>
<path id="path4_stroke" d="M 2.94 0C 2.94 -1.62372 1.62372 -2.94 0 -2.94C -1.62372 -2.94 -2.94 -1.62372 -2.94 0L 2.94 0ZM -2.94 109.622C -2.94 111.246 -1.62372 112.562 0 112.562C 1.62372 112.562 2.94 111.246 2.94 109.622L -2.94 109.622ZM -2.94 0L -2.94 109.622L 2.94 109.622L 2.94 0L -2.94 0Z"/>
<path id="path5_stroke" d="M 110 2.94C 111.624 2.94 112.94 1.62372 112.94 0C 112.94 -1.62372 111.624 -2.94 110 -2.94L 110 2.94ZM 0 -2.94C -1.62372 -2.94 -2.94 -1.62372 -2.94 0C -2.94 1.62372 -1.62372 2.94 0 2.94L 0 -2.94ZM 110 -2.94L 0 -2.94L 0 2.94L 110 2.94L 110 -2.94Z"/>
<path id="path6_stroke" d="M 2.07531 -2.08247C 0.925197 -3.22863 -0.936305 -3.22543 -2.08247 -2.07531C -3.22863 -0.925197 -3.22543 0.936305 -2.07531 2.08247L 2.07531 -2.08247ZM 75.5247 79.4158C 76.6748 80.562 78.5363 80.5588 79.6825 79.4086C 80.8286 78.2585 80.8254 76.397 79.6753 75.2509L 75.5247 79.4158ZM -2.07531 2.08247L 75.5247 79.4158L 79.6753 75.2509L 2.07531 -2.08247L -2.07531 2.08247Z"/>
<path id="path7_stroke" d="M 79.6753 2.08247C 80.8254 0.936305 80.8286 -0.925197 79.6825 -2.07531C 78.5363 -3.22543 76.6748 -3.22863 75.5247 -2.08247L 79.6753 2.08247ZM -2.07531 75.2509C -3.22543 76.397 -3.22863 78.2585 -2.08247 79.4086C -0.936305 80.5588 0.925197 80.562 2.07531 79.4158L -2.07531 75.2509ZM 75.5247 -2.08247L -2.07531 75.2509L 2.07531 79.4158L 79.6753 2.08247L 75.5247 -2.08247Z"/>
<path id="path8_fill" fill-rule="evenodd" d="M 14.9995 29.8969C 6.72923 29.8969 0 23.1908 0 14.9486C 0 6.70589 6.72923 0 14.9995 0C 23.2703 0 30 6.70589 30 14.9486C 30 23.1908 23.2703 29.8969 14.9995 29.8969Z"/>
<path id="path9_stroke" d="M 14.9995 26.9569C 8.34345 26.9569 2.94 21.5576 2.94 14.9486L -2.94 14.9486C -2.94 24.824 5.115 32.8369 14.9995 32.8369L 14.9995 26.9569ZM 2.94 14.9486C 2.94 8.33909 8.34345 2.94 14.9995 2.94L 14.9995 -2.94C 5.115 -2.94 -2.94 5.07269 -2.94 14.9486L 2.94 14.9486ZM 14.9995 2.94C 21.6563 2.94 27.06 8.33928 27.06 14.9486L 32.94 14.9486C 32.94 5.0725 24.8844 -2.94 14.9995 -2.94L 14.9995 2.94ZM 27.06 14.9486C 27.06 21.5574 21.6563 26.9569 14.9995 26.9569L 14.9995 32.8369C 24.8844 32.8369 32.94 24.8242 32.94 14.9486L 27.06 14.9486Z"/>
<path id="path10_fill" fill-rule="evenodd" d="M 0 0L 20.8 0L 10.3992 15.945L 0 0Z"/>
<path id="path11_stroke" d="M 0 0L 0 -2.74C -1.00554 -2.74 -1.9303 -2.18922 -2.40923 -1.30506C -2.88817 -0.420908 -2.84434 0.654551 -2.29504 1.4968L 0 0ZM 20.8 0L 23.0949 1.49697C 23.6443 0.654732 23.6882 -0.420768 23.2093 -1.30497C 22.7304 -2.18918 21.8056 -2.74 20.8 -2.74L 20.8 0ZM 10.3992 15.945L 8.10411 17.4418C 8.60991 18.2173 9.47316 18.685 10.399 18.685C 11.3249 18.6851 12.1882 18.2175 12.6941 17.442L 10.3992 15.945ZM 0 2.74L 20.8 2.74L 20.8 -2.74L 0 -2.74L 0 2.74ZM 18.5051 -1.49697L 8.10423 14.448L 12.6941 17.442L 23.0949 1.49697L 18.5051 -1.49697ZM 12.6942 14.4482L 2.29504 -1.4968L -2.29504 1.4968L 8.10411 17.4418L 12.6942 14.4482Z"/>
</defs>
</svg>
